<svg width="803" height="416" viewBox="0 0 803 416" fill="none" xmlns="http://www.w3.org/2000/svg">
<rect x="5.3584" y="5" width="480" height="301.772" rx="20" fill="#F5F0FE"/>
<path fill-rule="evenodd" clip-rule="evenodd" d="M146.469 121.298C143.545 121.521 140.935 122.176 138.93 123.188C137.541 123.889 136.739 124.447 135.729 125.417C134.296 126.792 133.316 128.35 132.676 130.27C131.981 132.356 132.029 133.075 132.894 133.526C133.116 133.642 139.287 134.37 140.046 134.37C140.774 134.37 141.119 133.946 141.565 132.503C142.272 130.215 144.247 128.892 146.959 128.89C149.546 128.887 151.2 130.141 151.636 132.436C151.783 133.208 151.828 136.691 151.692 136.691C151.425 136.691 147.033 137.17 145.89 137.324C140.306 138.075 136.957 139.41 134.485 141.869C132.174 144.17 131.015 147.131 131.013 150.741C131.012 154.151 131.943 156.779 133.859 158.774C135.419 160.398 137.357 161.334 139.91 161.697C140.904 161.838 143.875 161.755 144.999 161.555C147.704 161.072 149.646 160.025 152.225 157.655L153.264 156.7L153.688 157.342C154.699 158.872 155.83 160.169 156.966 161.103C157.68 161.689 158.348 161.698 159.056 161.132C159.483 160.79 163.853 157.002 164.383 156.514C165.101 155.853 165.008 155.385 163.832 153.737C162.768 152.247 162.239 151.181 162.009 150.068C161.848 149.284 161.838 148.782 161.836 141.601C161.835 137.403 161.795 133.319 161.746 132.525C161.525 128.871 160.667 126.726 158.665 124.821C156.855 123.097 154.246 121.975 150.878 121.473C149.958 121.335 147.34 121.232 146.469 121.298ZM238.536 121.34C231.968 121.922 227.431 124.778 225.53 129.528C225.066 130.687 224.688 132.208 224.764 132.614C224.84 133.016 225.129 133.378 225.501 133.534C225.781 133.651 231.92 134.37 232.636 134.369C233.304 134.369 233.787 133.86 233.992 132.941C234.197 132.025 234.676 131.167 235.365 130.483C236.464 129.393 237.723 128.904 239.472 128.888C240.565 128.878 241.159 128.995 241.979 129.38C242.749 129.742 243.347 130.314 243.74 131.062C244.214 131.968 244.327 132.614 244.388 134.794C244.436 136.468 244.426 136.691 244.305 136.691C244.079 136.691 240.002 137.127 238.848 137.275C233.985 137.896 230.718 138.962 228.461 140.66C227.507 141.379 226.233 142.698 225.633 143.591C224.737 144.921 224.127 146.453 223.778 148.253C223.561 149.372 223.561 152.113 223.779 153.297C224.43 156.848 226.263 159.362 229.216 160.757C230.758 161.484 232.277 161.779 234.485 161.779C238.922 161.779 241.745 160.616 245.055 157.423L245.828 156.678L246.294 157.376C247.126 158.622 247.858 159.499 248.864 160.459C250.437 161.959 250.737 161.955 252.502 160.402C253.126 159.852 254.398 158.75 255.329 157.953C256.26 157.155 257.111 156.378 257.222 156.226C257.617 155.68 257.455 155.158 256.474 153.826C256.052 153.253 255.513 152.376 255.244 151.824C254.392 150.079 254.455 150.907 254.391 140.664C254.341 132.722 254.316 131.537 254.181 130.725C253.748 128.126 252.944 126.49 251.332 124.926C250.147 123.778 249.065 123.104 247.351 122.449C246.363 122.071 244.645 121.64 243.436 121.468C242.243 121.298 239.745 121.233 238.536 121.34ZM187.091 121.697C185.482 121.914 183.721 122.637 182.572 123.553C181.388 124.496 180.487 125.683 179.688 127.352L179.213 128.343L179.21 125.896C179.207 123.458 179.206 123.447 178.987 123.073C178.594 122.4 178.635 122.406 174.507 122.406C170.871 122.406 170.858 122.406 170.565 122.607C170.403 122.717 170.186 122.921 170.084 123.06L169.898 123.312L169.873 141.675C169.846 162.286 169.79 160.576 170.502 161.047L170.865 161.288H174.746C178.468 161.288 178.64 161.281 178.93 161.11C179.097 161.011 179.317 160.818 179.42 160.679L179.608 160.427L179.657 148.492C179.701 137.842 179.723 136.461 179.857 135.664C180.38 132.57 181.547 131.097 183.728 130.78C184.631 130.648 185.671 130.775 186.387 131.103C187.7 131.706 188.476 133.204 188.735 135.638C188.795 136.193 188.828 140.788 188.828 148.388C188.828 161.211 188.802 160.503 189.287 160.941C189.402 161.045 189.632 161.175 189.799 161.231C190.185 161.361 197.101 161.372 197.562 161.244C197.978 161.128 198.442 160.637 198.544 160.205C198.592 160.005 198.623 155.1 198.619 148.521C198.613 136.714 198.632 135.983 198.993 134.548C199.562 132.29 201.37 130.794 203.523 130.8C205.248 130.805 206.516 131.477 207.115 132.703C207.692 133.883 207.657 133.013 207.71 147.36L207.758 160.395L207.966 160.687C208.402 161.3 208.31 161.288 212.613 161.288C216.341 161.288 216.5 161.281 216.8 161.108C216.985 161 217.194 160.765 217.314 160.527L217.517 160.128L217.487 145.262C217.454 128.933 217.49 129.999 216.922 128.122C215.943 124.886 213.302 122.621 209.564 121.813C208.494 121.581 206.358 121.598 205.219 121.846C201.966 122.555 199.592 124.42 198.142 127.405L197.75 128.212L197.265 127.281C196.516 125.842 195.999 125.118 195.025 124.137C193.726 122.83 192.37 122.114 190.565 121.781C189.821 121.643 187.839 121.596 187.091 121.697ZM307.532 121.66C304.36 122.022 302.361 122.732 300.182 124.27C298.86 125.204 297.146 127.076 296.165 128.659C293.36 133.187 292.24 139.871 293.197 146.378C293.618 149.236 294.616 152.259 295.851 154.414C297.338 157.009 299.504 159.176 301.845 160.411C302.929 160.983 304.507 161.533 305.821 161.798C307.132 162.063 310.178 162.09 311.451 161.849C314.577 161.257 317.137 159.901 319.342 157.668C322.445 154.527 324.365 150.017 324.864 144.698C325.001 143.233 324.924 139.429 324.729 138.03C323.385 128.419 318.198 122.49 310.44 121.697C309.577 121.608 308.14 121.59 307.532 121.66ZM347.664 121.695C344.067 122.125 341.658 124.103 339.856 128.108L339.469 128.968L339.468 126.264C339.468 123.301 339.453 123.204 338.939 122.718L338.655 122.451L334.941 122.427C330.794 122.4 330.822 122.397 330.406 123.022L330.203 123.325V141.798C330.203 161.76 330.173 160.499 330.663 160.941C330.777 161.045 331.008 161.175 331.174 161.231C331.596 161.373 338.469 161.372 338.94 161.231C339.127 161.175 339.412 160.992 339.574 160.824L339.869 160.519L339.923 149.208C339.962 141.16 340.008 137.69 340.084 137.182C340.593 133.759 341.603 131.918 343.448 131.048C345.307 130.17 347.531 130.784 348.501 132.443C348.816 132.981 349.158 134.049 349.327 135.019C349.454 135.743 349.475 137.321 349.502 148.074C349.537 161.712 349.485 160.674 350.151 161.089C350.465 161.285 350.522 161.289 354.167 161.315C358.254 161.345 358.418 161.328 358.902 160.828L359.2 160.519L359.227 147.333C359.257 132.21 359.229 131.415 358.578 128.827C357.962 126.376 356.698 124.498 354.801 123.214C352.938 121.954 350.263 121.384 347.664 121.695ZM263.592 122.463C263.433 122.542 263.212 122.752 263.102 122.93C262.904 123.25 262.901 123.295 262.901 126.261C262.901 129.158 262.907 129.276 263.084 129.514C263.185 129.65 263.379 129.843 263.514 129.945C263.756 130.125 263.872 130.13 270.035 130.173L276.31 130.218L269.288 140.316C265.426 145.871 262.178 150.618 262.072 150.867C261.645 151.861 261.612 152.226 261.611 155.931C261.61 159.25 261.618 159.427 261.787 159.704C261.998 160.052 262.455 160.35 262.776 160.35C262.904 160.351 263.471 160.13 264.037 159.861C267.799 158.068 271.279 157.287 275.506 157.286C279.776 157.285 283.3 158.063 287.022 159.83C287.982 160.286 288.208 160.361 288.471 160.311C288.881 160.234 289.369 159.737 289.495 159.269C289.561 159.023 289.584 157.92 289.565 155.943C289.537 153.053 289.532 152.974 289.326 152.517C289.03 151.862 288.588 151.502 287.331 150.895C284.165 149.364 281.3 148.733 276.426 148.494L275.164 148.432L281.533 139.325C285.036 134.316 288.063 129.949 288.259 129.62C288.841 128.645 288.869 128.473 288.869 125.803C288.869 123.513 288.861 123.411 288.668 123.034C288.268 122.252 289.422 122.316 275.864 122.319C265.065 122.32 263.852 122.335 263.592 122.463ZM310.493 129.356C312.66 130.032 313.652 131.956 314.229 136.602C314.363 137.681 314.39 138.588 314.39 142.048C314.391 144.902 314.356 146.465 314.278 147.048C313.773 150.833 312.72 153.039 310.985 153.946C310.185 154.364 309.571 154.489 308.535 154.443C307.773 154.41 307.616 154.372 307.013 154.073C304.965 153.058 303.827 150.21 303.472 145.207C303.33 143.197 303.411 137.152 303.597 135.865C304.178 131.867 305.515 129.75 307.79 129.229C308.49 129.068 309.763 129.128 310.493 129.356ZM151.743 145.106C151.695 147.925 151.634 148.472 151.223 149.724C150.447 152.085 148.814 153.869 146.926 154.415C146.535 154.528 146.155 154.558 145.41 154.534C144.491 154.505 144.369 154.48 143.797 154.197C143.011 153.809 142.425 153.223 142.02 152.415C141.551 151.482 141.409 150.779 141.416 149.414C141.422 148.023 141.607 147.204 142.147 146.174C143.413 143.758 146.399 142.516 151.177 142.418L151.788 142.405L151.743 145.106ZM244.413 143.99C244.409 145.964 244.294 147.679 244.102 148.61C243.762 150.265 242.932 151.903 241.914 152.929C240.813 154.039 239.677 154.541 238.263 154.545C236.883 154.549 236.086 154.23 235.245 153.339C234.32 152.359 233.942 151.052 234.017 149.101C234.086 147.308 234.493 146.184 235.465 145.101C236.994 143.396 239.779 142.496 243.77 142.418L244.416 142.405L244.413 143.99ZM273.601 162.946C269.11 163.268 264.491 164.769 262.164 166.663C261.491 167.211 261.319 167.857 261.755 168.201C262.051 168.435 262.336 168.436 264.328 168.207C268.66 167.711 272.779 167.534 274.801 167.758C276.565 167.953 277.732 168.385 278.13 168.99C279.117 170.488 278.246 174.652 275.437 181.868C274.458 184.384 274.361 184.849 274.753 185.159C275.291 185.583 275.959 185.255 277.308 183.905C280.627 180.586 283.045 175.497 284.027 169.77C284.219 168.651 284.251 165.681 284.078 165.11C284.016 164.904 283.848 164.618 283.706 164.476C282.571 163.338 277.929 162.636 273.601 162.946ZM163.56 165.433C162.933 165.816 162.971 166.676 163.645 167.332C164.2 167.873 166.176 169.565 167.492 170.628C180.013 180.733 195.197 187.272 211.103 189.408C222.852 190.986 234.119 190.333 245.708 187.403C255.118 185.024 263.322 181.498 270.339 176.815C272.896 175.108 273.39 174.664 273.557 173.918C273.79 172.88 272.875 171.875 271.694 171.87C271.298 171.868 270.807 172.033 268.665 172.887C256.179 177.864 243.419 180.656 230.073 181.332C227.82 181.446 221.995 181.446 219.606 181.332C200.791 180.433 182.558 175.302 166.646 166.429C164.373 165.161 164.132 165.083 163.56 165.433Z" fill="#150D40"/>
<rect x="2.8584" y="2.5" width="485" height="306.772" rx="22.5" stroke="#7234F5" stroke-opacity="0.1" stroke-width="5"/>
<path d="M520.066 60.5272L551.24 47.8949L553.596 53.5307C611.422 51.7277 674.035 98.889 704.602 172.715C735.169 246.542 724.021 323.589 681.538 362.444L683.871 368.08L652.702 380.712C587.418 407.167 504.825 356.944 468.194 268.524C431.563 180.103 454.788 86.9881 520.066 60.5272Z" fill="#48A98E" stroke="#141414"/>
<path d="M499.309 255.908C462.688 167.492 485.922 74.3673 551.205 47.9082C616.488 21.4492 699.097 71.6754 735.718 160.092C772.34 248.508 749.105 341.633 683.823 368.092C618.54 394.551 535.931 344.324 499.309 255.908Z" fill="#50AF95" stroke="#141414"/>
<path d="M644.813 361.111L644.816 361.111C656.32 361.454 667.769 359.415 678.43 355.126C705.686 344.075 725.522 318.832 734.222 283.961C743.306 247.55 739.192 205.442 722.605 165.389C709.17 132.953 688.95 105.191 664.14 85.1035L664.14 85.1033C640.832 66.2081 614.563 55.4844 590.233 54.8416L590.232 54.8415C578.718 54.4962 567.259 56.5347 556.589 60.8264C529.333 71.8772 509.502 97.1203 500.802 131.992C491.718 168.403 495.832 210.51 512.42 250.564C525.855 282.999 546.074 310.756 570.879 330.878C594.193 349.767 620.461 360.491 644.813 361.111Z" fill="#50AF95" stroke="#141414"/>
<path d="M719.073 282.182C727.875 246.72 720.02 208.028 703.958 169.051C687.897 130.074 667.246 101.447 635.945 82.3172C607.796 65.1186 581.952 55.4212 556.594 63.8687C558.126 63.1294 559.68 62.4286 561.262 61.7886C587.701 51.018 617.338 59.0186 647.279 77.3098C678.575 96.4341 703.017 128.437 719.078 167.414C735.139 206.391 739.207 246.731 730.399 282.182C721.98 316.105 705.769 341.295 679.33 352.06C677.746 352.708 675.343 353.298 673.73 353.831C697.767 342.173 711.131 314.074 719.073 282.182Z" fill="#48A98E"/>
<path fill-rule="evenodd" clip-rule="evenodd" d="M601.122 232.784C602.05 232.775 606.813 232.663 617.178 231.85C625.422 231.203 631.172 230.518 633.185 230.268C664.459 226.492 685.917 219.576 683.137 213.529C680.356 207.482 654.256 204.305 621.799 205.508L630.872 225.238C628.851 225.538 623.033 226.327 614.789 226.974C604.896 227.75 599.769 227.764 598.842 227.759L589.773 208.035C558.573 211.82 537.167 218.732 539.941 224.765C542.715 230.798 568.759 233.987 601.149 232.775L601.122 232.784ZM588.836 206.001L580.72 188.352L536.366 191.832L523.989 164.918L644.751 155.443L657.127 182.357L612.78 185.836L620.893 203.478C657.632 202.158 687.729 206.532 691.312 214.323C694.894 222.114 670.774 230.736 635.425 235.079L661.432 291.635L629.38 294.15L603.363 237.573C566.706 238.888 536.657 234.516 533.078 226.732C529.498 218.948 553.551 210.332 588.841 205.993L588.836 206.001Z" fill="#48A98E"/>
<path fill-rule="evenodd" clip-rule="evenodd" d="M616.181 217.7C617.109 217.69 621.872 217.578 632.237 216.765C640.482 216.118 646.231 215.434 648.244 215.184C679.518 211.407 700.977 204.491 698.196 198.444C695.416 192.398 669.315 189.22 636.859 190.424L645.931 210.154C643.911 210.454 638.092 211.243 629.848 211.89C619.955 212.666 614.828 212.679 613.902 212.674L604.832 192.951C573.632 196.735 552.226 203.648 555 209.681C557.774 215.714 583.818 218.903 616.208 217.69L616.181 217.7ZM603.896 190.916L595.78 173.267L551.425 176.747L539.049 149.834L659.81 140.358L672.187 167.272L627.84 170.752L635.952 188.394C672.691 187.073 702.788 191.448 706.371 199.239C709.954 207.03 685.833 215.652 650.484 219.994L676.492 276.55L644.44 279.065L618.423 222.489C581.766 223.803 551.717 219.432 548.137 211.647C544.558 203.863 568.611 195.247 603.9 190.909L603.896 190.916Z" fill="white"/>
<path d="M616.181 217.7L616.352 218.156L615.858 217.268L616.181 217.7ZM636.859 190.424L636.36 190.463L636.142 189.988L636.672 189.968L636.859 190.424ZM645.931 210.154L646.43 210.115L646.624 210.538L646.175 210.604L645.931 210.154ZM629.848 211.89L630.057 212.344L629.848 211.89ZM613.902 212.674L614.064 213.13L613.594 213.128L613.403 212.714L613.902 212.674ZM604.832 192.951L604.601 192.499L605.112 192.437L605.33 192.912L604.832 192.951ZM616.208 217.69L616.022 217.235L616.532 218.122L616.208 217.69ZM603.896 190.916L604.396 191.21L603.901 192.051L603.397 190.956L603.896 190.916ZM595.78 173.267L595.571 172.813L596.069 172.774L596.278 173.228L595.78 173.267ZM551.425 176.747L551.634 177.202L551.136 177.241L550.927 176.787L551.425 176.747ZM539.049 149.834L538.55 149.873L538.341 149.419L538.84 149.379L539.049 149.834ZM659.81 140.358L659.602 139.904L660.1 139.865L660.309 140.319L659.81 140.358ZM672.187 167.272L672.685 167.233L672.894 167.687L672.395 167.726L672.187 167.272ZM627.84 170.752L627.341 170.791L627.132 170.336L627.631 170.297L627.84 170.752ZM635.952 188.394L636.138 188.85L635.653 188.867L635.454 188.433L635.952 188.394ZM650.484 219.994L649.986 220.034L649.786 219.6L650.253 219.542L650.484 219.994ZM676.492 276.55L676.99 276.511L677.199 276.966L676.701 277.005L676.492 276.55ZM644.44 279.065L644.648 279.52L644.15 279.559L643.941 279.105L644.44 279.065ZM618.423 222.489L618.237 222.033L618.721 222.016L618.921 222.449L618.423 222.489ZM616.011 217.244C616.921 217.235 621.67 217.123 632.029 216.311L632.446 217.219C622.073 218.033 617.297 218.146 616.352 218.156L616.011 217.244ZM632.029 216.311C640.263 215.664 646.005 214.981 648.012 214.732L648.476 215.636C646.458 215.886 640.7 216.572 632.446 217.219L632.029 216.311ZM648.014 214.731C663.633 212.846 676.782 210.177 685.671 207.233C690.119 205.76 693.475 204.225 695.541 202.699C696.575 201.936 697.267 201.188 697.621 200.47C697.973 199.754 697.978 199.094 697.698 198.484L698.694 198.405C699.109 199.306 699.052 200.185 698.641 201.02C698.231 201.852 697.459 202.667 696.383 203.461C694.23 205.05 690.788 206.615 686.31 208.098C677.346 211.068 664.13 213.746 648.475 215.636L648.014 214.731ZM697.698 198.484C697.417 197.873 696.827 197.26 695.863 196.648C694.897 196.033 693.589 195.443 691.95 194.889C688.673 193.783 684.188 192.864 678.742 192.166C667.858 190.772 653.255 190.278 637.045 190.879L636.672 189.968C652.919 189.366 667.594 189.859 678.57 191.264C684.053 191.967 688.644 192.9 692.057 194.053C693.763 194.629 695.204 195.269 696.323 195.981C697.447 196.695 698.28 197.504 698.694 198.405L697.698 198.484ZM637.357 190.384L646.43 210.115L645.433 210.193L636.36 190.463L637.357 190.384ZM646.175 210.604C644.145 210.906 638.314 211.696 630.057 212.344L629.639 211.435C637.87 210.789 643.677 210.002 645.687 209.704L646.175 210.604ZM630.057 212.344C620.15 213.121 615.007 213.135 614.064 213.13L613.74 212.218C614.649 212.223 619.76 212.211 629.639 211.435L630.057 212.344ZM613.403 212.714L604.334 192.99L605.33 192.912L614.4 212.635L613.403 212.714ZM605.063 193.403C589.481 195.293 576.363 197.962 567.495 200.905C563.058 202.378 559.711 203.911 557.649 205.435C556.618 206.197 555.928 206.943 555.575 207.66C555.224 208.374 555.219 209.033 555.498 209.641L554.502 209.72C554.088 208.82 554.145 207.943 554.555 207.11C554.964 206.279 555.734 205.466 556.808 204.673C558.955 203.085 562.388 201.523 566.856 200.04C575.798 197.072 588.983 194.393 604.601 192.499L605.063 193.403ZM555.498 209.641C555.778 210.25 556.367 210.862 557.328 211.473C558.293 212.087 559.598 212.677 561.233 213.23C564.503 214.335 568.977 215.254 574.412 215.952C585.272 217.346 599.845 217.84 616.022 217.235L616.395 218.146C600.181 218.753 585.537 218.259 574.584 216.853C569.112 216.151 564.531 215.217 561.126 214.066C559.423 213.491 557.985 212.851 556.868 212.14C555.747 211.427 554.915 210.619 554.502 209.72L555.498 209.641ZM616.532 218.122L616.505 218.131L615.858 217.268L615.885 217.259L616.532 218.122ZM603.397 190.956L595.281 173.307L596.278 173.228L604.394 190.877L603.397 190.956ZM595.988 173.722L551.634 177.202L551.217 176.293L595.571 172.813L595.988 173.722ZM550.927 176.787L538.55 149.873L539.547 149.794L551.924 176.708L550.927 176.787ZM538.84 149.379L659.602 139.904L660.019 140.813L539.257 150.288L538.84 149.379ZM660.309 140.319L672.685 167.233L671.688 167.311L659.312 140.398L660.309 140.319ZM672.395 167.726L628.048 171.206L627.631 170.297L671.978 166.818L672.395 167.726ZM628.338 170.712L636.451 188.355L635.454 188.433L627.341 170.791L628.338 170.712ZM635.767 187.938C654.158 187.277 670.908 188.04 683.524 189.951C689.828 190.905 695.132 192.151 699.105 193.664C703.039 195.162 705.857 196.997 706.87 199.2L705.873 199.278C705.094 197.585 702.806 195.952 698.941 194.48C695.115 193.023 689.927 191.796 683.666 190.848C671.154 188.954 654.485 188.19 636.138 188.85L635.767 187.938ZM706.87 199.2C707.882 201.402 706.89 203.536 704.559 205.525C702.206 207.534 698.377 209.495 693.359 211.338C683.316 215.025 668.411 218.272 650.716 220.446L650.253 219.542C667.906 217.373 682.736 214.138 692.695 210.481C697.678 208.652 701.417 206.725 703.683 204.791C705.973 202.836 706.651 200.971 705.873 199.278L706.87 199.2ZM650.982 219.955L676.99 276.511L675.993 276.59L649.986 220.034L650.982 219.955ZM676.701 277.005L644.648 279.52L644.231 278.611L676.283 276.096L676.701 277.005ZM643.941 279.105L617.924 222.528L618.921 222.449L644.938 279.026L643.941 279.105ZM618.608 222.945C600.258 223.602 583.541 222.838 570.947 220.929C564.654 219.975 559.359 218.73 555.393 217.218C551.465 215.721 548.651 213.887 547.639 211.687L548.636 211.608C549.414 213.3 551.698 214.931 555.557 216.402C559.377 217.858 564.556 219.084 570.805 220.031C583.295 221.925 599.931 222.689 618.237 222.033L618.608 222.945ZM547.639 211.687C546.627 209.487 547.616 207.354 549.939 205.366C552.286 203.359 556.105 201.399 561.111 199.558C571.13 195.873 586.003 192.628 603.669 190.457L604.132 191.361C586.508 193.527 571.71 196.76 561.775 200.414C556.804 202.242 553.076 204.167 550.816 206.1C548.534 208.053 547.858 209.916 548.636 211.608L547.639 211.687ZM604.4 191.203L604.396 191.21L603.396 190.623L603.4 190.615L604.4 191.203Z" fill="#141414"/>
</svg>
