<svg width="1475" height="418" viewBox="0 0 1475 418" fill="none" xmlns="http://www.w3.org/2000/svg">
<rect x="5.54346" y="57.9222" width="480" height="302.143" rx="20" fill="#F5F0FE"/>
<path fill-rule="evenodd" clip-rule="evenodd" d="M172.888 214.03V251.979H212.642L216.994 246.238L221.28 251.979H245.29V243.192H250.688C255.371 243.192 257.537 241.767 257.537 241.767V251.979H273.395V245.996L278.234 251.979H358.639C371.198 251.979 371.198 242.803 371.198 242.803V214.03H221.62L217.186 219.649L212.893 214.03H172.888ZM177.728 247.48V219.065H200.807V225.421H184.875V230.282H200.435V236.264H184.875V241.311H200.807V247.48H177.728ZM313.896 247.48H290.816V219.065H313.896V225.421H297.964V230.282H313.449V236.264H297.964V241.311H313.896V247.48ZM212.94 233.448L201.703 247.48H210.486L216.977 238.729L223.63 247.48H232.539L221.281 233.273L232.634 219.065H224.073L217.198 227.957L210.346 219.065H201.435L212.94 233.448ZM233.379 219.07V247.485H240.637V238.512H248.082C254.382 238.512 259.157 235.156 259.157 228.628C259.157 223.22 255.412 219.07 249.001 219.07H233.379ZM240.637 225.496H248.478C250.513 225.496 251.968 226.749 251.968 228.768C251.968 230.664 250.52 232.039 248.455 232.039H240.637V225.496ZM269.3 247.48H262.228V219.065H277.967C283.182 219.065 287.854 222.304 287.854 228.284C287.854 233.396 283.915 236.688 280.095 237.012L289.402 247.48H280.758L272.278 237.386H269.3V247.48ZM277.385 225.421H269.3V231.404H277.49C278.907 231.404 280.735 230.3 280.735 228.412C280.735 226.945 279.324 225.421 277.385 225.421ZM317.172 247.48V241.311H331.326C333.421 241.311 334.328 240.175 334.328 238.928C334.328 237.733 333.424 236.526 331.326 236.526H324.93C319.37 236.526 316.274 233.123 316.274 228.015C316.274 223.459 319.109 219.065 327.371 219.065H341.144L338.166 225.459H326.255C323.978 225.459 323.277 226.659 323.277 227.805C323.277 228.983 324.143 230.282 325.882 230.282H332.583C338.781 230.282 341.47 233.813 341.47 238.437C341.47 243.409 338.473 247.48 332.245 247.48H317.172ZM343.13 241.311V247.48H358.204C364.432 247.48 367.429 243.409 367.429 238.437C367.429 233.813 364.739 230.282 358.541 230.282H351.841C350.101 230.282 349.235 228.983 349.235 227.805C349.235 226.659 349.936 225.459 352.213 225.459H364.125L367.103 219.065H353.33C345.068 219.065 342.232 223.459 342.232 228.015C342.232 233.123 345.329 236.526 350.889 236.526H357.285C359.382 236.526 360.286 237.733 360.286 238.928C360.286 240.175 359.379 241.311 357.285 241.311H343.13Z" fill="#150D40"/>
<path fill-rule="evenodd" clip-rule="evenodd" d="M135.193 163.672L126.172 184.797L118.632 201.621H126.172H137.318L139.697 195.639H146.087L148.483 201.621H239.149V195.639L243.988 201.621H268.37V197.41C268.37 197.41 272.507 201.621 278.979 201.621H295.15L297.509 195.639H303.92L306.318 201.621H330.163V194.892L334.444 201.621H350.823V163.672H334.444V170.381L329.977 163.672H313.747V175.45L308.715 163.772L280.468 163.672C272.947 163.672 268.37 167.972 268.37 167.972V163.672H181.311L178.356 172.225L175.308 163.672H155.914V175.505L150.795 163.672H135.193ZM160.605 168.347V196.762H167.677V175.825L175.195 196.762H181.398L188.895 175.825V196.762H195.968V168.347H184.801L178.41 186.709L171.862 168.389L160.605 168.347ZM126.218 196.767L138.386 168.352H147.611L159.767 196.767H151.671L149.437 191.077H136.385L134.14 196.767H126.218ZM146.866 184.908L142.888 174.965L138.898 184.908H146.866ZM200.807 196.762V168.347H223.886V174.703H207.954V179.564H223.514V185.546H207.954V190.593H223.886V196.762H200.807ZM227.981 196.767V168.352H243.72C248.935 168.352 253.608 171.591 253.608 177.571C253.608 182.682 249.668 185.975 245.849 186.298L255.155 196.767H246.512L238.032 186.672H235.054V196.767H227.981ZM243.139 174.708H235.054V180.69H243.243C244.661 180.69 246.489 179.587 246.489 177.699C246.489 176.232 245.078 174.708 243.139 174.708ZM263.717 196.762H256.495V168.347H263.717V196.762ZM279.281 196.762H280.84L283.818 190.556H281.957C277.452 190.556 274.326 188.244 274.326 182.742C274.326 178.108 277.06 175.077 280.926 175.077H289.029V168.347H281.212C271.688 168.347 267.16 174.348 267.16 182.671C267.16 190.794 271.739 196.762 279.281 196.762ZM296.23 168.352L284.062 196.767H291.984L294.229 191.077H307.281L309.515 196.767H317.611L305.455 168.352H296.23ZM300.732 174.965L304.71 184.908H296.742L300.732 174.965ZM318.437 168.347V196.762H325.51V178.442L337.282 196.762H345.983V168.347H338.911V186.2L327.429 168.347H318.437Z" fill="#150D40"/>
<rect x="3.04346" y="55.4222" width="485" height="307.143" rx="22.5" stroke="#7234F5" stroke-opacity="0.1" stroke-width="5"/>
<rect x="474.642" y="125.121" width="480" height="302.143" rx="20" transform="rotate(-14.9861 474.642 125.121)" fill="#F5F0FE"/>
<g clip-path="url(#clip0_213_2305)">
<path d="M601.527 228.014C601.527 228.014 616.124 254.595 618.474 258.915C621.217 263.957 624.092 265.313 630.489 262.167L630.127 243.361C630.059 238.684 629.964 235.362 629.481 230.715L629.606 230.681C631.309 235.048 632.848 237.951 634.931 242.091C634.931 242.091 638.849 249.624 640.883 253.587C642.92 257.547 646.165 259.518 652.396 256.304L652.316 214.421L643.929 216.666L644.909 234.521C645.273 239.697 645.437 243.774 645.975 248.455L645.857 248.486C644.057 244.192 642.298 240.705 640.045 236.17L631.741 219.929L623.003 222.268L623.55 240.121C623.797 245.524 623.854 249.925 624.352 254.453L624.232 254.485C622.454 250.571 620.16 245.635 617.854 240.957C617.854 240.957 612.292 229.573 610.36 225.652L601.529 228.017L601.527 228.014ZM681.472 206.613L691.939 245.716L699.923 243.578L697.701 235.275L689.456 204.474L681.471 206.611L681.472 206.613ZM793.924 176.511L801.646 205.358C802.71 209.335 804.209 211.92 806.275 213.191C808.08 214.303 810.655 214.647 813.432 213.904C815.792 213.272 817.996 212.205 818.982 211.507L817.218 205.329C816.456 205.746 815.562 206.157 814.281 206.5C811.561 207.228 810.185 205.739 809.229 202.168L806.275 191.132L813.228 189.27L811.226 181.789L804.272 183.65L801.797 174.404L793.923 176.511L793.924 176.511ZM666.055 220.454C661.093 221.783 657.525 224.223 655.708 226.031L658.712 230.962C660.347 229.204 663.203 227.346 666.165 226.553C671.067 225.228 672.61 227.784 673.086 229.561L673.198 229.981C662.507 232.826 656.74 238.311 658.747 245.809C659.973 250.386 664.558 253.756 670.533 252.156C674.212 251.172 676.898 248.889 678.116 246.058L678.296 246.009C678.296 246.009 680.877 250.759 687.083 247.017C686.164 244.999 685.446 242.777 684.72 240.063L681.924 229.617C680.142 222.959 675.716 217.869 666.055 220.455L666.055 220.454ZM713.816 207.669C708.82 209.007 707.249 212.126 706.46 214.627L706.341 214.658L705.273 210.667L697.653 212.707L705.517 242.083L713.544 239.934L708.932 222.706C708.716 221.899 708.58 221.02 708.664 220.201C708.865 218.288 709.945 215.825 712.535 215.131C715.774 214.264 718.019 216.582 719.071 220.512L723.553 237.255L731.571 235.108L726.903 217.672C726.697 216.901 726.555 215.944 726.6 215.201C726.731 213.052 728.051 210.978 730.459 210.333C733.743 209.454 736.035 211.708 737.273 216.333L741.581 232.429L749.605 230.281L744.974 212.979C742.531 203.854 736.905 201.489 731.646 202.897C729.317 203.52 727.634 204.593 726.244 206.053C725.075 207.279 724.149 208.825 723.483 210.713L723.364 210.744C721.245 207.919 717.702 206.629 713.815 207.67L713.816 207.669ZM757.894 195.87C752.933 197.198 749.366 199.638 747.547 201.447L750.553 206.377C752.186 204.619 755.044 202.761 758.005 201.969C762.903 200.644 764.449 203.2 764.924 204.977L765.037 205.397C754.347 208.242 748.579 213.727 750.586 221.224C751.812 225.802 756.398 229.171 762.377 227.571C766.053 226.587 768.74 224.304 769.954 221.473L770.136 221.425C770.136 221.425 772.716 226.175 778.924 222.433C778.004 220.414 777.287 218.192 776.561 215.478L773.765 205.032C771.982 198.374 767.556 193.284 757.894 195.87L757.894 195.87ZM791.227 186.947C788.154 187.77 785.185 190.679 784.849 195.302L784.625 195.362L783.142 189.822L775.916 191.756L783.78 221.132L792.017 218.927L787.991 203.885C787.773 203.073 787.634 202.353 787.589 201.669C787.355 198.355 789.239 195.692 792.717 194.761C793.672 194.505 794.383 194.425 795.15 194.333L793.092 186.643C792.439 186.684 791.999 186.74 791.228 186.947L791.227 186.947ZM674.85 235.118L675.831 238.783C675.976 239.325 676.078 239.897 676.058 240.426C675.985 242.627 674.325 244.914 671.675 245.624C669.465 246.215 667.376 245.438 666.67 242.8C665.59 238.764 669.758 236.453 674.85 235.118L674.85 235.118ZM766.689 210.533L767.67 214.198C767.815 214.74 767.916 215.313 767.897 215.842C767.824 218.043 766.165 220.33 763.515 221.039C761.305 221.631 759.215 220.854 758.509 218.215C757.429 214.18 761.597 211.868 766.689 210.533L766.689 210.533Z" fill="#150D40"/>
<path d="M848.135 146.844C845.557 147.534 843.892 149.514 844.358 151.257L850.643 168.467C851.1 169.483 852.627 169.952 854.209 169.529C855.793 169.102 856.878 167.935 856.77 166.827L853.624 148.777C853.157 147.034 850.72 146.153 848.138 146.844L848.135 146.844ZM826.41 167.814C825.08 168.204 823.83 169.619 823.309 171.545C822.61 174.111 823.504 176.531 825.25 176.997L843.382 180.15C844.489 180.253 845.667 179.175 846.096 177.603C846.096 177.603 846.096 177.603 846.096 177.603C846.527 176.024 846.054 174.505 845.033 174.048L827.743 167.785C827.306 167.668 826.854 167.684 826.411 167.814L826.41 167.814ZM877.431 154.156C876.982 154.265 876.583 154.477 876.264 154.796L864.413 168.86C863.762 169.764 864.111 171.317 865.269 172.47L865.27 172.471C866.429 173.617 867.984 173.963 868.892 173.321L883.031 161.529C884.318 160.252 883.871 157.713 881.992 155.836C880.575 154.429 878.782 153.829 877.436 154.155L877.431 154.156ZM845.994 187.497C845.785 187.55 845.591 187.636 845.421 187.758L831.286 199.539C830.007 200.818 830.443 203.362 832.331 205.238C834.213 207.109 836.768 207.554 838.049 206.28L849.901 192.224C850.555 191.31 850.206 189.758 849.044 188.607L849.052 188.609C848.11 187.67 846.902 187.267 845.994 187.497L845.994 187.497ZM870.306 180.989C869.406 181.243 868.563 182.195 868.214 183.479L868.219 183.475C867.792 185.051 868.264 186.57 869.282 187.036L886.573 193.291C888.316 193.755 890.309 192.093 891.011 189.53C891.7 186.964 890.818 184.54 889.065 184.073L870.933 180.929C870.724 180.909 870.514 180.931 870.306 180.989L870.306 180.989ZM860.1 191.551C858.522 191.975 857.435 193.141 857.546 194.246L860.699 212.293C861.167 214.039 863.598 214.919 866.176 214.229C868.758 213.538 870.428 211.56 869.961 209.814L863.673 192.606C863.213 191.594 861.691 191.127 860.106 191.549L860.1 191.551L860.1 191.551Z" fill="#150D40"/>
</g>
<rect x="471.58" y="123.352" width="485" height="307.143" rx="22.5" transform="rotate(-14.9861 471.58 123.352)" stroke="#7234F5" stroke-opacity="0.1" stroke-width="5"/>
<rect x="997.939" y="18" width="480" height="302.143" rx="20" transform="rotate(8.74537 997.939 18)" fill="#F5F0FE"/>
<g clip-path="url(#clip1_213_2305)">
<path d="M1129.85 159.704L1121.15 176.931L1101.86 173.964L1115.71 187.576L1107.05 204.903L1124.26 196.068L1138.08 209.676L1134.97 190.539L1152.17 181.703L1132.98 178.751L1129.85 159.704Z" fill="#150D40"/>
<path d="M1206.54 188.423C1205.54 187.066 1204.4 186.011 1202.87 185.266C1201.44 184.445 1199.69 183.92 1197.76 183.624C1195.81 183.324 1193.99 183.392 1192.09 183.885C1190.2 184.382 1188.58 185.244 1187.22 186.239L1187.12 186.316C1186.43 186.903 1185.8 187.502 1185.28 188.185C1184.83 188.811 1184.4 189.347 1184.17 189.82C1184.06 189.456 1183.88 188.827 1183.63 188.186C1183.21 186.988 1182.82 186.071 1182.46 185.669C1181.49 184.131 1180.28 182.994 1178.62 181.976C1176.97 180.935 1175.17 180.31 1173.04 179.983C1171.68 179.773 1169.7 179.632 1167.44 180.325C1164.81 181.125 1162.49 182.665 1160.64 185.159L1161.57 179.099L1159.63 178.799L1154.42 212.63L1156.37 212.93L1159.33 193.685C1159.67 191.491 1160.2 189.675 1160.98 188.06C1161.74 186.44 1162.71 185.292 1163.92 184.183C1164.94 183.136 1166.35 182.404 1167.9 182.039C1169.43 181.58 1171.02 181.478 1172.59 181.813C1174.53 182.203 1176.15 182.8 1177.59 183.715C1178.91 184.614 1179.96 185.816 1180.77 187.145C1181.43 188.45 1181.86 189.558 1182.02 190.787C1182.3 192.288 1182.22 194.012 1181.86 196.387L1178.79 216.31L1180.74 216.61L1183.67 197.546C1184.04 195.194 1184.43 193.263 1185.08 191.72C1185.74 190.271 1186.51 189.186 1187.93 187.829C1189.16 186.629 1190.57 185.897 1192.44 185.491C1193.95 185.213 1195.61 185.121 1197.13 185.355C1198.83 185.616 1200.21 186.085 1201.49 186.814C1202.77 187.543 1203.66 188.443 1204.47 189.517C1205.46 190.874 1206.1 192.454 1206.32 194.385C1206.62 196.33 1206.54 198.471 1206.14 201.094L1203.22 220.068L1205.17 220.368L1208.44 201.356C1208.87 198.575 1208.91 196.08 1208.54 193.94C1208.26 191.814 1207.68 189.895 1206.54 188.423Z" fill="#150D40"/>
<path d="M1244.03 200.58C1243.38 198.072 1241.79 195.397 1239.51 193.311C1236.86 190.819 1233.48 189.28 1229.76 188.708C1223.01 187.669 1218.39 190.062 1215.61 192.319C1212.24 195.087 1209.89 199.217 1209.2 203.694C1208.51 208.172 1209.53 212.82 1211.89 216.471C1213.79 219.356 1217.53 223.125 1224.31 224.167C1227.77 224.701 1231.03 224.345 1234.06 223.168C1236.95 221.877 1239.4 220.007 1241.46 217.315L1240.15 225.84L1242.1 226.14L1247.29 192.377L1245.34 192.077L1244.03 200.58ZM1242.65 202.358C1242.84 203.337 1243.04 204.317 1243.06 205.268C1243.15 206.324 1243.07 207.424 1242.93 208.351C1242.85 209.473 1242.61 210.454 1242.31 211.357C1241.98 212.441 1241.56 213.326 1241.09 214.11C1239.5 217.06 1237.16 219.455 1234.26 220.837C1231.44 222.301 1228.07 222.733 1224.79 222.228C1219.89 221.475 1216.11 219.087 1213.63 215.419C1211.54 212.157 1210.54 207.951 1211.17 203.813C1211.86 199.335 1214.17 195.639 1217.48 193.116C1220.89 190.701 1225.12 189.637 1229.51 190.314C1232.73 190.809 1235.72 192.217 1238.01 194.213C1240.34 196.562 1241.98 199.315 1242.65 202.358Z" fill="#150D40"/>
<path d="M1253.97 198.567C1255.98 197.233 1257.93 196.491 1259.81 196.017C1261.69 195.61 1263.7 195.48 1266.08 195.847L1266.24 195.871C1269.12 196.314 1271.93 197.604 1274.18 199.431C1276.77 201.728 1278.58 204.599 1279.27 207.991L1279.33 208.164L1281.53 208.502L1281.43 208.138C1280.65 204.13 1278.59 200.619 1275.53 198.087C1273 195.962 1269.75 194.606 1266.44 194.097C1261.55 193.344 1256.77 194.508 1252.96 197.3C1249.14 200.093 1246.58 204.353 1245.83 209.237C1245.13 213.783 1246.23 218.442 1248.61 222.096C1251.36 226.223 1255.71 228.883 1261.28 229.74C1264.91 230.298 1268.64 229.737 1271.83 228.167C1275.01 226.597 1277.64 224.131 1279.43 220.957L1279.64 220.642L1277.44 220.304L1277.33 220.448C1276.11 222.762 1273.96 224.861 1271.34 226.172C1268.32 227.86 1264.7 228.344 1261.14 227.797C1259.03 227.473 1257.06 226.729 1255.23 225.683C1253.41 224.547 1251.97 223.191 1250.66 221.601C1249.37 219.852 1248.52 217.985 1247.99 215.843C1247.46 213.77 1247.36 211.51 1247.7 209.316C1248.04 207.123 1248.89 204.915 1249.97 203.021C1250.96 201.23 1252.4 199.715 1253.97 198.567ZM1276.81 201.919C1278.11 203.578 1279.09 205.65 1279.6 207.972C1279.08 205.718 1278.09 203.759 1276.81 201.919Z" fill="#150D40"/>
<path d="M1310.57 201.926L1308.37 201.588L1308.26 201.732C1308.23 201.891 1303.74 209.07 1299.26 216.322L1290.41 230.586L1286.59 214.373C1284.18 203.632 1282.73 197.875 1282.74 197.807L1282.67 197.635L1280.47 197.297L1288.82 233.05L1280.63 245.772L1282.82 246.11L1282.94 245.965C1282.94 245.965 1283.16 245.56 1283.54 244.924C1284.92 242.729 1288.71 236.644 1293.06 229.812C1294.19 227.997 1295.36 226.116 1296.61 224.224L1307.38 207.13C1309.22 204.219 1310.37 202.312 1310.38 202.244L1310.57 201.926Z" fill="#150D40"/>
<path d="M1323.11 221.727C1321.46 220.085 1319.28 219.054 1317.07 218.204L1316.83 218.076C1314.32 216.902 1312.76 215.898 1311.78 214.891C1310.68 213.587 1310.2 212.148 1310.42 210.099C1310.57 209.172 1310.8 208.259 1311.26 207.542C1311.64 206.744 1312.26 206.145 1312.96 205.558C1313.75 204.893 1314.67 204.525 1315.57 204.224C1316.66 203.951 1317.7 203.95 1318.79 204.117L1318.95 204.142C1319.97 204.299 1320.87 204.6 1321.57 205.054C1322.36 205.522 1323.05 206.138 1323.55 206.817C1324.05 207.496 1324.45 208.345 1324.64 209.23C1324.85 210.119 1324.87 211.071 1324.71 212.088L1324.67 212.337L1326.62 212.637L1326.65 212.433C1327.03 209.991 1326.44 207.655 1325.17 205.815C1323.8 203.962 1321.72 202.878 1319.02 202.463C1316.67 202.1 1314.26 202.517 1312.35 203.59C1310.16 204.896 1308.88 207.037 1308.45 209.818C1308.14 212.456 1308.77 214.521 1310.22 216.226C1311.77 217.923 1314.03 219.058 1316.3 220.008C1319.07 221.129 1320.95 222.367 1322.04 223.738C1323.19 225.304 1323.53 227 1323.27 229.276L1323.23 229.524C1323.06 230.632 1322.74 231.694 1322.18 232.464C1321.61 233.325 1320.98 234.085 1320.1 234.645C1319.31 235.309 1318.29 235.754 1317.29 236.018C1316.21 236.291 1315.1 236.282 1313.99 236.111C1311.54 235.735 1309.46 234.628 1308.16 232.969C1306.87 231.221 1306.42 229.067 1306.72 226.614L1306.76 226.365L1304.8 226.156L1304.73 226.586C1304.72 226.676 1304.71 226.744 1304.7 226.834C1304.51 228.01 1304.59 229.157 1304.86 230.309C1305.12 231.483 1305.55 232.569 1306.27 233.466C1307.14 234.641 1308.19 235.659 1309.47 236.366C1310.75 237.072 1312.13 237.631 1313.74 237.879C1315.16 238.098 1316.58 237.968 1317.92 237.666C1319.28 237.273 1320.49 236.672 1321.58 235.891C1322.56 235.093 1323.5 234.103 1324.12 232.993C1324.8 231.894 1325.17 230.656 1325.29 229.285C1325.65 226.008 1324.89 223.575 1323.11 221.727Z" fill="#150D40"/>
<path d="M1309.85 199.223L1312.38 197.969L1314.42 199.927L1313.91 197.093L1316.53 195.759L1313.74 195.33L1313.21 192.564L1311.97 195.059L1309.18 194.63L1311.12 196.664L1309.85 199.223Z" fill="#150D40"/>
</g>
<rect x="995.848" y="15.149" width="485" height="307.143" rx="22.5" transform="rotate(8.74537 995.848 15.149)" stroke="#7234F5" stroke-opacity="0.1" stroke-width="5"/>
<defs>
<clipPath id="clip0_213_2305">
<rect width="293.571" height="72.8571" fill="white" transform="translate(595.643 212.519) rotate(-14.9861)"/>
</clipPath>
<clipPath id="clip1_213_2305">
<rect width="229.286" height="62.1429" fill="white" transform="translate(1104.65 155.828) rotate(8.74537)"/>
</clipPath>
</defs>
</svg>
