<svg width="1728" height="793" viewBox="0 0 1728 793" fill="none" xmlns="http://www.w3.org/2000/svg">
<circle cx="1454" cy="822" r="782" fill="white" fill-opacity="0.02"/>
<circle cx="1454" cy="822" r="781.5" stroke="url(#paint0_linear_1114_2867)" stroke-opacity="0.2"/>
<circle cx="1562" cy="937" r="782" fill="white" fill-opacity="0.02"/>
<circle cx="1562" cy="937" r="781.5" stroke="url(#paint1_linear_1114_2867)" stroke-opacity="0.2"/>
<path d="M899.988 -214V-52.7483C900.998 114.255 838.46 275.908 724.038 402.063L709.339 414.881C561.037 563.354 374.989 672.482 169.385 731.595H165.062L92.0015 750.2L-201.968 823.798L-569 916V179.206C-568.982 171.96 -566.476 164.919 -561.868 159.168C-557.26 153.416 -550.805 149.271 -543.494 147.369L-245.199 72.9449C-240.099 71.5995 -234.743 71.4058 -229.551 72.3789C-224.359 73.3521 -219.475 75.4659 -215.283 78.5529C-211.091 81.6399 -207.706 85.6159 -205.396 90.1677C-203.085 94.7195 -201.912 99.7223 -201.968 104.782V398.342H-182.083C-80.0437 398.357 21.6036 386.274 120.534 362.37L139.123 357.822L163.765 351.62C295.258 314.794 419.333 257.068 530.795 180.859C682.151 77.6755 807.174 -56.8801 896.529 -212.759L899.988 -214Z" fill="white" fill-opacity="0.02"/>
<path d="M899.488 -213.289V-52.7483V-52.7452C900.497 114.121 838.014 275.645 723.687 401.706L709.011 414.504L708.998 414.515L708.986 414.527C560.76 562.923 374.812 672 169.315 731.095H165.062H164.999L164.939 731.11L91.8801 749.715L91.8781 749.716L-202.09 823.313L-568.5 915.359V179.206C-568.482 172.076 -566.016 165.145 -561.478 159.48C-556.939 153.816 -550.579 149.73 -543.372 147.854C-543.37 147.853 -543.369 147.853 -543.368 147.853L-245.078 73.43L-245.072 73.4283C-240.044 72.1019 -234.762 71.9109 -229.643 72.8704C-224.524 73.8298 -219.71 75.9138 -215.579 78.9555C-211.449 81.9971 -208.116 85.9133 -205.842 90.394C-203.567 94.8747 -202.413 99.798 -202.468 104.776V104.782V398.342V398.842H-201.968H-182.083C-80.0043 398.857 21.6825 386.77 120.652 362.856L120.653 362.856L139.242 358.308L139.245 358.307L163.887 352.106L163.9 352.102C295.445 315.261 419.57 257.512 531.078 181.272C682.442 78.0822 807.484 -56.4726 896.871 -212.351L899.488 -213.289Z" stroke="url(#paint2_linear_1114_2867)" stroke-opacity="0.2"/>
<path d="M712.991 -564V-442.419C713.753 -316.502 666.583 -194.618 580.28 -99.4992L569.193 -89.8352C457.335 22.1111 317.008 104.391 161.93 148.962H158.67L103.563 162.99L-118.165 218.481L-395 288V-267.53C-394.986 -272.993 -393.096 -278.301 -389.621 -282.638C-386.145 -286.975 -381.276 -290.1 -375.762 -291.534L-150.772 -347.649C-146.925 -348.663 -142.885 -348.809 -138.969 -348.075C-135.053 -347.342 -131.369 -345.748 -128.207 -343.42C-125.046 -341.093 -122.493 -338.095 -120.75 -334.663C-119.007 -331.231 -118.122 -327.459 -118.165 -323.644V-102.305H-103.166C-26.2025 -102.293 50.4655 -111.404 125.084 -129.427L139.105 -132.856L157.691 -137.532C256.87 -165.299 350.455 -208.823 434.526 -266.283C548.686 -344.082 642.985 -445.534 710.382 -563.064L712.991 -564Z" fill="white" fill-opacity="0.02"/>
<path d="M712.491 -563.289V-442.419V-442.416C713.252 -316.636 666.138 -194.882 579.929 -99.8568L568.865 -90.2121L568.852 -90.2008L568.84 -90.1886C457.059 21.6802 316.831 103.91 161.86 148.462H158.67H158.607L158.546 148.477L103.442 162.505L103.44 162.505L-118.286 217.996L-118.165 218.481L-118.286 217.997L-394.5 287.359V-267.529C-394.486 -272.877 -392.636 -278.076 -389.23 -282.325C-385.825 -286.575 -381.051 -289.641 -375.64 -291.05C-375.638 -291.05 -375.637 -291.05 -375.636 -291.051L-150.651 -347.163L-150.644 -347.165C-146.869 -348.161 -142.904 -348.304 -139.061 -347.584C-135.218 -346.864 -131.604 -345.3 -128.504 -343.018C-125.404 -340.735 -122.902 -337.797 -121.196 -334.437C-119.489 -331.076 -118.623 -327.383 -118.665 -323.65V-323.644V-102.305V-101.805H-118.165H-103.166C-26.1631 -101.793 50.5443 -110.908 125.202 -128.941L125.203 -128.941L139.224 -132.37L139.227 -132.371L157.813 -137.047L157.826 -137.051C257.057 -164.832 350.691 -208.379 434.807 -265.87C548.977 -343.675 643.295 -445.127 710.724 -562.656L712.491 -563.289Z" stroke="url(#paint3_linear_1114_2867)" stroke-opacity="0.2"/>
<defs>
<linearGradient id="paint0_linear_1114_2867" x1="653.5" y1="134" x2="1929.6" y2="242.548" gradientUnits="userSpaceOnUse">
<stop stop-color="white"/>
<stop offset="1" stop-color="white" stop-opacity="0"/>
</linearGradient>
<linearGradient id="paint1_linear_1114_2867" x1="1877" y1="169" x2="1124.17" y2="895.485" gradientUnits="userSpaceOnUse">
<stop stop-color="white"/>
<stop offset="1" stop-color="white" stop-opacity="0"/>
</linearGradient>
<linearGradient id="paint2_linear_1114_2867" x1="728.97" y1="377.526" x2="587.698" y2="153.429" gradientUnits="userSpaceOnUse">
<stop stop-color="white"/>
<stop offset="1" stop-color="white" stop-opacity="0"/>
</linearGradient>
<linearGradient id="paint3_linear_1114_2867" x1="584" y1="-118" x2="477.5" y2="-287" gradientUnits="userSpaceOnUse">
<stop stop-color="white"/>
<stop offset="1" stop-color="white" stop-opacity="0"/>
</linearGradient>
</defs>
</svg>
