<svg width="1200" height="381" viewBox="0 0 1200 381" fill="none" xmlns="http://www.w3.org/2000/svg">
<rect x="715" y="5" width="480" height="301.345" rx="20" fill="#F5F0FE"/>
<path fill-rule="evenodd" clip-rule="evenodd" d="M834.982 106.599C833.317 109.302 832.092 112.166 831.257 115.311C830.891 116.693 830.713 117.569 830.178 120.637C829.73 123.208 829.821 131.51 830.344 135.76C830.624 138.039 831.011 140.764 831.166 141.546C831.252 141.98 831.433 142.986 831.568 143.782C831.704 144.577 831.877 145.494 831.953 145.82C832.03 146.145 832.178 146.856 832.284 147.398C832.389 147.94 832.612 148.946 832.78 149.634C834.478 156.59 834.469 156.548 834.836 159.102C835.177 161.473 835.229 167.977 834.925 170.411C834.658 172.556 834.621 172.805 834.408 173.896C834.308 174.402 834.159 175.172 834.075 175.606C833.992 176.04 833.772 176.957 833.588 177.644C833.403 178.331 833.21 179.071 833.16 179.288C832.653 181.457 829.922 188.236 828.499 190.86C826.372 194.783 825.166 196.748 823.137 199.605C821.915 201.326 819.032 204.955 818.619 205.292C818.508 205.383 818.332 205.576 818.229 205.72C817.914 206.163 818.012 205.695 818.345 205.165C818.517 204.892 818.992 204.047 819.401 203.287C819.811 202.528 820.217 201.804 820.304 201.678C820.392 201.553 820.463 201.384 820.463 201.304C820.463 201.223 820.569 200.971 820.699 200.743C820.829 200.515 821.188 199.707 821.496 198.948C822.676 196.039 823.446 193.412 823.943 190.597C824.084 189.802 824.269 188.766 824.356 188.296C824.856 185.581 824.94 177.365 824.513 172.976C824.293 170.715 823.77 166.949 823.389 164.888C823.302 164.418 823.154 163.59 823.059 163.047C822.964 162.505 822.819 161.794 822.738 161.469C822.656 161.144 822.47 160.345 822.325 159.694C822.18 159.043 821.947 158.066 821.809 157.524C821.296 155.519 820.682 152.723 820.308 150.686C820.222 150.216 820.07 149.417 819.97 148.91C819.703 147.561 819.58 139.507 819.796 137.601C820.217 133.901 821.03 130.326 822.174 127.146C822.5 126.242 822.805 125.384 822.852 125.24C823.001 124.786 825.028 120.381 825.151 120.242C825.216 120.17 825.404 119.815 825.568 119.453C825.955 118.603 828.58 114.345 829.487 113.097C829.872 112.567 830.187 112.113 830.187 112.089C830.187 111.826 835.411 105.448 835.626 105.448C835.662 105.448 835.372 105.966 834.982 106.599Z" fill="#150D40"/>
<path fill-rule="evenodd" clip-rule="evenodd" d="M1005.27 138.536C999.263 139.341 993.676 144.516 992.275 150.571C991.752 152.828 991.844 157.196 992.455 159.209C993.269 161.889 994.958 164.55 997.105 166.532C1003.32 172.276 1012.34 172.124 1018.51 166.172C1025.01 159.892 1025.02 149.079 1018.51 142.862C1014.82 139.327 1010.32 137.859 1005.27 138.536ZM1035.51 153.6L1035.59 169.106H1037.97H1040.35L1040.32 163.608C1040.3 160.584 1040.4 157.967 1040.53 157.793C1040.67 157.618 1041.84 157.435 1043.13 157.385L1045.49 157.294L1046.12 158.331C1046.47 158.9 1048.2 161.558 1049.97 164.236L1053.19 169.106L1055.99 169.196C1057.8 169.255 1058.79 169.17 1058.79 168.955C1058.79 168.772 1056.89 165.871 1054.57 162.508L1050.35 156.394L1051.57 155.79C1054.09 154.537 1055.55 151.963 1055.8 148.346C1056.11 143.716 1054.22 140.625 1050.14 139.081C1048.45 138.441 1047.54 138.348 1041.83 138.229L1035.42 138.094L1035.51 153.6ZM862.168 138.768C858.138 139.955 855.391 143.876 855.768 147.904C856.117 151.63 858.18 154 863.421 156.696C867.527 158.808 868.984 160.214 868.984 162.068C868.984 165.939 864.56 167.493 859.649 165.347C858.53 164.859 857.558 164.514 857.489 164.583C857.04 165.028 855.713 168.475 855.917 168.667C856.74 169.442 859.999 170.295 862.691 170.44C867.496 170.7 870.552 169.33 872.381 166.097C873.219 164.615 873.346 164.065 873.354 161.88C873.362 159.886 873.211 159.066 872.625 157.915C871.73 156.155 869.66 154.1 867.686 153.01C863.399 150.644 861.469 149.342 861.03 148.518C860.454 147.44 860.406 145.716 860.922 144.62C861.346 143.72 863.563 142.558 864.857 142.558C866.011 142.558 868.612 143.432 869.715 144.189C870.404 144.662 870.645 144.707 870.766 144.387C870.853 144.159 871.205 143.171 871.549 142.192L872.175 140.411L870.498 139.774C867.153 138.501 864.259 138.152 862.168 138.768ZM887.153 154.497V169.891H896.562H905.971V167.849V165.807H898.995H892.02V160.631V155.456L896.93 155.369L901.841 155.282L901.819 153.633C901.807 152.726 901.787 151.842 901.775 151.669C901.761 151.475 899.9 151.355 896.887 151.355H892.02V147.26V143.164L898.914 143.201L905.809 143.237L905.905 141.17L906.001 139.103H896.577H887.153V154.497ZM921.545 154.497V169.891H923.978H926.412V164.123V158.354L930.062 158.18C932.069 158.084 934.472 157.778 935.401 157.5C937.699 156.812 939.674 155.276 940.67 153.403C941.412 152.006 941.499 151.479 941.499 148.354C941.499 145.017 941.456 144.798 940.513 143.319C939.363 141.514 936.922 139.944 934.473 139.436C933.591 139.252 930.321 139.103 927.207 139.103H921.545V154.497ZM954.314 154.497V169.891H956.585H958.857V162.665V155.439H966.481H974.106V162.665V169.891H976.539H978.973V154.497V139.103H976.539H974.106V145.229V151.355H966.481H958.857V145.229V139.103H956.585H954.314V154.497ZM1078.04 142.166C1077.48 143.851 1075.24 150.593 1073.06 157.15C1070.88 163.707 1069.03 169.255 1068.94 169.481C1068.81 169.797 1069.37 169.891 1071.36 169.891H1073.95L1075.01 166.271L1076.08 162.651L1081.76 162.737L1087.44 162.822L1088.45 166.278L1089.47 169.734L1091.97 169.826C1093.35 169.876 1094.48 169.795 1094.48 169.646C1094.48 169.497 1094.27 168.749 1094.01 167.983C1093.75 167.218 1092.21 162.563 1090.58 157.638C1088.95 152.714 1086.89 146.529 1085.99 143.894L1084.37 139.103H1081.72H1079.07L1078.04 142.166ZM1048.56 143.193C1050.61 144.179 1051.47 145.547 1051.44 147.738C1051.38 151.637 1049.01 153.26 1043.21 153.353L1040.46 153.397L1040.37 147.785L1040.28 142.172L1043.61 142.293C1046.35 142.392 1047.23 142.553 1048.56 143.193ZM1011.32 143.551C1013.82 144.451 1016.57 147.125 1017.63 149.681C1018.25 151.18 1018.39 152.084 1018.39 154.661C1018.39 157.57 1018.31 157.965 1017.35 159.859C1013.76 166.913 1005.6 168.435 1000.14 163.069C996.11 159.112 995.506 152.236 998.781 147.615C1001.75 143.432 1006.62 141.852 1011.32 143.551ZM934.374 143.93C936.618 144.942 937.268 145.972 937.275 148.528C937.286 152.355 935.237 153.875 929.737 154.118L926.412 154.265V148.726V143.187L929.575 143.19C932.209 143.192 933.012 143.316 934.374 143.93ZM1083.94 151.539C1085.09 155.305 1085.98 158.435 1085.92 158.493C1085.86 158.552 1083.92 158.56 1081.62 158.512L1077.43 158.424L1079.53 151.451C1080.69 147.616 1081.69 144.526 1081.75 144.585C1081.81 144.643 1082.8 147.773 1083.94 151.539Z" fill="#150D40"/>
<rect x="712.5" y="2.5" width="485" height="306.345" rx="22.5" stroke="#7234F5" stroke-opacity="0.1" stroke-width="5"/>
<rect x="286.131" y="8" width="480" height="301.651" rx="20" transform="rotate(8.60439 286.131 8)" fill="#F5F0FE"/>
<path fill-rule="evenodd" clip-rule="evenodd" d="M433.331 131.012C421.831 133.181 413.292 141.876 411.585 153.153C410.14 162.706 410.002 162.55 421.38 164.272L431.317 165.776L432.6 157.293L426.253 156.333C419.98 155.384 419.911 155.337 420.363 152.35C421.344 145.867 433.113 137.938 440.244 138.957C451.912 140.624 460.44 155.493 455.312 165.227C454.395 166.968 453.619 168.56 453.588 168.765C453.557 168.97 455.619 169.453 458.171 169.839L462.812 170.541L464.199 166.035C466.995 156.957 464.345 145.766 457.793 138.981C451.146 132.097 442.502 129.282 433.331 131.012ZM544.912 176.659C544.378 177.958 542.487 189.539 540.709 202.393L537.479 225.766L544.292 227.479L551.527 175.831L548.706 175.064C546.481 174.46 545.677 174.798 544.912 176.659ZM558.024 176.995C557.577 177.324 555.491 188.966 553.388 202.866L549.564 228.136L555.911 229.097L563.773 177.141L561.305 176.768C559.947 176.562 558.47 176.664 558.024 176.995ZM410.835 169.116C410.486 169.528 411.955 183.988 414.102 201.25C418.364 235.517 418.696 236.534 425.974 237.635C431.245 238.432 434.011 236.4 437.171 229.405C459.893 179.118 460.836 176.85 459.194 176.411C458.765 176.297 457.377 175.925 456.11 175.586C454.842 175.246 453.337 175.181 452.766 175.442C452.194 175.701 446.408 188.014 439.907 202.802C433.407 217.589 427.818 229.889 427.486 230.134C426.029 231.211 425.253 226.69 422.347 200.21C420.649 184.742 418.918 171.574 418.499 170.948C417.538 169.513 411.684 168.114 410.835 169.116ZM468.222 177.53C467.054 177.655 466.144 178.749 465.907 180.315C465.521 182.864 465.606 182.901 472.885 183.319C479.488 183.698 480.452 184.012 482.166 186.343C483.218 187.773 483.876 190.254 483.629 191.858C483.191 194.686 482.985 194.752 476.731 194.076C465.298 192.841 460.762 195.909 460.253 205.221C459.784 213.8 465.798 218.324 475.335 216.565C477.917 216.089 479.966 216.12 479.888 216.636C479.81 217.151 481.174 217.788 482.92 218.052L486.093 218.532L488.332 203.738C490.785 187.528 490.467 184.151 486.198 181.048C483.66 179.205 472.681 177.056 468.222 177.53ZM496.699 181.815C496.252 182.145 494.631 190.716 493.096 200.861L490.304 219.307L497.281 219.683L499.7 204.976C501.425 194.484 502.534 190.092 503.572 189.648C506.933 188.209 512.441 188.782 514.695 190.804C516.887 192.771 516.901 193.38 515.06 207.465L513.149 222.084L519.924 223.789L521.893 210.732C524.161 195.701 523.849 190.529 520.453 186.904C517.697 183.964 510.647 182.437 505.983 183.769C503.756 184.405 502.824 184.264 502.019 183.169C500.866 181.601 497.981 180.867 496.699 181.815ZM525.234 224.455L531.629 225.423L536.747 187.694L531.031 186.143L525.234 224.455ZM569.775 192.897C568.607 193.021 567.697 194.116 567.46 195.682C567.074 198.231 567.159 198.268 574.438 198.686C581.041 199.064 582.005 199.378 583.719 201.709C584.771 203.14 585.462 205.43 585.255 206.798C584.908 209.092 584.235 209.281 576.676 209.202C565.916 209.089 562.988 210.935 561.835 218.553C560.365 228.265 565.683 233.22 576.056 231.805C579.097 231.389 581.521 231.475 581.442 231.995C581.364 232.513 582.728 233.155 584.473 233.419L587.646 233.899L589.828 219.48C592.336 202.905 591.753 198.557 586.66 195.865C583.639 194.267 573.554 192.494 569.775 192.897ZM481.677 204.811C480.771 210.801 479.047 212.004 472.444 211.258C467.794 210.733 465.824 207.817 466.996 203.195C467.961 199.391 471.639 197.946 477.976 198.882L482.474 199.547L481.677 204.811ZM583.23 220.178C582.33 226.126 580.593 227.369 574.195 226.647C569.409 226.107 567.524 223.863 568.185 219.494C568.885 214.87 572.36 213.148 578.974 214.148L584.027 214.913L583.23 220.178Z" fill="#150D40"/>
<path d="M538.814 174.04L537.708 183.298L531.652 182.039L533.097 172.488L538.814 174.04Z" fill="#150D40"/>
<rect x="284.033" y="5.15411" width="485" height="306.651" rx="22.5" transform="rotate(8.60439 284.033 5.15411)" stroke="#7234F5" stroke-opacity="0.1" stroke-width="5"/>
<path d="M229.44 91.4148L204.097 81.1454L202.182 85.727C155.172 84.2612 104.271 122.601 79.4215 182.618C54.5722 242.635 63.635 305.27 98.1716 336.857L96.2751 341.439L121.614 351.708C174.686 373.215 241.83 332.386 271.609 260.505C301.388 188.624 282.508 112.926 229.44 91.4148Z" fill="#CF931D" stroke="#141414"/>
<path d="M246.281 250.249C276.052 178.372 257.164 102.666 204.092 81.156C151.021 59.6462 83.8637 100.478 54.0925 172.355C24.3212 244.233 43.2097 319.939 96.2811 341.449C149.352 362.959 216.51 322.127 246.281 250.249Z" fill="#FBC03D" stroke="#141414"/>
<path d="M127.991 335.68L127.989 335.68C118.65 335.959 109.354 334.303 100.699 330.821C78.5757 321.851 62.4667 301.358 55.3995 273.032C48.0206 243.454 51.3616 209.243 64.8399 176.698C75.7565 150.342 92.1851 127.786 112.341 111.467L112.341 111.466C131.277 96.1155 152.613 87.408 172.367 86.886L172.369 86.886C181.715 86.6056 191.018 88.2605 199.68 91.7446C221.805 100.715 237.91 121.207 244.977 149.534C252.356 179.112 249.015 213.323 235.536 245.869C224.62 272.224 208.191 294.776 188.04 311.123C169.099 326.469 147.763 335.177 127.991 335.68Z" fill="#FBC03D" stroke="#141414"/>
<path d="M67.6247 271.609C60.469 242.78 66.8547 211.325 79.9117 179.639C92.9687 147.953 109.757 124.681 135.203 109.129C158.087 95.1474 179.097 87.2639 199.711 94.1313C198.466 93.5302 197.203 92.9606 195.917 92.4402C174.423 83.6843 150.33 90.1884 125.989 105.058C100.547 120.605 80.6774 146.622 67.6204 178.308C54.5634 209.994 51.2563 242.789 58.4165 271.609C65.2608 299.186 78.4398 319.665 99.9337 328.416C101.221 328.942 103.174 329.422 104.486 329.856C84.9453 320.378 74.081 297.535 67.6247 271.609Z" fill="#CF931D"/>
<path d="M193.574 240.335C191.831 232.112 187.484 225.996 180.592 221.981C197.586 221.608 209.547 213.39 216.205 197.317C220.678 186.516 220.914 176.529 216.913 167.357C214.211 161.174 209.797 156.31 203.671 152.764L211.918 132.848L202.879 129.16L185.485 125.215L175.7 121.241L174.931 122.163L168.967 120.495L161.395 138.775L147.957 134.705L92.5314 268.521L105.41 273.937L97.8386 292.222L113.495 299.066L121.16 280.56L130.013 284.28L122.297 302.906L138.554 310.013L146.573 290.655C154.895 292.807 162.63 292.365 169.731 289.272C178.966 285.256 185.947 277.561 190.675 266.189C194.366 257.25 195.332 248.632 193.574 240.335ZM162.96 167.657L180.038 173.188C183.852 174.417 186.401 176.703 187.684 180.046C188.967 183.39 188.58 187.538 186.524 192.491C184.47 197.454 181.754 200.789 178.374 202.498C174.994 204.206 171.422 204.394 167.657 203.06L150.734 197.156L162.96 167.657ZM187.046 146.532L184.87 145.873L187.931 144.398L187.046 146.532ZM157.122 260.496C153.627 262.34 150.116 262.56 146.587 261.155L127.399 253.518L140.273 222.438L159.95 229.734C163.52 231.058 165.832 233.595 166.888 237.344C167.945 241.093 167.458 245.429 165.43 250.351C163.398 255.271 160.629 258.657 157.122 260.51V260.496Z" fill="#CF931D"/>
<path d="M185.206 236.961C183.342 228.665 178.808 222.493 171.693 218.391C189.12 218.192 201.3 210.062 207.959 193.989C212.432 183.19 212.553 173.137 208.364 163.905C205.531 157.67 200.952 152.738 194.628 149.109L202.875 129.192L185.229 124.053L177.513 142.684L168.022 139.78L175.687 121.274L158.698 116.346L151.126 134.627L137.301 130.4L81.8759 264.202L95.1416 269.774L87.5652 288.059L103.697 295.093L111.362 276.587L120.466 280.413L112.75 299.043L129.501 306.353L137.525 286.995C146.08 289.239 154.006 288.875 161.261 285.847C170.685 281.908 177.763 274.252 182.494 262.879C186.194 253.943 187.098 245.304 185.206 236.961ZM153.055 163.646L170.626 169.385C174.559 170.666 177.199 172.988 178.548 176.35C179.896 179.711 179.545 183.883 177.494 188.864C175.435 193.826 172.684 197.148 169.242 198.829C165.801 200.51 162.137 200.663 158.251 199.29L140.828 193.178L153.055 163.646ZM148.055 256.827C146.413 257.717 144.589 258.23 142.719 258.325C140.849 258.421 138.981 258.098 137.255 257.38L117.493 249.508L130.368 218.427L150.628 225.964C152.374 226.568 153.943 227.587 155.199 228.932C156.454 230.276 157.356 231.905 157.827 233.675C158.951 237.464 158.499 241.813 156.471 246.724C154.442 251.634 151.631 255.002 148.037 256.827H148.055Z" fill="#FDD77E" stroke="#141414"/>
</svg>
