<svg width="371" height="412" viewBox="0 0 371 412" fill="none" xmlns="http://www.w3.org/2000/svg">
<path d="M256.308 0.822135L251.105 95.7711" stroke="black" stroke-width="0.5" stroke-miterlimit="10"/>
<path d="M268.315 49.1822L265.066 95.0572" stroke="black" stroke-width="0.5" stroke-miterlimit="10"/>
<path d="M52.5338 25.8093L35.0767 133.237" stroke="black" stroke-width="0.5" stroke-miterlimit="10"/>
<path d="M60.9 52.1873L54.4523 91.8653" stroke="black" stroke-width="0.5" stroke-miterlimit="10"/>
<path d="M320.358 136.055L302.221 128.692L300.851 131.977C267.209 130.926 230.783 158.418 213 201.453C195.217 244.488 201.703 289.401 226.418 312.051L225.061 315.336L243.194 322.7C281.174 338.121 329.224 308.845 350.535 257.302C371.846 205.76 358.335 151.48 320.358 136.055Z" fill="#E7E7E7" stroke="#141414" stroke-width="0.5"/>
<path d="M332.423 249.948C353.729 198.408 340.211 144.123 302.232 128.699C264.253 113.275 216.193 142.554 194.888 194.094C173.582 245.634 187.099 299.919 225.079 315.343C263.058 330.766 311.118 301.488 332.423 249.948Z" fill="#F1F1F1" stroke="#141414" stroke-width="0.5"/>
<path d="M247.76 311.315L247.759 311.315C241.06 311.515 234.393 310.326 228.186 307.823C212.314 301.375 200.767 286.648 195.704 266.311C190.416 245.076 192.811 220.521 202.464 197.166C210.283 178.252 222.05 162.063 236.49 150.349L236.49 150.349C250.055 139.33 265.346 133.074 279.511 132.699L279.511 132.699C286.215 132.498 292.887 133.687 299.1 136.191C314.972 142.639 326.516 157.366 331.58 177.704C336.867 198.939 334.472 223.493 324.819 246.848C317.001 265.762 305.233 281.948 290.797 293.682C277.228 304.698 261.938 310.953 247.76 311.315Z" fill="#F1F1F1" stroke="#141414" stroke-width="0.5"/>
<path d="M204.583 265.263C199.462 244.592 204.032 222.037 213.376 199.316C222.72 176.596 234.734 159.908 252.944 148.757C269.32 138.731 284.356 133.079 299.108 138.003C298.216 137.572 297.312 137.163 296.392 136.79C281.011 130.512 263.769 135.176 246.35 145.838C228.143 156.986 213.924 175.641 204.58 198.362C195.236 221.083 192.869 244.598 197.993 265.263C202.891 285.038 212.322 299.722 227.704 305.997C228.625 306.375 230.023 306.719 230.962 307.03C216.978 300.234 209.203 283.854 204.583 265.263Z" fill="#E7E7E7"/>
<path d="M264.717 244.416L307.005 224.463L299.794 182.465L295.986 160.202L237.649 223.491L237.598 223.555L264.717 244.416Z" fill="#E7E7E7"/>
<path d="M235.96 234.019L235.454 234.349L245.872 295.163L301.889 234.391L261.332 253.526L235.96 234.019Z" fill="#E7E7E7"/>
<path d="M255.92 240.02L298.208 220.067L290.997 178.069L287.189 155.806L228.852 219.095L228.801 219.159L255.92 240.02Z" fill="#8C8C8C"/>
<path d="M227.163 229.623L226.656 229.953L237.075 290.767L293.092 229.995L252.535 249.13L227.163 229.623Z" fill="#8C8C8C"/>
<path d="M255.92 240.02L298.208 220.067L290.997 178.069L287.189 155.806L228.852 219.095L228.801 219.159L255.92 240.02Z" stroke="#141414" stroke-width="0.25"/>
<path d="M227.163 229.623L226.656 229.953L237.075 290.767L293.092 229.995L252.535 249.13L227.163 229.623Z" stroke="#141414" stroke-width="0.25"/>
<path d="M74.0966 203.964L92.233 196.6L93.6034 199.885C127.245 198.834 163.672 226.326 181.454 269.361C199.237 312.396 192.752 357.309 168.036 379.959L169.394 383.244L151.26 390.608C113.28 406.029 65.2301 376.753 43.9193 325.21C22.6084 273.668 36.1198 219.388 74.0966 203.964Z" fill="#48A98E" stroke="#141414" stroke-width="0.5"/>
<path d="M62.031 317.856C40.7258 266.316 54.243 212.031 92.2225 196.607C130.202 181.183 178.262 210.462 199.567 262.002C220.872 313.542 207.355 367.827 169.375 383.251C131.396 398.674 83.3363 369.396 62.031 317.856Z" fill="#50AF95" stroke="#141414" stroke-width="0.5"/>
<path d="M146.695 379.222L146.696 379.222C153.394 379.422 160.061 378.233 166.269 375.73C182.14 369.282 193.687 354.555 198.751 334.218C204.038 312.983 201.643 288.428 191.99 265.073C184.172 246.16 172.405 229.97 157.965 218.256L157.965 218.256C144.4 207.237 129.109 200.982 114.944 200.607L114.943 200.607C108.239 200.405 101.567 201.595 95.3544 204.098C79.4826 210.546 67.9386 225.274 62.8747 245.611C57.5876 266.846 59.9826 291.401 69.6355 314.756C77.454 333.669 89.2211 349.855 103.658 361.589C117.226 372.605 132.517 378.86 146.695 379.222Z" fill="#50AF95" stroke="#141414" stroke-width="0.5"/>
<path d="M189.872 333.171C194.993 312.5 190.423 289.945 181.079 267.224C171.735 244.504 159.721 227.816 141.511 216.665C125.134 206.64 110.099 200.987 95.3468 205.911C96.238 205.48 97.142 205.071 98.0622 204.698C113.444 198.42 130.685 203.084 148.104 213.746C166.311 224.894 180.531 243.549 189.875 266.27C199.219 288.991 201.585 312.506 196.461 333.171C191.563 352.946 182.132 367.63 166.75 373.905C165.829 374.283 164.431 374.627 163.493 374.938C177.477 368.142 185.251 351.762 189.872 333.171Z" fill="#48A98E"/>
<path fill-rule="evenodd" clip-rule="evenodd" d="M121.253 304.374C121.793 304.368 124.564 304.303 130.595 303.828C135.392 303.45 138.737 303.051 139.909 302.905C158.105 300.703 170.593 296.672 168.978 293.149C167.363 289.626 152.179 287.776 133.295 288.479L138.565 299.975C137.389 300.15 134.004 300.61 129.207 300.987C123.45 301.44 120.468 301.449 119.929 301.446L114.66 289.954C96.5063 292.162 84.0491 296.191 85.6606 299.706C87.2722 303.221 102.423 305.077 121.269 304.368L121.253 304.374ZM114.096 288.766L109.38 278.48L83.5644 280.511L76.3726 264.825L146.66 259.293L153.852 274.98L128.04 277.011L132.754 287.294C154.137 286.521 171.652 289.069 173.734 293.61C175.816 298.151 161.774 303.178 141.199 305.712L156.311 338.675L137.656 340.144L122.538 307.168C101.203 307.937 83.7163 305.391 81.6363 300.854C79.5562 296.317 93.5588 291.293 114.099 288.762L114.096 288.766Z" fill="#48A98E"/>
<path fill-rule="evenodd" clip-rule="evenodd" d="M130.05 295.58C130.589 295.575 133.361 295.509 139.392 295.035C144.188 294.657 147.534 294.258 148.705 294.112C166.902 291.91 179.39 287.878 177.775 284.355C176.159 280.832 160.975 278.983 142.091 279.686L147.362 291.182C146.186 291.356 142.8 291.817 138.003 292.194C132.247 292.647 129.264 292.655 128.725 292.652L123.457 281.161C105.303 283.368 92.8457 287.397 94.4573 290.912C96.0688 294.427 111.22 296.284 130.065 295.575L130.05 295.58ZM122.892 279.974L118.175 269.687L92.3596 271.719L85.1678 256.032L155.455 250.501L162.647 266.187L136.835 268.218L141.55 278.501C162.932 277.729 180.447 280.277 182.529 284.817C184.611 289.358 170.569 294.386 149.994 296.919L165.107 329.883L146.451 331.351L131.333 298.376C109.998 299.144 92.5115 296.598 90.4314 292.062C88.3514 287.525 102.354 282.501 122.894 279.969L122.892 279.974Z" fill="white"/>
<path d="M142.091 279.686L141.967 279.696L141.912 279.577L142.045 279.572L142.091 279.686ZM147.362 291.182L147.486 291.172L147.535 291.277L147.423 291.294L147.362 291.182ZM128.725 292.652L128.766 292.766L128.648 292.766L128.601 292.662L128.725 292.652ZM123.457 281.161L123.399 281.048L123.527 281.032L123.582 281.151L123.457 281.161ZM122.892 279.974L123.017 280.047L122.893 280.258L122.767 279.984L122.892 279.974ZM118.175 269.687L118.123 269.573L118.248 269.564L118.3 269.677L118.175 269.687ZM92.3596 271.719L92.4117 271.832L92.2871 271.842L92.235 271.729L92.3596 271.719ZM85.1678 256.032L85.0432 256.042L84.9911 255.929L85.1157 255.919L85.1678 256.032ZM155.455 250.501L155.403 250.387L155.528 250.377L155.58 250.491L155.455 250.501ZM162.647 266.187L162.771 266.177L162.824 266.291L162.699 266.301L162.647 266.187ZM136.835 268.218L136.711 268.228L136.659 268.115L136.783 268.105L136.835 268.218ZM141.55 278.501L141.596 278.615L141.475 278.62L141.425 278.511L141.55 278.501ZM149.994 296.919L149.869 296.929L149.819 296.821L149.936 296.806L149.994 296.919ZM165.107 329.883L165.231 329.873L165.283 329.987L165.159 329.996L165.107 329.883ZM146.451 331.351L146.503 331.465L146.379 331.475L146.326 331.361L146.451 331.351ZM131.333 298.376L131.287 298.262L131.408 298.257L131.457 298.366L131.333 298.376ZM130.007 295.466C130.542 295.461 133.31 295.395 139.339 294.921L139.444 295.148C133.411 295.623 130.636 295.689 130.092 295.694L130.007 295.466ZM139.339 294.921C144.134 294.544 147.477 294.145 148.647 293.999L148.763 294.225C147.591 294.371 144.243 294.77 139.444 295.148L139.339 294.921ZM148.648 293.999C157.742 292.898 165.404 291.341 170.59 289.621C173.183 288.76 175.15 287.861 176.368 286.961C176.976 286.511 177.393 286.064 177.608 285.627C177.823 285.19 177.835 284.769 177.65 284.365L177.899 284.345C178.118 284.822 178.093 285.298 177.863 285.764C177.634 286.23 177.197 286.694 176.578 287.151C175.339 288.067 173.35 288.974 170.749 289.837C165.545 291.564 157.866 293.123 148.763 294.225L148.648 293.999ZM177.65 284.365C177.465 283.961 177.081 283.571 176.494 283.198C175.907 282.823 175.124 282.471 174.16 282.145C172.231 281.493 169.605 280.955 166.43 280.548C160.083 279.735 151.575 279.448 142.138 279.8L142.045 279.572C151.492 279.22 160.017 279.507 166.387 280.323C169.571 280.731 172.224 281.272 174.187 281.936C175.168 282.268 175.984 282.632 176.61 283.031C177.236 283.43 177.681 283.869 177.899 284.345L177.65 284.365ZM142.216 279.676L147.486 291.172L147.237 291.191L141.967 279.696L142.216 279.676ZM147.423 291.294C146.244 291.469 142.856 291.93 138.055 292.308L137.951 292.08C142.745 291.703 146.127 291.243 147.301 291.069L147.423 291.294ZM138.055 292.308C132.296 292.761 129.309 292.769 128.766 292.766L128.685 292.538C129.22 292.541 132.198 292.533 137.951 292.08L138.055 292.308ZM128.601 292.662L123.332 281.171L123.582 281.151L128.85 292.643L128.601 292.662ZM123.514 281.274C114.442 282.377 106.798 283.935 101.625 285.654C99.0377 286.514 97.0751 287.413 95.8609 288.311C95.2537 288.761 94.8384 289.207 94.6235 289.643C94.409 290.079 94.3971 290.499 94.5819 290.903L94.3327 290.922C94.1146 290.446 94.1395 289.972 94.3686 289.506C94.5975 289.041 95.0328 288.578 95.6506 288.121C96.8862 287.206 98.8703 286.301 101.465 285.438C106.657 283.712 114.318 282.152 123.399 281.048L123.514 281.274ZM94.5819 290.903C94.7667 291.306 95.1494 291.695 95.7347 292.068C96.321 292.441 97.1019 292.793 98.0643 293.119C99.9888 293.77 102.609 294.308 105.777 294.715C112.11 295.528 120.601 295.815 130.019 295.461L130.112 295.689C120.684 296.043 112.176 295.757 105.82 294.94C102.643 294.532 99.9957 293.991 98.0372 293.328C97.0581 292.997 96.2437 292.632 95.6194 292.234C94.994 291.836 94.5508 291.398 94.3327 290.922L94.5819 290.903ZM130.146 295.683L130.13 295.688L129.969 295.472L129.985 295.467L130.146 295.683ZM122.767 279.984L118.051 269.697L118.3 269.677L123.016 279.964L122.767 279.984ZM118.228 269.801L92.4117 271.832L92.3075 271.605L118.123 269.573L118.228 269.801ZM92.235 271.729L85.0432 256.042L85.2924 256.023L92.4842 271.709L92.235 271.729ZM85.1157 255.919L155.403 250.387L155.507 250.614L85.2199 256.146L85.1157 255.919ZM155.58 250.491L162.771 266.177L162.522 266.197L155.33 250.51L155.58 250.491ZM162.699 266.301L136.887 268.332L136.783 268.105L162.595 266.073L162.699 266.301ZM136.96 268.209L141.674 278.491L141.425 278.511L136.711 268.228L136.96 268.209ZM141.503 278.387C152.2 278.001 161.935 278.445 169.259 279.555C172.921 280.109 175.988 280.832 178.275 281.704C180.553 282.573 182.104 283.609 182.653 284.808L182.404 284.827C181.913 283.756 180.494 282.77 178.234 281.908C175.983 281.05 172.945 280.332 169.295 279.779C161.996 278.673 152.282 278.229 141.596 278.615L141.503 278.387ZM182.653 284.808C183.203 286.006 182.677 287.206 181.326 288.36C179.97 289.518 177.756 290.656 174.841 291.728C169.008 293.873 160.344 295.765 150.052 297.032L149.936 296.806C160.218 295.54 168.863 293.651 174.675 291.514C177.581 290.445 179.773 289.316 181.107 288.176C182.447 287.031 182.895 285.899 182.404 284.827L182.653 284.808ZM150.118 296.91L165.231 329.873L164.982 329.893L149.869 296.929L150.118 296.91ZM165.159 329.996L146.503 331.465L146.399 331.237L165.054 329.769L165.159 329.996ZM146.326 331.361L131.208 298.385L131.457 298.366L146.576 331.341L146.326 331.361ZM131.379 298.49C120.706 298.874 110.991 298.43 103.679 297.32C100.025 296.766 96.9625 296.044 94.679 295.172C92.405 294.304 90.8559 293.269 90.3068 292.071L90.556 292.052C91.0469 293.122 92.4637 294.107 94.7202 294.968C96.9672 295.826 100 296.543 103.644 297.096C110.929 298.201 120.625 298.646 131.287 298.262L131.379 298.49ZM90.3068 292.071C89.7577 290.874 90.2818 289.675 91.6282 288.522C92.9802 287.364 95.1888 286.228 98.0972 285.156C103.916 283.013 112.561 281.123 122.836 279.856L122.952 280.082C112.687 281.347 104.061 283.235 98.2631 285.37C95.3634 286.439 93.1776 287.567 91.8472 288.706C90.5113 289.85 90.0651 290.981 90.556 292.052L90.3068 292.071ZM123.019 280.043L123.017 280.047L122.767 279.9L122.769 279.896L123.019 280.043Z" fill="#141414"/>
<path d="M197.066 53.326L178.929 45.9623L177.559 49.2475C143.917 48.1965 107.491 75.6881 89.7078 118.724C71.9248 161.759 78.4104 206.672 103.126 229.321L101.769 232.606L119.902 239.97C157.882 255.392 205.932 226.115 227.243 174.573C248.554 123.03 235.042 68.7508 197.066 53.326Z" fill="#CF931D" stroke="#141414" stroke-width="0.5"/>
<path d="M209.131 167.218C230.436 115.678 216.919 61.3933 178.94 45.9696C140.96 30.5459 92.9005 59.8241 71.5953 111.364C50.2901 162.904 63.8073 217.189 101.787 232.613C139.766 248.037 187.826 218.759 209.131 167.218Z" fill="#FBC03D" stroke="#141414" stroke-width="0.5"/>
<path d="M124.467 228.585L124.466 228.585C117.768 228.785 111.101 227.595 104.894 225.093C89.0223 218.645 77.4751 203.917 72.4113 183.581C67.1242 162.345 69.5192 137.791 79.1721 114.436C86.9906 95.5222 98.7577 79.3329 113.197 67.6187L113.197 67.6186C126.763 56.5997 142.053 50.3442 156.218 49.9692L156.219 49.9692C162.923 49.7677 169.595 50.957 175.808 53.4609C191.68 59.9087 203.224 74.636 208.288 94.9733C213.575 116.208 211.18 140.763 201.527 164.118C193.708 183.032 181.941 199.218 167.505 210.952C153.936 221.967 138.646 228.223 124.467 228.585Z" fill="#FBC03D" stroke="#141414" stroke-width="0.5"/>
<path d="M81.2904 182.534C76.1696 161.862 80.7394 139.308 90.0834 116.587C99.4274 93.8662 111.442 77.1788 129.652 66.0275C146.028 56.0019 161.063 50.3491 175.815 55.2734C174.924 54.8424 174.02 54.4339 173.1 54.0608C157.718 47.7823 140.477 52.4461 123.058 63.1085C104.851 74.2566 90.6313 92.9118 81.2874 115.633C71.9434 138.353 69.5767 161.868 74.7008 182.534C79.5988 202.308 89.03 216.993 104.412 223.268C105.333 223.645 106.731 223.989 107.669 224.3C93.6856 217.504 85.9108 201.125 81.2904 182.534Z" fill="#CF931D"/>
<path d="M171.409 160.109C170.162 154.213 167.051 149.827 162.119 146.948C174.28 146.681 182.84 140.788 187.605 129.263C190.806 121.518 190.975 114.357 188.111 107.78C186.177 103.347 183.018 99.8588 178.635 97.3161L184.537 83.0348L178.068 80.3908L165.62 77.5616L158.618 74.7127L158.067 75.3737L153.799 74.1772L148.381 87.2852L138.764 84.3668L99.1 180.32L108.317 184.203L102.898 197.314L114.102 202.222L119.587 188.953L125.923 191.62L120.401 204.976L132.035 210.072L137.774 196.191C143.729 197.734 149.264 197.417 154.346 195.199C160.955 192.319 165.951 186.802 169.335 178.647C171.976 172.238 172.667 166.058 171.409 160.109ZM149.501 107.995L161.722 111.961C164.452 112.842 166.276 114.482 167.194 116.879C168.112 119.276 167.835 122.251 166.364 125.802C164.894 129.361 162.95 131.753 160.532 132.978C158.113 134.203 155.557 134.337 152.862 133.381L140.751 129.147L149.501 107.995ZM166.737 92.8476L165.18 92.375L167.371 91.3174L166.737 92.8476ZM145.323 174.566C142.822 175.888 140.309 176.045 137.784 175.038L124.052 169.562L133.265 147.276L147.347 152.508C149.901 153.457 151.556 155.276 152.312 157.964C153.068 160.652 152.72 163.761 151.268 167.291C149.815 170.819 147.833 173.247 145.323 174.576V174.566Z" fill="#CF931D"/>
<path d="M165.42 157.69C164.086 151.741 160.842 147.316 155.75 144.374C168.221 144.232 176.938 138.402 181.703 126.877C184.904 119.133 184.99 111.925 181.993 105.305C179.965 100.834 176.689 97.2979 172.163 94.6957L178.065 80.4145L165.437 76.7293L159.915 90.0884L153.123 88.0063L158.608 74.7364L146.45 71.2032L141.032 84.3112L131.138 81.2804L91.4741 177.223L100.967 181.219L95.5456 194.331L107.09 199.374L112.575 186.104L119.091 188.847L113.569 202.206L125.556 207.448L131.298 193.567C137.42 195.177 143.092 194.915 148.284 192.744C155.029 189.919 160.094 184.43 163.48 176.275C166.127 169.867 166.774 163.673 165.42 157.69ZM142.412 105.12L154.987 109.235C157.801 110.154 159.69 111.818 160.655 114.229C161.62 116.639 161.369 119.63 159.902 123.202C158.428 126.76 156.459 129.142 153.996 130.348C151.533 131.553 148.911 131.663 146.13 130.678L133.662 126.296L142.412 105.12ZM138.834 171.935C137.659 172.574 136.354 172.941 135.015 173.01C133.677 173.078 132.34 172.847 131.105 172.332L116.963 166.687L126.176 144.401L140.675 149.805C141.924 150.238 143.048 150.969 143.946 151.933C144.844 152.897 145.49 154.065 145.827 155.334C146.631 158.051 146.308 161.17 144.856 164.691C143.405 168.212 141.393 170.627 138.821 171.935H138.834Z" fill="#FDD77E" stroke="#141414" stroke-width="0.25"/>
</svg>
