<svg width="118" height="28" viewBox="0 0 118 28" fill="none" xmlns="http://www.w3.org/2000/svg">
<g clip-path="url(#clip0_155_1355)">
<path d="M41.8929 5.00977V23.5392H37.8436V15.7846H30.1209V23.5392H26.0905V5.00977H30.1209V12.3659H37.8436V5.00977H41.8929Z" fill="#7234F5"/>
<path d="M56.4834 14.6497V23.5392H52.7032V21.4481C52.2427 22.7046 50.7076 23.5392 48.8175 23.5392C46.1311 23.5392 44.2986 21.795 44.2986 19.4883C44.2986 16.844 46.323 15.2405 49.3356 15.2405H51.6671C51.8043 15.2515 51.9424 15.2335 52.072 15.1878C52.2015 15.142 52.3195 15.0695 52.4178 14.9751C52.5161 14.8808 52.5924 14.767 52.6417 14.6412C52.691 14.5155 52.7119 14.3809 52.7032 14.2465C52.7032 13.1213 51.8014 12.3711 50.2375 12.3711C49.9228 12.3389 49.6047 12.3696 49.3025 12.4613C49.0004 12.5531 48.7205 12.7041 48.4799 12.905C48.2394 13.1059 48.0432 13.3525 47.9033 13.6299C47.7634 13.9073 47.6827 14.2096 47.6662 14.5184H44.2698C44.4329 11.8085 46.678 9.64239 50.4582 9.64239C53.9409 9.61425 56.4834 11.5928 56.4834 14.6497ZM52.7032 17.7816V17.5941H49.9113C49.6624 17.5693 49.411 17.5955 49.1731 17.6713C48.9353 17.747 48.7163 17.8705 48.5302 18.0339C48.3441 18.1973 48.195 18.3969 48.0924 18.6199C47.9899 18.8429 47.9362 19.0844 47.9349 19.3289C47.9462 19.5488 48.004 19.764 48.1047 19.961C48.2053 20.158 48.3466 20.3324 48.5197 20.4734C48.6927 20.6143 48.8938 20.7187 49.1102 20.78C49.3266 20.8412 49.5536 20.858 49.777 20.8292C50.18 20.8371 50.5803 20.7622 50.9518 20.6094C51.3234 20.4565 51.6579 20.229 51.9338 19.9417C52.2097 19.6544 52.4207 19.3136 52.5533 18.9415C52.6858 18.5694 52.7369 18.1743 52.7032 17.7816Z" fill="#7234F5"/>
<path d="M58.391 9.64209H62.2118V11.7647C62.6539 11.0744 63.2742 10.5142 64.0083 10.1424C64.7424 9.77066 65.5634 9.60082 66.386 9.65057C69.4904 9.65057 71.5154 11.869 71.5154 15.0069V23.5392H67.6946V15.8791C67.7266 15.5161 67.6817 15.1504 67.563 14.8055C67.4443 14.4607 67.2543 14.1442 67.0052 13.8765C66.7561 13.6087 66.4534 13.3956 66.1165 13.2507C65.7796 13.1058 65.4159 13.0323 65.0487 13.035C64.6558 13.0342 64.2669 13.1135 63.9061 13.2681C63.5454 13.4228 63.2206 13.6494 62.9518 13.9339C62.6831 14.2184 62.4761 14.5548 62.3439 14.922C62.2116 15.2893 62.1569 15.6796 62.1831 16.0687V23.5392H58.3624L58.391 9.64209Z" fill="#7234F5"/>
<path d="M74.3626 9.64209H78.1834V11.7647C78.6255 11.0744 79.2458 10.5142 79.9799 10.1424C80.7139 9.77066 81.535 9.60082 82.3576 9.65057C85.462 9.65057 87.487 11.869 87.487 15.0069V23.5392H83.6662V15.8791C83.6981 15.5161 83.6533 15.1504 83.5345 14.8055C83.4158 14.4607 83.2259 14.1442 82.9768 13.8765C82.7277 13.6087 82.425 13.3956 82.0881 13.2507C81.7511 13.1058 81.3875 13.0323 81.0203 13.035C80.6273 13.0342 80.2384 13.1135 79.8777 13.2681C79.517 13.4228 79.1921 13.6494 78.9234 13.9339C78.6546 14.2184 78.4477 14.5548 78.3154 14.922C78.1832 15.2893 78.1285 15.6796 78.1547 16.0687V23.5392H74.3339L74.3626 9.64209Z" fill="#7234F5"/>
<path d="M101.58 14.6497V23.5392H97.7994V21.4481C97.3388 22.7046 95.8038 23.5392 93.9137 23.5392C91.2273 23.5392 89.3947 21.795 89.3947 19.4883C89.3947 16.844 91.4191 15.2405 94.4317 15.2405H96.7632C96.9005 15.2515 97.0386 15.2335 97.1681 15.1878C97.2977 15.142 97.4156 15.0695 97.5139 14.9751C97.6122 14.8808 97.6886 14.767 97.7378 14.6412C97.7871 14.5155 97.8081 14.3809 97.7994 14.2465C97.7994 13.1213 96.8975 12.3711 95.3336 12.3711C95.0189 12.3389 94.7008 12.3696 94.3987 12.4613C94.0965 12.5531 93.8166 12.7041 93.5761 12.905C93.3355 13.1059 93.1393 13.3525 92.9994 13.6299C92.8595 13.9073 92.7789 14.2096 92.7624 14.5184H89.366C89.5291 11.8085 91.7741 9.64239 95.5543 9.64239C99.037 9.61425 101.58 11.5928 101.58 14.6497ZM97.7994 17.7816V17.5941H95.0074C94.7586 17.5693 94.5071 17.5955 94.2693 17.6713C94.0314 17.747 93.8124 17.8705 93.6263 18.0339C93.4402 18.1973 93.2911 18.3969 93.1886 18.6199C93.086 18.8429 93.0324 19.0844 93.031 19.3289C93.0423 19.5488 93.1001 19.764 93.2008 19.961C93.3014 20.158 93.4427 20.3324 93.6158 20.4734C93.7889 20.6143 93.9899 20.7187 94.2063 20.78C94.4227 20.8412 94.6498 20.858 94.8731 20.8292C95.2762 20.8371 95.6764 20.7622 96.048 20.6094C96.4195 20.4565 96.7541 20.229 97.0299 19.9417C97.3058 19.6544 97.5168 19.3136 97.6494 18.9415C97.7819 18.5694 97.833 18.1743 97.7994 17.7816Z" fill="#7234F5"/>
<path d="M104.398 4.0835H108.294V11.8489C108.74 11.1627 109.363 10.6065 110.098 10.2376C110.833 9.86866 111.654 9.70032 112.476 9.74988C115.536 9.74988 117.551 11.9524 117.551 15.068V23.5394H113.75V15.934C113.777 15.5721 113.729 15.2084 113.607 14.866C113.486 14.5235 113.294 14.2097 113.044 13.9444C112.794 13.6791 112.491 13.468 112.155 13.3244C111.818 13.1808 111.455 13.1079 111.089 13.1102C110.698 13.1093 110.311 13.1881 109.952 13.3416C109.593 13.4952 109.27 13.7202 109.002 14.0027C108.735 14.2852 108.529 14.6191 108.397 14.9837C108.266 15.3483 108.211 15.7359 108.237 16.1222V23.5394H104.398V4.0835Z" fill="#7234F5"/>
<path d="M18.9749 13.4165V22.9378C18.9734 23.0318 18.9398 23.1227 18.8793 23.1968C18.8188 23.2709 18.7346 23.3242 18.6395 23.3485L14.7831 24.3087C14.7171 24.326 14.6479 24.3285 14.5808 24.316C14.5136 24.3034 14.4505 24.2761 14.3963 24.2363C14.3421 24.1965 14.2984 24.1452 14.2685 24.0865C14.2386 24.0278 14.2234 23.9632 14.2242 23.8979V20.1001H13.9894C12.7164 20.0988 11.4479 20.2439 10.2112 20.5322L9.70822 20.6602L9.49025 20.7135C7.78973 21.1924 6.18568 21.9407 4.74515 22.9271C2.79792 24.26 1.18959 25.9937 0.0391637 27.9998H3.62104e-05V25.6102C-0.00541022 23.8351 0.603684 22.1081 1.73265 20.6975C1.79971 20.6175 1.85561 20.5481 1.9115 20.4895C3.91011 18.2595 6.54225 16.6293 9.49025 15.7955L14.2354 14.6113L18.9749 13.4165Z" fill="#7234F5"/>
<path d="M18.9747 0V2.08105C18.9878 4.23633 18.18 6.32256 16.702 7.95067L16.5121 8.11608C14.5965 10.0322 12.1934 11.4406 9.53762 12.2035H9.48178L8.53807 12.4436L4.7409 13.3934L0 14.5833V5.07456C0.000238079 4.98104 0.0326037 4.89018 0.0921251 4.81596C0.151646 4.74173 0.235028 4.68823 0.329459 4.66368L4.18249 3.7032C4.24837 3.68583 4.31756 3.68333 4.38462 3.69589C4.45168 3.70845 4.51477 3.73573 4.56892 3.77557C4.62306 3.81541 4.66678 3.86672 4.69662 3.92547C4.72647 3.98421 4.74163 4.04878 4.7409 4.11407V7.90265H4.99776C6.31578 7.90284 7.62875 7.7469 8.90662 7.43841L9.14673 7.37971L9.46503 7.29967C11.1635 6.82441 12.7662 6.07941 14.2059 5.0959C16.1609 3.76425 17.7759 2.02773 18.93 0.0160155L18.9747 0Z" fill="#7234F5"/>
</g>
<defs>
<clipPath id="clip0_155_1355">
<rect width="118" height="28" fill="white"/>
</clipPath>
</defs>
</svg>
