<svg width="36" height="38" viewBox="0 0 36 38" fill="none" xmlns="http://www.w3.org/2000/svg">
<path d="M34.9144 19.1258C32.0548 19.7065 21.2973 22.8423 18.1264 36.9148C18.1058 36.9663 18.0557 37 18 37C17.9443 37 17.8942 36.9663 17.8736 36.9148C14.7805 22.8423 3.94522 19.7065 1.08563 19.1258C1.03392 19.1053 1 19.0554 1 19C1 18.9446 1.03392 18.8948 1.08563 18.8742C3.94522 18.2935 14.7027 15.1577 17.8736 1.08521C17.8942 1.03375 17.9443 1 18 1C18.0557 1 18.1058 1.03375 18.1264 1.08521C21.2195 15.1577 32.0548 18.2935 34.9144 18.8742C34.9661 18.8948 35 18.9446 35 19C35 19.0554 34.9661 19.1053 34.9144 19.1258Z" fill="#F5F0FE" stroke="#141414" stroke-width="0.5" stroke-linecap="round" stroke-linejoin="round"/>
</svg>
