<svg width="38" height="38" viewBox="0 0 38 38" fill="none" xmlns="http://www.w3.org/2000/svg">
<path d="M36.9093 19.1258C33.8815 19.7065 22.4912 22.8423 19.1339 36.9148C19.112 36.9663 19.059 37 19 37C18.941 37 18.888 36.9663 18.8661 36.9148C15.5911 22.8423 4.11847 19.7065 1.09067 19.1258C1.03591 19.1053 1 19.0554 1 19C1 18.9446 1.03591 18.8948 1.09067 18.8742C4.11847 18.2935 15.5088 15.1577 18.8661 1.08521C18.888 1.03375 18.941 1 19 1C19.059 1 19.112 1.03375 19.1339 1.08521C22.4088 15.1577 33.8815 18.2935 36.9093 18.8742C36.9641 18.8948 37 18.9446 37 19C37 19.0554 36.9641 19.1053 36.9093 19.1258Z" fill="#F5F0FE" stroke="#141414" stroke-width="0.5" stroke-linecap="round" stroke-linejoin="round"/>
</svg>
