<svg width="55" height="57" viewBox="0 0 55 57" fill="none" xmlns="http://www.w3.org/2000/svg">
<path d="M53.8665 28.6922C49.4089 29.5794 32.6399 34.3702 27.6971 55.8698C27.6649 55.9484 27.5868 56 27.5 56C27.4132 56 27.3351 55.9484 27.3029 55.8698C22.4814 34.3702 5.59108 29.5794 1.13348 28.6922C1.05287 28.6608 1 28.5847 1 28.5C1 28.4153 1.05287 28.3392 1.13348 28.3078C5.59108 27.4206 22.3601 22.6298 27.3029 1.13018C27.3351 1.05156 27.4132 1 27.5 1C27.5868 1 27.6649 1.05156 27.6971 1.13018C32.5186 22.6298 49.4089 27.4206 53.8665 28.3078C53.9471 28.3392 54 28.4153 54 28.5C54 28.5847 53.9471 28.6608 53.8665 28.6922Z" fill="#FFE6C4" stroke="#141414" stroke-width="0.5" stroke-linecap="round" stroke-linejoin="round"/>
</svg>
