<svg width="52" height="60" viewBox="0 0 52 60" fill="none" xmlns="http://www.w3.org/2000/svg">
<path d="M50.8741 30.2027C46.6688 31.1383 30.8489 36.1904 26.1859 58.8627C26.1555 58.9456 26.0819 59 26 59C25.9181 59 25.8444 58.9456 25.8141 58.8627C21.2655 36.1904 5.3312 31.1383 1.12593 30.2027C1.04988 30.1696 1 30.0893 1 30C1 29.9107 1.04988 29.8304 1.12593 29.7973C5.3312 28.8617 21.1511 23.8096 25.8141 1.13728C25.8444 1.05437 25.9181 1 26 1C26.0819 1 26.1555 1.05437 26.1859 1.13728C30.7345 23.8096 46.6688 28.8617 50.8741 29.7973C50.9501 29.8304 51 29.9107 51 30C51 30.0893 50.9501 30.1696 50.8741 30.2027Z" fill="#FFE6C4" stroke="#141414" stroke-width="0.5" stroke-linecap="round" stroke-linejoin="round"/>
</svg>
