<svg width="20" height="20" viewBox="0 0 20 20" fill="none" xmlns="http://www.w3.org/2000/svg">
<path d="M3.10938 17.5078C3.11033 17.6178 3.14031 17.7256 3.19628 17.8204C3.25225 17.9151 3.33224 17.9934 3.42815 18.0473C3.52407 18.1012 3.63251 18.1288 3.74252 18.1273C3.85253 18.1259 3.96022 18.0955 4.05469 18.0391L17.1641 10.5313C17.2605 10.48 17.3412 10.4035 17.3974 10.3099C17.4537 10.2163 17.4834 10.1092 17.4834 10C17.4834 9.89081 17.4537 9.78367 17.3974 9.69008C17.3412 9.59649 17.2605 9.51998 17.1641 9.46875L4.05469 1.96094C3.96022 1.90455 3.85253 1.8741 3.74252 1.87266C3.63251 1.87122 3.52407 1.89885 3.42815 1.95275C3.33224 2.00665 3.25225 2.08492 3.19628 2.17964C3.14031 2.27435 3.11033 2.38217 3.10938 2.49219V17.5078Z" stroke="#7234F5" stroke-width="1.5" stroke-linecap="round" stroke-linejoin="round"/>
<path d="M3.29688 2.04688L13.7422 12.4922" stroke="#7234F5" stroke-width="1.5" stroke-linecap="round" stroke-linejoin="round"/>
<path d="M3.29688 17.9531L13.7422 7.50781" stroke="#7234F5" stroke-width="1.5" stroke-linecap="round" stroke-linejoin="round"/>
</svg>
