<svg width="648" height="556" viewBox="0 0 648 556" fill="none" xmlns="http://www.w3.org/2000/svg">
<path d="M457.103 150.773C462.962 151.648 465.142 145.866 465.475 141.871C465.586 143.656 467.079 147.963 472.161 150.908C477.243 153.854 481.857 142.094 483.528 135.846C483.863 138.747 485.2 144.549 487.875 144.549C490.663 144.652 494.405 138.42 498.251 129.792C510.239 102.895 529.252 79.3763 556.077 67.2266L588.172 44.7999L531.003 3.2937L455.445 38.7748L446.018 78.1398C443.181 89.9864 442.163 102.196 443.001 114.348L444.051 129.591C444.29 133.066 445.118 136.475 446.499 139.673C448.636 144.622 451.772 149.976 457.103 150.773Z" fill="#D2BBFB"/>
<path d="M394.324 90.8971L366.053 130.044C383.681 134.696 402.52 128.056 413.532 113.526C432.986 87.8589 455.479 63.8441 482.361 46.106C490.569 40.69 498.227 36.1044 503.682 33.7703C522.435 25.7476 548.219 64.5243 548.554 87.9241C548.889 111.324 530.471 136.395 509.71 165.812C493.1 189.345 505.691 205.48 514.063 210.606L532.243 188.696C585.838 124.107 662.634 83.123 746.124 74.5528L736.413 -9.35207L580.169 -17.4312C531.272 -19.9596 483.432 -2.59303 447.544 30.7141C427.867 48.9754 410.041 69.1341 394.324 90.8971Z" fill="#E0D1FC"/>
<path d="M547.986 95.8423C544.885 116.04 529.607 137.657 512.173 162.324C511.356 163.48 510.535 164.642 509.71 165.812C493.1 189.345 505.691 205.48 514.063 210.605L518.223 205.592C513.236 198.154 511.041 186.776 519.176 171.281C519.841 170.014 520.504 168.754 521.162 167.502C535.466 140.3 547.97 116.522 547.986 95.8423Z" fill="#D2BBFB"/>
<path d="M589.189 135.029C612.258 118.091 637.49 104.322 664.198 94.0879C710.321 79.8462 714.452 79.8462 726.846 77.092L723.508 -10.0195C722.686 27.0913 697.122 61.4388 662.959 79.9715C635.869 94.6675 611.015 113.209 589.189 135.029Z" fill="#D2BBFB"/>
<path d="M513.31 211.428L540.458 179.344C538.735 177.542 535.569 172.763 527.296 172.763C519.774 172.763 507.63 194.857 505.906 205.669L513.31 211.428Z" fill="#141414"/>
<path d="M366.052 129.984L383.328 106.127C392.378 115.999 380.878 128.339 370.988 131.63L366.052 129.984Z" fill="#141414"/>
<path d="M524.004 60.8801C515.045 66.4056 496.064 81.4483 491.817 97.4157C487.569 113.383 485.18 127.975 484.516 133.275" stroke="#141414" stroke-width="1.37707"/>
<path d="M507.551 49.363C496.3 57.1546 472.994 76.0769 469.786 89.4339C466.577 102.791 465.107 128.614 464.773 139.856" stroke="#141414" stroke-width="1.37707"/>
<path d="M445.297 189.452L445.29 189.449L445.283 189.446C434.334 185.564 422.309 185.771 411.433 190.027C400.557 194.284 391.566 202.302 386.124 212.598C374.59 233.952 382.473 258.392 403.693 267.033L403.701 267.036L403.708 267.039C414.657 270.921 426.682 270.715 437.558 266.458C448.434 262.201 457.425 254.183 462.867 243.886C474.321 222.525 466.486 198.049 445.297 189.452ZM398.686 276.117C372.624 265.517 362.949 235.427 377.139 209.137C391.34 182.827 424.022 169.971 450.116 180.583C476.178 191.183 485.908 221.162 471.707 247.529C457.496 273.916 424.747 286.686 398.686 276.117Z" fill="#FFE6C4" stroke="#141414" stroke-width="0.688536"/>
<path d="M401.51 195.878C381.178 210.108 374.934 236.207 387.564 254.172C400.194 272.137 426.916 275.165 447.248 260.936C467.58 246.707 473.824 220.608 461.194 202.643C448.564 184.677 421.843 181.649 401.51 195.878Z" fill="#FEF3E4"/>
<path d="M387.564 254.172C374.934 236.207 381.178 210.108 401.51 195.879C421.843 181.65 448.564 184.678 461.194 202.643C462.388 204.341 463.414 206.112 464.274 207.939C450.351 196.303 432.152 187.002 405.987 202.643C385.18 215.081 385.615 243.519 393.859 261.016C391.508 259.051 389.389 256.768 387.564 254.172Z" fill="#FEDDAF"/>
<path d="M472.822 200.629L475.348 204.551L475.35 204.554C477.871 208.324 479.43 211.497 480.395 214.858C481.36 218.22 481.735 221.78 481.877 226.332C482.161 235.41 479.899 244.41 475.343 252.324L475.342 252.324L475.34 252.33C461.143 278.738 428.312 291.622 402.145 280.98L402.144 280.979C394.075 277.753 387.128 272.28 382.13 265.213L382.13 265.213L382.126 265.207L382.006 265.049C386.317 269.336 391.471 272.737 397.182 275.026C423.529 285.71 456.608 272.765 470.861 246.147C475.456 238.178 477.742 229.112 477.462 219.965C477.255 213.237 475.667 206.66 472.822 200.629Z" fill="#F9CC90" stroke="#141414" stroke-width="0.413122"/>
<path d="M408.083 223.037L413.203 225.755C412.838 226.444 412.477 227.148 412.119 227.849L406.969 225.114L406.666 224.953L406.504 225.256L404.705 228.617L404.542 228.921L404.847 229.083L410.116 231.882C409.847 232.41 409.581 232.929 409.313 233.435L409.297 233.426L409.139 233.721L406.655 238.358L406.491 238.663L406.797 238.825L410.419 240.747L410.727 240.911L410.886 240.599L410.58 240.443L410.886 240.599L410.887 240.599L410.887 240.599L410.887 240.597L410.89 240.592L410.901 240.571L410.941 240.492C410.976 240.424 411.026 240.326 411.087 240.209C411.207 239.975 411.368 239.665 411.529 239.356C411.627 239.167 411.726 238.98 411.815 238.812L411.826 238.84L412.189 238.162C412.52 237.544 412.898 237.268 413.243 237.155C413.586 237.042 413.945 237.075 414.274 237.174L420.591 240.527L420.893 240.687L420.893 240.687L429.483 245.248C429.65 245.373 429.823 245.548 429.911 245.766C429.995 245.975 430.018 246.261 429.809 246.654L429.384 247.451L429.409 247.442C429.336 247.577 429.258 247.72 429.179 247.864C429.012 248.17 428.843 248.478 428.716 248.708L428.561 248.987L428.518 249.065L428.507 249.085L428.504 249.091L428.503 249.092L428.503 249.092L428.503 249.092L428.804 249.26L428.503 249.092L428.358 249.353L428.595 249.533L432.287 252.351L432.608 252.597L432.799 252.24L435.141 247.864C435.403 247.376 435.666 246.898 435.926 246.424C436.046 246.206 436.165 245.99 436.283 245.773L441.617 248.603L441.92 248.764L442.082 248.462L443.88 245.103L444.043 244.798L443.738 244.636L438.475 241.842C438.868 241.14 439.244 240.451 439.608 239.773L444.853 242.56L445.156 242.721L445.318 242.418L447.117 239.055L447.28 238.75L446.975 238.588L441.639 235.754C442.916 232.943 443.73 230.343 443.601 228.012C443.466 225.566 442.297 223.458 439.67 221.738C437.573 220.364 435.712 219.902 434.028 220.181C432.594 220.42 431.336 221.188 430.204 222.298C430.114 221.31 429.823 220.374 429.273 219.531C428.569 218.454 427.457 217.556 425.861 216.898C423.647 215.98 421.681 216.236 419.93 217.268C418.272 218.244 416.818 219.907 415.5 221.877L410.206 219.066L409.903 218.905L409.741 219.208L407.941 222.571L407.778 222.875L408.083 223.037ZM435.096 228.62L435.096 228.62C436.046 229.124 436.508 229.878 436.661 230.778C436.817 231.698 436.652 232.78 436.308 233.902C435.733 235.774 434.696 237.648 434.007 238.895C433.936 239.024 433.868 239.146 433.805 239.261L426.945 235.618C427.031 235.45 427.124 235.266 427.223 235.069C427.865 233.799 428.782 231.985 429.949 230.525C430.68 229.61 431.484 228.869 432.344 228.49C433.185 228.12 434.096 228.089 435.096 228.62ZM423.728 224.593C424.593 225.053 425.021 225.706 425.182 226.461C425.347 227.235 425.235 228.137 424.963 229.074C424.51 230.634 423.649 232.181 423.072 233.219C423.02 233.312 422.971 233.4 422.925 233.484L416.757 230.209C416.823 230.08 416.893 229.94 416.968 229.791C417.5 228.731 418.253 227.231 419.24 226.033C419.858 225.283 420.543 224.686 421.285 224.396C422.01 224.112 422.816 224.11 423.728 224.593Z" fill="#F9CC90" stroke="#141414" stroke-width="0.688536"/>
<path d="M496.973 248.52L493.714 308" stroke="black" stroke-width="1.37707" stroke-miterlimit="10"/>
<path d="M358.528 157.633L356.492 186.371" stroke="black" stroke-width="1.37707" stroke-miterlimit="10"/>
<path d="M-77.7313 369.88C-72.3748 361.539 3.00431 302.963 71.8419 296.705C140.679 290.447 165.026 277.198 171.585 269.419C178.145 261.64 199.908 236.346 214.583 243.194C216.415 244.048 215.065 246.577 213.248 248.826C224.224 237.358 244.104 220.392 252.867 227.073C253.654 228.746 252.747 231.085 251.41 233.208C258.592 224.783 270.209 214.249 277.342 218.572C287.847 224.939 268.954 237.802 247.657 275.911C263.866 263.358 297.561 240.662 302.668 250.311C304.285 253.878 261.173 296.964 239.415 318.061C248.514 314.885 269.291 311.67 279.608 324.218C283.425 329.222 182.625 387.655 125.832 391.33C69.0394 395.006 -3.88702 425.723 -45.7787 453.343L-77.7313 369.88Z" fill="#E0D1FC"/>
<path d="M291.634 265.04C296.048 262.997 300.983 256.094 303.541 251.86C303.843 251.36 303.365 250.784 302.817 250.985C292.632 254.732 291.081 261.826 291.634 265.04Z" fill="#141414"/>
<path d="M254.123 329.86C257.998 325.575 272.113 323.118 278.277 322.674C278.877 323.286 279.405 323.781 279.949 324.247C281.379 325.472 281.269 327.743 279.624 328.661L253.418 343.301C252.038 340.606 250.248 334.146 254.123 329.86Z" fill="#141414"/>
<path d="M188.382 340.786C194.412 338.912 204.937 329.775 211.775 327.887C197.245 313.118 161.958 284.069 137.049 286.033C124.205 289.562 107.162 292.87 84.7222 295.398C77.7908 300.194 74.2403 304.772 79.0448 307.639C80.9218 308.759 83.1444 310.13 85.6237 311.66C101.003 321.15 126.258 336.734 140.153 336.153C148.096 335.821 158.079 337.506 167.069 339.024L167.069 339.024C176.34 340.589 184.554 341.975 188.382 340.786Z" fill="#D2BBFB"/>
<path d="M248.027 275.746L204.083 319.694M246.392 316.292C244.741 316.693 241.036 317.601 239.432 318.025C237.828 318.448 226.36 322.179 212.134 327.553" stroke="#141414" stroke-width="1.29415"/>
<path d="M251.505 233.132L231.49 261.585L186.856 306.383" stroke="#141414" stroke-width="1.29415"/>
<path d="M168.828 294.162C168.828 294.162 208.618 254.721 209.42 253.631C210.222 252.54 214.023 248.161 214.023 248.161" stroke="#141414" stroke-width="1.29415"/>
<path d="M-45.7782 453.343C-3.8865 425.723 69.0399 395.006 125.833 391.33C97.0381 389.208 19.7411 392.29 -59.0907 421.599L-45.7782 453.343Z" fill="#D2BBFB"/>
<path d="M52.2107 125.599L43.8918 160.063C42.7498 164.792 42.704 169.717 43.7581 174.466C44.8122 179.215 46.9385 183.664 49.9765 187.477L111.769 265.044C114.873 268.942 121.151 267.398 122.069 262.512L131.545 212.032C132.389 207.534 132.256 202.909 131.155 198.466C130.053 194.023 128.009 189.866 125.158 186.273L65.5031 111.068C62.5202 107.308 56.4919 108.564 55.2842 113.202L54.2376 117.212" fill="#FDEAD0"/>
<path d="M52.2107 125.599L43.8918 160.063C42.7498 164.792 42.704 169.717 43.7581 174.466C44.8122 179.215 46.9385 183.664 49.9765 187.477L111.769 265.044C114.873 268.942 121.151 267.398 122.069 262.511L131.545 212.032C132.389 207.534 132.256 202.909 131.155 198.466C130.053 194.023 128.009 189.866 125.158 186.273L65.5031 111.068C62.5202 107.308 56.4919 108.564 55.2842 113.202L54.2376 117.212" stroke="black" stroke-width="0.989919" stroke-miterlimit="10"/>
<path d="M196.853 103.791L161.614 115.824C156.499 117.569 151.838 120.468 147.98 124.304C144.123 128.139 141.169 132.811 139.34 137.971L104.83 235.327C102.745 241.207 108.179 246.974 114.044 245.112L174.558 225.917C179.931 224.214 184.832 221.247 188.864 217.258C192.896 213.268 195.946 208.368 197.764 202.955L230.672 105.025C232.675 99.0598 227.048 93.3672 221.189 95.4317L216.992 96.9118" fill="#F9CC90"/>
<path d="M196.853 103.791L161.614 115.824C156.499 117.569 151.838 120.468 147.98 124.304C144.123 128.139 141.169 132.811 139.34 137.971L104.83 235.327C102.745 241.207 108.179 246.974 114.044 245.112L174.558 225.917C179.931 224.214 184.832 221.247 188.864 217.258C192.896 213.268 195.946 208.368 197.764 202.955L230.672 105.025C232.675 99.0598 227.048 93.3672 221.189 95.4317L216.992 96.9118" stroke="black" stroke-width="0.989919" stroke-miterlimit="10"/>
<path d="M231.502 160.335L213.266 199.08" stroke="black" stroke-width="0.989919" stroke-miterlimit="10"/>
<path d="M222.384 195.971L213.266 214.567" stroke="black" stroke-width="0.989919" stroke-miterlimit="10"/>
</svg>
