<svg width="685" height="536" viewBox="0 0 685 536" fill="none" xmlns="http://www.w3.org/2000/svg">
<g opacity="0.1">
<g clip-path="url(#clip0_1114_2864)">
<rect x="290" y="373" width="390" height="67" rx="11" fill="#FFFFFE"/>
<path d="M314 373H656" stroke="#F2F2F2"/>
<path d="M337.638 411.903C336.036 418.331 329.524 422.244 323.095 420.641C316.668 419.038 312.756 412.526 314.359 406.098C315.961 399.669 322.473 395.756 328.9 397.359C335.329 398.962 339.241 405.474 337.638 411.903L337.638 411.903H337.638Z" fill="#50AF95"/>
<path fill-rule="evenodd" clip-rule="evenodd" d="M327.518 410.36C327.434 410.367 326.995 410.393 326.017 410.393C325.239 410.393 324.687 410.37 324.493 410.36C321.488 410.228 319.244 409.705 319.244 409.078C319.244 408.452 321.488 407.929 324.493 407.795V409.839C324.69 409.853 325.253 409.887 326.031 409.887C326.964 409.887 327.431 409.848 327.516 409.84V407.797C330.515 407.93 332.754 408.453 332.754 409.078C332.754 409.704 330.516 410.227 327.516 410.36L327.518 410.36ZM327.518 407.585V405.756H331.704V402.966H320.308V405.756H324.493V407.584C321.091 407.741 318.533 408.415 318.533 409.222C318.533 410.029 321.091 410.703 324.493 410.86V416.721H327.518V410.857C330.912 410.701 333.466 410.028 333.466 409.221C333.466 408.415 330.914 407.741 327.518 407.584L327.518 407.585Z" fill="white"/>
<path d="M351.216 409.1C351.216 411.9 353.008 413.612 355.84 413.612C358.624 413.612 360.464 411.932 360.464 409.1V402.3H358.688V409.068C358.688 410.988 357.6 412.076 355.84 412.076C354.08 412.076 352.992 411.02 352.992 409.068V402.3H351.216V409.1ZM367 413.612C369.416 413.612 371.304 412.316 371.304 410.14C371.304 408.444 370.392 407.548 368.568 407.196L365.784 406.652C364.776 406.444 364.36 405.996 364.36 405.132C364.36 404.092 365.384 403.532 366.808 403.532C368.136 403.532 369.048 404.092 369.304 405.324H371C370.744 403.276 369.224 402.188 366.84 402.188C364.6 402.188 362.632 403.228 362.632 405.244C362.632 406.908 363.544 407.692 365.288 408.044L367.896 408.572C369.032 408.796 369.576 409.372 369.576 410.348C369.576 411.5 368.536 412.252 367.032 412.252C365.432 412.252 364.44 411.564 364.12 410.204H362.408C362.76 412.428 364.472 413.612 367 413.612ZM377.405 402.3H373.357V413.5H377.405C380.861 413.5 383.165 411.212 383.165 407.9C383.165 404.62 380.909 402.3 377.405 402.3ZM377.149 411.996H375.101V403.804H377.149C379.805 403.804 381.389 405.404 381.389 407.9C381.389 410.348 379.805 411.996 377.149 411.996ZM393.147 402.3H384.123V403.836H387.755V413.5H389.531V403.836H393.147V402.3ZM410.788 402.3L408.74 412.06L406.516 402.3H403.732L401.508 412.028L399.476 402.3H397.54L400.068 413.5H402.772L405.124 403.596L407.492 413.5H410.18L412.724 402.3H410.788ZM419.828 405.244L419.636 407.932C419.236 405.82 418.148 405.084 416.564 405.084C414.372 405.084 413.124 406.988 413.124 409.372C413.124 411.708 414.324 413.66 416.564 413.66C418.148 413.66 419.252 412.94 419.716 410.844L419.908 413.5H421.396V405.244H419.828ZM417.252 412.236C415.796 412.236 414.852 410.892 414.852 409.372C414.852 407.836 415.812 406.508 417.252 406.508C418.724 406.508 419.668 407.788 419.668 409.372C419.668 410.924 418.74 412.236 417.252 412.236ZM423.716 413.5H425.444V401.82H423.716V413.5ZM427.841 413.5H429.569V401.82H427.841V413.5ZM439.326 409.26C439.326 406.86 437.87 405.132 435.406 405.132C433.038 405.132 431.374 406.972 431.374 409.34C431.374 411.852 432.878 413.612 435.47 413.612C437.31 413.612 438.734 412.7 439.23 411.068H437.662C437.246 411.98 436.526 412.38 435.47 412.38C434.014 412.38 433.022 411.42 432.958 409.756H439.326V409.26ZM435.374 406.284C436.814 406.284 437.678 407.372 437.742 408.764H432.958C433.038 407.532 433.966 406.284 435.374 406.284ZM444.61 412.076C443.746 412.076 443.298 411.564 443.298 410.684V406.604H445.57V405.244H442.018C442.898 405.244 443.298 404.62 443.298 403.948V402.988H441.57V405.244H440.178V406.604H441.57V410.908C441.57 412.588 442.402 413.5 444.05 413.5H445.586V412.076H444.61Z" fill="#141414"/>
<path d="M641 401.5L648.5 409L641 416.5" stroke="#141414" stroke-width="1.5" stroke-linecap="round" stroke-linejoin="round"/>
</g>
<rect x="287.5" y="370.5" width="395" height="72" rx="13.5" stroke="#7234F5" stroke-opacity="0.1" stroke-width="5"/>
</g>
<g opacity="0.05">
<g clip-path="url(#clip1_1114_2864)">
<rect x="135" y="459" width="390" height="72" rx="11" fill="#141414"/>
<path d="M159 459H501" stroke="#F2F2F2"/>
<path d="M161.25 492H180.75L171 486L161.25 492Z" stroke="#FFFFFE" stroke-width="1.5" stroke-linecap="round" stroke-linejoin="round"/>
<path d="M164.25 492V499.5" stroke="#FFFFFE" stroke-width="1.5" stroke-linecap="round" stroke-linejoin="round"/>
<path d="M168.75 492V499.5" stroke="#FFFFFE" stroke-width="1.5" stroke-linecap="round" stroke-linejoin="round"/>
<path d="M173.25 492V499.5" stroke="#FFFFFE" stroke-width="1.5" stroke-linecap="round" stroke-linejoin="round"/>
<path d="M177.75 492V499.5" stroke="#FFFFFE" stroke-width="1.5" stroke-linecap="round" stroke-linejoin="round"/>
<path d="M162 499.5H180" stroke="#FFFFFE" stroke-width="1.5" stroke-linecap="round" stroke-linejoin="round"/>
<path d="M160.5 502.5H181.5" stroke="#FFFFFE" stroke-width="1.5" stroke-linecap="round" stroke-linejoin="round"/>
<path d="M200.968 493.692C203.832 493.692 204.696 492.444 204.696 490.924C204.696 489.388 203.4 488.3 201.336 488.3H196.248V499.5H201.336C203.72 499.5 205.16 498.332 205.16 496.524C205.16 494.78 203.864 493.692 200.968 493.692ZM200.936 489.708C202.184 489.708 202.952 490.348 202.952 491.324C202.952 492.316 202.152 493.02 200.952 493.02H197.976V489.708H200.936ZM201.16 498.076H197.976V494.412H201.176C202.6 494.412 203.432 495.148 203.432 496.188C203.432 497.372 202.616 498.076 201.16 498.076ZM213.14 491.244L212.948 493.932C212.548 491.82 211.46 491.084 209.876 491.084C207.684 491.084 206.436 492.988 206.436 495.372C206.436 497.708 207.636 499.66 209.876 499.66C211.46 499.66 212.564 498.94 213.028 496.844L213.22 499.5H214.708V491.244H213.14ZM210.564 498.236C209.108 498.236 208.164 496.892 208.164 495.372C208.164 493.836 209.124 492.508 210.564 492.508C212.036 492.508 212.98 493.788 212.98 495.372C212.98 496.924 212.052 498.236 210.564 498.236ZM221.188 491.132C219.94 491.132 218.932 491.772 218.612 493.692L218.452 491.244H216.948V499.5H218.676V494.7C218.676 493.372 219.38 492.54 220.612 492.54C221.796 492.54 222.436 493.292 222.436 494.572V499.5H224.164V494.396C224.164 492.332 223.14 491.132 221.188 491.132ZM233.939 499.5L229.795 495.148L233.875 491.244H231.891L228.051 494.86V487.82H226.323V499.5H228.051V495.276L232.019 499.5H233.939ZM247.079 499.5H248.919L244.887 488.3H242.199L238.167 499.5H240.007L240.903 496.844H246.183L247.079 499.5ZM241.399 495.356L243.543 488.972L245.687 495.356H241.399ZM253.876 491.132C251.46 491.132 249.796 492.956 249.796 495.372C249.796 497.74 251.412 499.612 253.876 499.612C255.892 499.612 257.38 498.476 257.684 496.604H256.052C255.732 497.628 254.98 498.236 253.891 498.236C252.42 498.236 251.492 496.924 251.492 495.372C251.492 493.82 252.42 492.508 253.891 492.508C254.98 492.508 255.732 493.116 256.052 494.14H257.684C257.38 492.284 255.908 491.132 253.876 491.132ZM263.063 491.132C260.647 491.132 258.983 492.956 258.983 495.372C258.983 497.74 260.599 499.612 263.063 499.612C265.079 499.612 266.567 498.476 266.871 496.604H265.239C264.919 497.628 264.167 498.236 263.079 498.236C261.607 498.236 260.679 496.924 260.679 495.372C260.679 493.82 261.607 492.508 263.079 492.508C264.167 492.508 264.919 493.116 265.239 494.14H266.871C266.567 492.284 265.095 491.132 263.063 491.132ZM272.283 499.612C274.747 499.612 276.395 497.82 276.395 495.372C276.395 492.956 274.747 491.132 272.283 491.132C269.819 491.132 268.171 492.908 268.171 495.372C268.171 497.788 269.771 499.612 272.283 499.612ZM272.283 498.236C270.779 498.236 269.867 496.94 269.867 495.372C269.867 493.852 270.747 492.508 272.283 492.508C273.771 492.508 274.683 493.82 274.683 495.372C274.683 496.876 273.819 498.236 272.283 498.236ZM283.432 491.244V496.06C283.432 497.372 282.76 498.204 281.56 498.204C280.392 498.204 279.752 497.468 279.752 496.172V491.244H278.024V496.332C278.024 498.412 279.032 499.612 280.888 499.612C282.184 499.612 283.144 498.988 283.512 497.02L283.672 499.5H285.16V491.244H283.432ZM291.641 491.132C290.393 491.132 289.385 491.772 289.065 493.692L288.905 491.244H287.401V499.5H289.129V494.7C289.129 493.372 289.833 492.54 291.065 492.54C292.249 492.54 292.889 493.292 292.889 494.572V499.5H294.617V494.396C294.617 492.332 293.593 491.132 291.641 491.132ZM300.313 498.076C299.449 498.076 299.001 497.564 299.001 496.684V492.604H301.273V491.244H297.721C298.601 491.244 299.001 490.62 299.001 489.948V488.988H297.273V491.244H295.881V492.604H297.273V496.908C297.273 498.588 298.105 499.5 299.753 499.5H301.289V498.076H300.313Z" fill="#FFFFFE"/>
<path d="M486 487.5L493.5 495L486 502.5" stroke="#FFFFFE" stroke-width="1.5" stroke-linecap="round" stroke-linejoin="round"/>
<path d="M159 531H501" stroke="#F2F2F2"/>
</g>
<rect x="132.5" y="456.5" width="395" height="77" rx="13.5" stroke="#7234F5" stroke-opacity="0.1" stroke-width="5"/>
</g>
<rect x="117" y="5" width="390" height="327" rx="20" fill="#FFFFFE"/>
<path d="M291 17H332" stroke="#E6E6E6" stroke-width="3" stroke-linecap="round"/>
<rect x="447.5" y="29.5" width="35" height="35" rx="17.5" fill="#F2F2F2"/>
<path d="M469.5 42.5L460.5 51.5" stroke="#141414" stroke-width="1.5" stroke-linecap="round" stroke-linejoin="round"/>
<path d="M469.5 51.5L460.5 42.5" stroke="#141414" stroke-width="1.5" stroke-linecap="round" stroke-linejoin="round"/>
<rect x="447.5" y="29.5" width="35" height="35" rx="17.5" stroke="#E6E6E6"/>
<path d="M260.391 42.2H256.121V52H257.675V48.15H260.391C262.365 48.15 263.905 47.002 263.905 45.154C263.905 43.348 262.435 42.2 260.391 42.2ZM260.307 46.876H257.675V43.46H260.307C261.511 43.46 262.365 44.118 262.365 45.154C262.365 46.19 261.525 46.876 260.307 46.876ZM270.56 44.776L270.392 47.128C270.042 45.28 269.09 44.636 267.704 44.636C265.786 44.636 264.694 46.302 264.694 48.388C264.694 50.432 265.744 52.14 267.704 52.14C269.09 52.14 270.056 51.51 270.462 49.676L270.63 52H271.932V44.776H270.56ZM268.306 50.894C267.032 50.894 266.206 49.718 266.206 48.388C266.206 47.044 267.046 45.882 268.306 45.882C269.594 45.882 270.42 47.002 270.42 48.388C270.42 49.746 269.608 50.894 268.306 50.894ZM278.836 44.776L276.694 51.44L274.566 44.776H273.04L275.56 52.028H276.498C276.05 53.218 275.742 53.512 274.972 53.512H273.908V54.744H275.182C276.554 54.744 277.254 54.086 277.688 52.784L280.362 44.776H278.836ZM289.71 44.678C288.548 44.678 287.736 45.224 287.442 46.89C287.12 45.154 286.238 44.678 285.16 44.678C284.04 44.678 283.27 45.21 283.004 46.904L282.85 44.776H281.548V52H283.06V47.786C283.06 46.568 283.69 45.924 284.656 45.924C285.65 45.924 286.168 46.554 286.168 47.688V52H287.638V47.8C287.638 46.652 288.198 45.924 289.22 45.924C290.2 45.924 290.732 46.568 290.732 47.688V52H292.244V47.534C292.244 45.728 291.292 44.678 289.71 44.678ZM300.65 48.29C300.65 46.19 299.376 44.678 297.22 44.678C295.148 44.678 293.692 46.288 293.692 48.36C293.692 50.558 295.008 52.098 297.276 52.098C298.886 52.098 300.132 51.3 300.566 49.872H299.194C298.83 50.67 298.2 51.02 297.276 51.02C296.002 51.02 295.134 50.18 295.078 48.724H300.65V48.29ZM297.192 45.686C298.452 45.686 299.208 46.638 299.264 47.856H295.078C295.148 46.778 295.96 45.686 297.192 45.686ZM305.903 44.678C304.811 44.678 303.929 45.238 303.649 46.918L303.509 44.776H302.193V52H303.705V47.8C303.705 46.638 304.321 45.91 305.399 45.91C306.435 45.91 306.995 46.568 306.995 47.688V52H308.507V47.534C308.507 45.728 307.611 44.678 305.903 44.678ZM313.491 50.754C312.735 50.754 312.343 50.306 312.343 49.536V45.966H314.331V44.776H311.223C311.993 44.776 312.343 44.23 312.343 43.642V42.802H310.831V44.776H309.613V45.966H310.831V49.732C310.831 51.202 311.559 52 313.001 52H314.345V50.754H313.491ZM326.925 44.678C325.763 44.678 324.951 45.224 324.657 46.89C324.335 45.154 323.453 44.678 322.375 44.678C321.255 44.678 320.485 45.21 320.219 46.904L320.065 44.776H318.763V52H320.275V47.786C320.275 46.568 320.905 45.924 321.871 45.924C322.865 45.924 323.383 46.554 323.383 47.688V52H324.853V47.8C324.853 46.652 325.413 45.924 326.435 45.924C327.415 45.924 327.947 46.568 327.947 47.688V52H329.459V47.534C329.459 45.728 328.507 44.678 326.925 44.678ZM337.865 48.29C337.865 46.19 336.591 44.678 334.435 44.678C332.363 44.678 330.907 46.288 330.907 48.36C330.907 50.558 332.223 52.098 334.491 52.098C336.101 52.098 337.347 51.3 337.781 49.872H336.409C336.045 50.67 335.415 51.02 334.491 51.02C333.217 51.02 332.349 50.18 332.293 48.724H337.865V48.29ZM334.407 45.686C335.667 45.686 336.423 46.638 336.479 47.856H332.293C332.363 46.778 333.175 45.686 334.407 45.686ZM342.489 50.754C341.733 50.754 341.341 50.306 341.341 49.536V45.966H343.329V44.776H340.221C340.991 44.776 341.341 44.23 341.341 43.642V42.802H339.829V44.776H338.611V45.966H339.829V49.732C339.829 51.202 340.557 52 341.999 52H343.343V50.754H342.489ZM348.603 44.636C347.413 44.636 346.573 45.196 346.265 46.834V41.78H344.753V52H346.265V47.8C346.265 46.638 346.881 45.91 347.959 45.91C348.995 45.91 349.555 46.568 349.555 47.688V52H351.067V47.534C351.067 45.728 350.157 44.636 348.603 44.636ZM356.107 52.098C358.263 52.098 359.705 50.53 359.705 48.388C359.705 46.274 358.263 44.678 356.107 44.678C353.951 44.678 352.509 46.232 352.509 48.388C352.509 50.502 353.909 52.098 356.107 52.098ZM356.107 50.894C354.791 50.894 353.993 49.76 353.993 48.388C353.993 47.058 354.763 45.882 356.107 45.882C357.409 45.882 358.207 47.03 358.207 48.388C358.207 49.704 357.451 50.894 356.107 50.894ZM366.479 41.78V47.254C366.129 45.294 365.065 44.636 363.833 44.636C361.971 44.636 360.753 46.33 360.753 48.388C360.753 50.446 361.957 52.14 363.763 52.14C365.023 52.14 366.073 51.538 366.521 49.676L366.689 52H367.991V41.78H366.479ZM364.365 50.922C363.091 50.922 362.265 49.718 362.265 48.388C362.265 47.044 363.105 45.84 364.365 45.84C365.653 45.84 366.479 47.002 366.479 48.388C366.479 49.746 365.667 50.922 364.365 50.922Z" fill="#141414"/>
<path d="M144.75 122V134C144.75 134.398 144.908 134.779 145.189 135.061C145.471 135.342 145.852 135.5 146.25 135.5H161.25C161.449 135.5 161.64 135.421 161.78 135.28C161.921 135.14 162 134.949 162 134.75V124.25C162 124.051 161.921 123.86 161.78 123.72C161.64 123.579 161.449 123.5 161.25 123.5H146.25C145.852 123.5 145.471 123.342 145.189 123.061C144.908 122.779 144.75 122.398 144.75 122ZM144.75 122C144.75 121.602 144.908 121.221 145.189 120.939C145.471 120.658 145.852 120.5 146.25 120.5H159" stroke="#7234F5" stroke-width="1.5" stroke-linecap="round" stroke-linejoin="round"/>
<path d="M157.875 130.438C158.393 130.438 158.812 130.018 158.812 129.5C158.812 128.982 158.393 128.562 157.875 128.562C157.357 128.562 156.938 128.982 156.938 129.5C156.938 130.018 157.357 130.438 157.875 130.438Z" fill="#7234F5"/>
<path d="M187.768 121.3L184.568 131.828L181.448 121.3H178.248V132.5H179.928V122.052L183.176 132.5H185.928L189.192 121.988V132.5H190.872V121.3H187.768ZM199.421 124.244L199.229 126.932C198.829 124.82 197.741 124.084 196.157 124.084C193.965 124.084 192.717 125.988 192.717 128.372C192.717 130.708 193.917 132.66 196.157 132.66C197.741 132.66 198.845 131.94 199.309 129.844L199.501 132.5H200.989V124.244H199.421ZM196.845 131.236C195.389 131.236 194.445 129.892 194.445 128.372C194.445 126.836 195.405 125.508 196.845 125.508C198.317 125.508 199.261 126.788 199.261 128.372C199.261 129.924 198.333 131.236 196.845 131.236ZM204.606 122.772C205.166 122.772 205.566 122.468 205.566 121.876C205.566 121.284 205.166 120.964 204.606 120.964C204.062 120.964 203.646 121.284 203.646 121.876C203.646 122.468 204.062 122.772 204.606 122.772ZM205.47 124.244H202.35V125.604H203.742V132.5H205.47V124.244ZM212.032 124.132C210.784 124.132 209.776 124.772 209.456 126.692L209.296 124.244H207.792V132.5H209.52V127.7C209.52 126.372 210.224 125.54 211.456 125.54C212.64 125.54 213.28 126.292 213.28 127.572V132.5H215.008V127.396C215.008 125.332 213.984 124.132 212.032 124.132ZM233.1 121.3L231.052 131.06L228.828 121.3H226.044L223.82 131.028L221.788 121.3H219.852L222.38 132.5H225.084L227.436 122.596L229.804 132.5H232.492L235.036 121.3H233.1ZM242.14 124.244L241.948 126.932C241.548 124.82 240.46 124.084 238.876 124.084C236.684 124.084 235.436 125.988 235.436 128.372C235.436 130.708 236.636 132.66 238.876 132.66C240.46 132.66 241.564 131.94 242.028 129.844L242.22 132.5H243.708V124.244H242.14ZM239.564 131.236C238.108 131.236 237.164 129.892 237.164 128.372C237.164 126.836 238.124 125.508 239.564 125.508C241.036 125.508 241.98 126.788 241.98 128.372C241.98 129.924 241.052 131.236 239.564 131.236ZM246.028 132.5H247.756V120.82H246.028V132.5ZM250.153 132.5H251.881V120.82H250.153V132.5ZM261.638 128.26C261.638 125.86 260.182 124.132 257.718 124.132C255.35 124.132 253.686 125.972 253.686 128.34C253.686 130.852 255.19 132.612 257.782 132.612C259.622 132.612 261.046 131.7 261.542 130.068H259.974C259.558 130.98 258.838 131.38 257.782 131.38C256.326 131.38 255.334 130.42 255.27 128.756H261.638V128.26ZM257.686 125.284C259.126 125.284 259.99 126.372 260.054 127.764H255.27C255.35 126.532 256.278 125.284 257.686 125.284ZM266.923 131.076C266.059 131.076 265.611 130.564 265.611 129.684V125.604H267.883V124.244H264.331C265.211 124.244 265.611 123.62 265.611 122.948V121.988H263.883V124.244H262.491V125.604H263.883V129.908C263.883 131.588 264.715 132.5 266.363 132.5H267.899V131.076H266.923Z" fill="#141414"/>
<path d="M468 120.5L475.5 128L468 135.5" stroke="#141414" stroke-width="1.5" stroke-linecap="round" stroke-linejoin="round"/>
<path d="M141 164H483" stroke="#F2F2F2"/>
<path d="M143.25 197H162.75L153 191L143.25 197Z" stroke="#7234F5" stroke-width="1.5" stroke-linecap="round" stroke-linejoin="round"/>
<path d="M146.25 197V204.5" stroke="#7234F5" stroke-width="1.5" stroke-linecap="round" stroke-linejoin="round"/>
<path d="M150.75 197V204.5" stroke="#7234F5" stroke-width="1.5" stroke-linecap="round" stroke-linejoin="round"/>
<path d="M155.25 197V204.5" stroke="#7234F5" stroke-width="1.5" stroke-linecap="round" stroke-linejoin="round"/>
<path d="M159.75 197V204.5" stroke="#7234F5" stroke-width="1.5" stroke-linecap="round" stroke-linejoin="round"/>
<path d="M144 204.5H162" stroke="#7234F5" stroke-width="1.5" stroke-linecap="round" stroke-linejoin="round"/>
<path d="M142.5 207.5H163.5" stroke="#7234F5" stroke-width="1.5" stroke-linecap="round" stroke-linejoin="round"/>
<path d="M182.968 198.692C185.832 198.692 186.696 197.444 186.696 195.924C186.696 194.388 185.4 193.3 183.336 193.3H178.248V204.5H183.336C185.72 204.5 187.16 203.332 187.16 201.524C187.16 199.78 185.864 198.692 182.968 198.692ZM182.936 194.708C184.184 194.708 184.952 195.348 184.952 196.324C184.952 197.316 184.152 198.02 182.952 198.02H179.976V194.708H182.936ZM183.16 203.076H179.976V199.412H183.176C184.6 199.412 185.432 200.148 185.432 201.188C185.432 202.372 184.616 203.076 183.16 203.076ZM195.14 196.244L194.948 198.932C194.548 196.82 193.46 196.084 191.876 196.084C189.684 196.084 188.436 197.988 188.436 200.372C188.436 202.708 189.636 204.66 191.876 204.66C193.46 204.66 194.564 203.94 195.028 201.844L195.22 204.5H196.708V196.244H195.14ZM192.564 203.236C191.108 203.236 190.164 201.892 190.164 200.372C190.164 198.836 191.124 197.508 192.564 197.508C194.036 197.508 194.98 198.788 194.98 200.372C194.98 201.924 194.052 203.236 192.564 203.236ZM203.188 196.132C201.94 196.132 200.932 196.772 200.612 198.692L200.452 196.244H198.948V204.5H200.676V199.7C200.676 198.372 201.38 197.54 202.612 197.54C203.796 197.54 204.436 198.292 204.436 199.572V204.5H206.164V199.396C206.164 197.332 205.14 196.132 203.188 196.132ZM215.939 204.5L211.795 200.148L215.875 196.244H213.891L210.051 199.86V192.82H208.323V204.5H210.051V200.276L214.019 204.5H215.939ZM229.079 204.5H230.919L226.887 193.3H224.199L220.167 204.5H222.007L222.903 201.844H228.183L229.079 204.5ZM223.399 200.356L225.543 193.972L227.687 200.356H223.399ZM235.876 196.132C233.46 196.132 231.796 197.956 231.796 200.372C231.796 202.74 233.412 204.612 235.876 204.612C237.892 204.612 239.38 203.476 239.684 201.604H238.052C237.732 202.628 236.98 203.236 235.891 203.236C234.42 203.236 233.492 201.924 233.492 200.372C233.492 198.82 234.42 197.508 235.891 197.508C236.98 197.508 237.732 198.116 238.052 199.14H239.684C239.38 197.284 237.908 196.132 235.876 196.132ZM245.063 196.132C242.647 196.132 240.983 197.956 240.983 200.372C240.983 202.74 242.599 204.612 245.063 204.612C247.079 204.612 248.567 203.476 248.871 201.604H247.239C246.919 202.628 246.167 203.236 245.079 203.236C243.607 203.236 242.679 201.924 242.679 200.372C242.679 198.82 243.607 197.508 245.079 197.508C246.167 197.508 246.919 198.116 247.239 199.14H248.871C248.567 197.284 247.095 196.132 245.063 196.132ZM254.283 204.612C256.747 204.612 258.395 202.82 258.395 200.372C258.395 197.956 256.747 196.132 254.283 196.132C251.819 196.132 250.171 197.908 250.171 200.372C250.171 202.788 251.771 204.612 254.283 204.612ZM254.283 203.236C252.779 203.236 251.867 201.94 251.867 200.372C251.867 198.852 252.747 197.508 254.283 197.508C255.771 197.508 256.683 198.82 256.683 200.372C256.683 201.876 255.819 203.236 254.283 203.236ZM265.432 196.244V201.06C265.432 202.372 264.76 203.204 263.56 203.204C262.392 203.204 261.752 202.468 261.752 201.172V196.244H260.024V201.332C260.024 203.412 261.032 204.612 262.888 204.612C264.184 204.612 265.144 203.988 265.512 202.02L265.672 204.5H267.16V196.244H265.432ZM273.641 196.132C272.393 196.132 271.385 196.772 271.065 198.692L270.905 196.244H269.401V204.5H271.129V199.7C271.129 198.372 271.833 197.54 273.065 197.54C274.249 197.54 274.889 198.292 274.889 199.572V204.5H276.617V199.396C276.617 197.332 275.593 196.132 273.641 196.132ZM282.313 203.076C281.449 203.076 281.001 202.564 281.001 201.684V197.604H283.273V196.244H279.721C280.601 196.244 281.001 195.62 281.001 194.948V193.988H279.273V196.244H277.881V197.604H279.273V201.908C279.273 203.588 280.105 204.5 281.753 204.5H283.289V203.076H282.313Z" fill="#141414"/>
<path d="M468 192.5L475.5 200L468 207.5" stroke="#141414" stroke-width="1.5" stroke-linecap="round" stroke-linejoin="round"/>
<path d="M141 236H483" stroke="#F2F2F2"/>
<path d="M164.638 274.903C163.036 281.331 156.524 285.244 150.095 283.641C143.668 282.038 139.756 275.526 141.359 269.098C142.961 262.669 149.473 258.756 155.9 260.359C162.329 261.962 166.241 268.474 164.638 274.903L164.638 274.903H164.638Z" fill="#50AF95"/>
<path fill-rule="evenodd" clip-rule="evenodd" d="M154.518 273.36C154.434 273.367 153.995 273.393 153.017 273.393C152.239 273.393 151.687 273.37 151.493 273.36C148.488 273.228 146.244 272.705 146.244 272.078C146.244 271.452 148.488 270.929 151.493 270.795V272.839C151.69 272.853 152.253 272.887 153.031 272.887C153.964 272.887 154.431 272.848 154.516 272.84V270.797C157.515 270.93 159.754 271.453 159.754 272.078C159.754 272.704 157.516 273.227 154.516 273.36L154.518 273.36ZM154.518 270.585V268.756H158.704V265.966H147.308V268.756H151.493V270.584C148.091 270.741 145.533 271.415 145.533 272.222C145.533 273.029 148.091 273.703 151.493 273.86V279.721H154.518V273.857C157.912 273.701 160.466 273.028 160.466 272.221C160.466 271.415 157.914 270.741 154.518 270.584L154.518 270.585Z" fill="white"/>
<path d="M178.216 272.1C178.216 274.9 180.008 276.612 182.84 276.612C185.624 276.612 187.464 274.932 187.464 272.1V265.3H185.688V272.068C185.688 273.988 184.6 275.076 182.84 275.076C181.08 275.076 179.992 274.02 179.992 272.068V265.3H178.216V272.1ZM194 276.612C196.416 276.612 198.304 275.316 198.304 273.14C198.304 271.444 197.392 270.548 195.568 270.196L192.784 269.652C191.776 269.444 191.36 268.996 191.36 268.132C191.36 267.092 192.384 266.532 193.808 266.532C195.136 266.532 196.048 267.092 196.304 268.324H198C197.744 266.276 196.224 265.188 193.84 265.188C191.6 265.188 189.632 266.228 189.632 268.244C189.632 269.908 190.544 270.692 192.288 271.044L194.896 271.572C196.032 271.796 196.576 272.372 196.576 273.348C196.576 274.5 195.536 275.252 194.032 275.252C192.432 275.252 191.44 274.564 191.12 273.204H189.408C189.76 275.428 191.472 276.612 194 276.612ZM204.405 265.3H200.357V276.5H204.405C207.861 276.5 210.165 274.212 210.165 270.9C210.165 267.62 207.909 265.3 204.405 265.3ZM204.149 274.996H202.101V266.804H204.149C206.805 266.804 208.389 268.404 208.389 270.9C208.389 273.348 206.805 274.996 204.149 274.996ZM220.147 265.3H211.123V266.836H214.755V276.5H216.531V266.836H220.147V265.3ZM237.788 265.3L235.74 275.06L233.516 265.3H230.732L228.508 275.028L226.476 265.3H224.54L227.068 276.5H229.772L232.124 266.596L234.492 276.5H237.18L239.724 265.3H237.788ZM246.828 268.244L246.636 270.932C246.236 268.82 245.148 268.084 243.564 268.084C241.372 268.084 240.124 269.988 240.124 272.372C240.124 274.708 241.324 276.66 243.564 276.66C245.148 276.66 246.252 275.94 246.716 273.844L246.908 276.5H248.396V268.244H246.828ZM244.252 275.236C242.796 275.236 241.852 273.892 241.852 272.372C241.852 270.836 242.812 269.508 244.252 269.508C245.724 269.508 246.668 270.788 246.668 272.372C246.668 273.924 245.74 275.236 244.252 275.236ZM250.716 276.5H252.444V264.82H250.716V276.5ZM254.841 276.5H256.569V264.82H254.841V276.5ZM266.326 272.26C266.326 269.86 264.87 268.132 262.406 268.132C260.038 268.132 258.374 269.972 258.374 272.34C258.374 274.852 259.878 276.612 262.47 276.612C264.31 276.612 265.734 275.7 266.23 274.068H264.662C264.246 274.98 263.526 275.38 262.47 275.38C261.014 275.38 260.022 274.42 259.958 272.756H266.326V272.26ZM262.374 269.284C263.814 269.284 264.678 270.372 264.742 271.764H259.958C260.038 270.532 260.966 269.284 262.374 269.284ZM271.61 275.076C270.746 275.076 270.298 274.564 270.298 273.684V269.604H272.57V268.244H269.018C269.898 268.244 270.298 267.62 270.298 266.948V265.988H268.57V268.244H267.178V269.604H268.57V273.908C268.57 275.588 269.402 276.5 271.05 276.5H272.586V275.076H271.61Z" fill="#141414"/>
<path d="M468 264.5L475.5 272L468 279.5" stroke="#141414" stroke-width="1.5" stroke-linecap="round" stroke-linejoin="round"/>
<rect x="114.5" y="2.5" width="395" height="332" rx="22.5" stroke="#7234F5" stroke-opacity="0.1" stroke-width="5"/>
<path d="M357.693 277.899L371.547 272.285L372.594 274.79C398.293 273.988 426.119 294.947 439.703 327.757C453.287 360.566 448.333 394.806 429.453 412.074L430.49 414.579L416.638 420.193C387.625 431.95 350.92 409.63 334.641 370.335C318.361 331.04 328.683 289.658 357.693 277.899Z" fill="#48A98E" stroke="#141414" stroke-width="0.5"/>
<path d="M348.468 364.728C332.194 325.435 342.519 284.05 371.532 272.291C400.544 260.532 437.256 282.853 453.531 322.146C469.806 361.44 459.481 402.825 430.468 414.584C401.456 426.343 364.743 404.022 348.468 364.728Z" fill="#50AF95" stroke="#141414" stroke-width="0.5"/>
<path d="M413.133 411.454L413.134 411.454C418.243 411.606 423.327 410.701 428.061 408.796C440.164 403.889 448.975 392.679 452.84 377.189C456.875 361.014 455.047 342.307 447.678 324.511C441.709 310.1 432.726 297.766 421.704 288.843L421.703 288.842C411.349 280.448 399.68 275.686 388.876 275.4L388.875 275.4C383.762 275.247 378.673 276.152 373.935 278.058C361.832 282.965 353.024 294.175 349.159 309.665C345.124 325.84 346.951 344.547 354.321 362.343C360.29 376.754 369.273 389.085 380.292 398.024C390.65 406.416 402.318 411.178 413.133 411.454Z" fill="#50AF95" stroke="#141414" stroke-width="0.5"/>
<path d="M446.134 376.405C450.046 360.645 446.555 343.45 439.417 326.128C432.279 308.806 423.102 296.084 409.191 287.583C396.681 279.939 385.196 275.63 373.927 279.384C374.607 279.055 375.298 278.744 376.001 278.46C387.751 273.673 400.922 277.229 414.228 285.357C428.136 293.856 438.998 308.079 446.136 325.401C453.274 342.722 455.082 360.65 451.168 376.405C447.426 391.48 440.222 402.675 428.472 407.459C427.768 407.747 426.7 408.01 425.983 408.247C436.665 403.065 442.604 390.578 446.134 376.405Z" fill="#48A98E"/>
<path fill-rule="evenodd" clip-rule="evenodd" d="M393.715 354.452C394.127 354.448 396.244 354.398 400.851 354.037C404.515 353.749 407.07 353.445 407.964 353.334C421.863 351.656 431.399 348.582 430.163 345.895C428.928 343.207 417.329 341.795 402.904 342.33L406.936 351.098C406.038 351.232 403.453 351.582 399.789 351.87C395.392 352.215 393.114 352.221 392.702 352.219L388.671 343.453C374.806 345.135 365.293 348.207 366.526 350.888C367.758 353.569 379.332 354.987 393.727 354.448L393.715 354.452ZM388.255 342.549L384.648 334.706L364.937 336.252L359.436 324.292L413.104 320.081L418.604 332.041L398.896 333.588L402.502 341.428C418.829 340.841 432.204 342.785 433.796 346.248C435.389 349.71 424.669 353.542 408.96 355.472L420.518 380.606L406.273 381.724L394.711 356.58C378.42 357.164 365.066 355.222 363.476 351.762C361.885 348.303 372.574 344.474 388.257 342.546L388.255 342.549Z" fill="#48A98E"/>
<path fill-rule="evenodd" clip-rule="evenodd" d="M400.408 347.748C400.82 347.744 402.937 347.694 407.543 347.333C411.207 347.045 413.762 346.741 414.657 346.63C428.555 344.952 438.092 341.878 436.856 339.191C435.62 336.504 424.021 335.092 409.597 335.626L413.629 344.395C412.731 344.528 410.145 344.879 406.481 345.166C402.085 345.511 399.806 345.517 399.394 345.515L395.364 336.75C381.498 338.431 371.985 341.503 373.218 344.184C374.451 346.866 386.025 348.283 400.42 347.744L400.408 347.748ZM394.948 335.845L391.341 328.002L371.629 329.549L366.129 317.588L419.797 313.377L425.297 325.338L405.589 326.884L409.194 334.724C425.521 334.137 438.897 336.082 440.489 339.544C442.081 343.006 431.362 346.838 415.652 348.768L427.21 373.902L412.966 375.02L401.404 349.877C385.113 350.461 371.759 348.518 370.168 345.059C368.577 341.599 379.267 337.77 394.95 335.842L394.948 335.845Z" fill="white"/>
<path d="M407.543 347.333L407.647 347.56L407.543 347.333ZM409.597 335.626L409.348 335.646L409.238 335.408L409.504 335.399L409.597 335.626ZM413.629 344.395L413.878 344.375L413.975 344.587L413.751 344.62L413.629 344.395ZM399.394 345.515L399.475 345.743L399.241 345.742L399.145 345.534L399.394 345.515ZM395.364 336.75L395.249 336.523L395.504 336.492L395.613 336.73L395.364 336.75ZM394.948 335.845L395.198 335.992L394.951 336.413L394.699 335.865L394.948 335.845ZM391.341 328.002L391.237 327.775L391.486 327.755L391.59 327.982L391.341 328.002ZM371.629 329.549L371.734 329.776L371.485 329.795L371.38 329.568L371.629 329.549ZM366.129 317.588L365.88 317.608L365.775 317.38L366.025 317.361L366.129 317.588ZM419.797 313.377L419.692 313.15L419.942 313.13L420.046 313.357L419.797 313.377ZM425.297 325.338L425.546 325.318L425.651 325.545L425.401 325.565L425.297 325.338ZM405.589 326.884L405.339 326.904L405.235 326.676L405.484 326.657L405.589 326.884ZM409.194 334.724L409.287 334.952L409.045 334.961L408.945 334.744L409.194 334.724ZM415.652 348.768L415.403 348.788L415.303 348.571L415.536 348.542L415.652 348.768ZM427.21 373.902L427.459 373.882L427.564 374.11L427.315 374.129L427.21 373.902ZM412.966 375.02L413.07 375.247L412.821 375.267L412.717 375.039L412.966 375.02ZM401.404 349.877L401.311 349.649L401.553 349.64L401.653 349.857L401.404 349.877ZM400.322 347.52C400.726 347.516 402.836 347.467 407.439 347.106L407.647 347.56C403.037 347.922 400.914 347.972 400.493 347.976L400.322 347.52ZM407.439 347.106C411.098 346.819 413.649 346.515 414.541 346.404L414.773 346.856C413.876 346.967 411.316 347.272 407.647 347.56L407.439 347.106ZM414.542 346.404C421.482 345.566 427.324 344.38 431.272 343.073C433.248 342.418 434.737 341.737 435.653 341.06C436.111 340.722 436.416 340.392 436.572 340.076C436.727 339.761 436.728 339.474 436.607 339.211L437.105 339.171C437.293 339.58 437.266 339.977 437.082 340.351C436.898 340.724 436.553 341.088 436.073 341.442C435.114 342.15 433.582 342.846 431.591 343.505C427.606 344.826 421.73 346.016 414.772 346.856L414.542 346.404ZM436.607 339.211C436.486 338.947 436.23 338.68 435.806 338.411C435.381 338.141 434.804 337.88 434.077 337.634C432.624 337.144 430.634 336.736 428.215 336.426C423.381 335.807 416.893 335.587 409.69 335.854L409.504 335.399C416.725 335.131 423.249 335.35 428.129 335.975C430.567 336.287 432.61 336.703 434.13 337.216C434.89 337.473 435.535 337.759 436.036 338.078C436.54 338.398 436.917 338.763 437.105 339.171L436.607 339.211ZM409.846 335.607L413.878 344.375L413.38 344.414L409.348 335.646L409.846 335.607ZM413.751 344.62C412.848 344.754 410.256 345.105 406.586 345.393L406.377 344.939C410.034 344.652 412.614 344.302 413.507 344.17L413.751 344.62ZM406.586 345.393C402.182 345.739 399.896 345.745 399.475 345.743L399.314 345.287C399.717 345.289 401.987 345.283 406.377 344.939L406.586 345.393ZM399.145 345.534L395.115 336.769L395.613 336.73L399.644 345.495L399.145 345.534ZM395.479 336.976C388.555 337.815 382.727 339.001 378.789 340.309C376.818 340.963 375.332 341.643 374.419 342.319C373.962 342.656 373.657 342.986 373.502 343.302C373.347 343.616 373.347 343.902 373.467 344.165L372.969 344.204C372.781 343.796 372.808 343.4 372.992 343.027C373.175 342.654 373.52 342.291 373.998 341.938C374.954 341.231 376.483 340.535 378.469 339.876C382.445 338.556 388.307 337.366 395.249 336.523L395.479 336.976ZM373.467 344.165C373.588 344.427 373.843 344.694 374.265 344.963C374.69 345.233 375.266 345.493 375.991 345.738C377.44 346.228 379.426 346.636 381.84 346.946C386.664 347.565 393.138 347.785 400.326 347.516L400.513 347.972C393.306 348.242 386.796 348.022 381.926 347.397C379.493 347.085 377.455 346.67 375.937 346.157C375.179 345.9 374.536 345.615 374.035 345.296C373.533 344.976 373.156 344.612 372.969 344.204L373.467 344.165ZM400.581 347.96L400.569 347.964L400.246 347.532L400.258 347.528L400.581 347.96ZM394.699 335.865L391.092 328.022L391.59 327.982L395.197 335.826L394.699 335.865ZM391.445 328.229L371.734 329.776L371.525 329.321L391.237 327.775L391.445 328.229ZM371.38 329.568L365.88 317.608L366.378 317.568L371.878 329.529L371.38 329.568ZM366.025 317.361L419.692 313.15L419.901 313.604L366.233 317.815L366.025 317.361ZM420.046 313.357L425.546 325.318L425.048 325.357L419.548 313.397L420.046 313.357ZM425.401 325.565L405.693 327.111L405.484 326.657L425.193 325.11L425.401 325.565ZM405.838 326.864L409.443 334.705L408.945 334.744L405.339 326.904L405.838 326.864ZM409.101 334.497C417.276 334.203 424.722 334.542 430.332 335.391C433.135 335.816 435.495 336.37 437.264 337.044C439.015 337.71 440.282 338.532 440.738 339.524L440.24 339.564C439.9 338.825 438.898 338.105 437.183 337.452C435.486 336.806 433.184 336.261 430.403 335.84C424.845 334.999 417.439 334.659 409.287 334.952L409.101 334.497ZM440.738 339.524C441.195 340.517 440.745 341.473 439.708 342.358C438.66 343.253 436.956 344.126 434.725 344.945C430.259 346.584 423.633 348.028 415.768 348.994L415.536 348.542C423.381 347.578 429.969 346.141 434.393 344.516C436.606 343.704 438.265 342.849 439.27 341.991C440.286 341.123 440.579 340.302 440.24 339.564L440.738 339.524ZM415.901 348.748L427.459 373.882L426.961 373.922L415.403 348.788L415.901 348.748ZM427.315 374.129L413.07 375.247L412.862 374.793L427.106 373.675L427.315 374.129ZM412.717 375.039L401.154 349.896L401.653 349.857L413.215 375L412.717 375.039ZM401.496 350.104C393.34 350.397 385.909 350.057 380.309 349.208C377.511 348.784 375.155 348.23 373.388 347.557C371.64 346.891 370.375 346.07 369.919 345.078L370.417 345.039C370.757 345.777 371.757 346.496 373.47 347.149C375.164 347.794 377.462 348.339 380.238 348.759C385.786 349.601 393.177 349.94 401.311 349.649L401.496 350.104ZM369.919 345.078C369.463 344.086 369.911 343.131 370.945 342.247C371.99 341.352 373.69 340.48 375.915 339.662C380.37 338.024 386.982 336.581 394.834 335.616L395.065 336.068C387.235 337.031 380.66 338.467 376.247 340.09C374.039 340.902 372.385 341.757 371.383 342.614C370.37 343.48 370.078 344.301 370.417 345.039L369.919 345.078ZM395.2 335.989L395.198 335.992L394.698 335.698L394.7 335.695L395.2 335.989Z" fill="#141414"/>
<g filter="url(#filter0_f_1114_2864)">
<path d="M606.09 319.106L600.994 321.171L600.609 320.25C591.156 320.545 580.922 312.835 575.925 300.768C570.929 288.7 572.751 276.106 579.695 269.754L579.314 268.833L584.409 266.768C595.08 262.444 608.581 270.653 614.569 285.107C620.557 299.56 616.76 314.781 606.09 319.106Z" fill="#48A98E" stroke="#141414" stroke-width="0.5"/>
<path d="M609.483 287.169C615.469 301.621 611.671 316.844 601 321.169C590.329 325.494 576.825 317.284 570.839 302.831C564.853 288.378 568.651 273.156 579.322 268.831C589.993 264.506 603.497 272.716 609.483 287.169Z" fill="#50AF95" stroke="#141414" stroke-width="0.5"/>
<path d="M585.694 270.141L585.693 270.14C583.836 270.085 581.987 270.414 580.266 271.107C575.872 272.888 572.659 276.964 571.247 282.624C569.772 288.536 570.438 295.382 573.138 301.901C575.325 307.18 578.614 311.694 582.645 314.958L582.645 314.958C586.433 318.029 590.693 319.763 594.625 319.867L594.626 319.867C596.484 319.923 598.334 319.594 600.057 318.901C604.451 317.12 607.663 313.044 609.076 307.384C610.55 301.472 609.884 294.626 607.184 288.107C604.998 282.828 601.709 278.315 597.678 275.045C593.889 271.975 589.63 270.241 585.694 270.141Z" fill="#50AF95" stroke="#141414" stroke-width="0.5"/>
<path d="M573.56 282.874C572.121 288.671 573.405 294.995 576.03 301.367C578.656 307.738 582.032 312.417 587.148 315.544C591.749 318.356 595.974 319.941 600.119 318.56C599.868 318.681 599.614 318.795 599.356 318.9C595.034 320.66 590.19 319.353 585.295 316.363C580.18 313.237 576.184 308.006 573.559 301.634C570.934 295.263 570.269 288.669 571.708 282.874C573.085 277.329 575.735 273.211 580.056 271.452C580.315 271.346 580.708 271.249 580.972 271.162C577.043 273.068 574.858 277.661 573.56 282.874Z" fill="#48A98E"/>
<path fill-rule="evenodd" clip-rule="evenodd" d="M592.84 290.949C592.689 290.95 591.91 290.969 590.216 291.101C588.868 291.207 587.928 291.319 587.599 291.36C582.487 291.977 578.98 293.108 579.434 294.096C579.889 295.085 584.155 295.604 589.46 295.407L587.977 292.182C588.308 292.133 589.259 292.004 590.606 291.898C592.224 291.772 593.062 291.769 593.213 291.77L594.695 294.994C599.795 294.376 603.295 293.246 602.841 292.26C602.388 291.273 598.131 290.752 592.836 290.95L592.84 290.949ZM594.849 295.327L596.175 298.212L603.426 297.643L605.449 302.042L585.709 303.591L583.686 299.192L590.935 298.623L589.609 295.739C583.603 295.955 578.684 295.24 578.098 293.966C577.512 292.693 581.455 291.283 587.233 290.574L582.982 281.329L588.221 280.918L592.474 290.166C598.466 289.951 603.378 290.665 603.963 291.938C604.548 293.21 600.616 294.619 594.848 295.328L594.849 295.327Z" fill="#48A98E"/>
<path fill-rule="evenodd" clip-rule="evenodd" d="M590.379 293.414C590.227 293.416 589.449 293.434 587.754 293.567C586.407 293.673 585.467 293.785 585.138 293.826C580.026 294.443 576.518 295.574 576.972 296.562C577.427 297.55 581.693 298.07 586.999 297.873L585.516 294.648C585.846 294.599 586.797 294.47 588.145 294.364C589.762 294.237 590.6 294.235 590.751 294.236L592.234 297.46C597.334 296.841 600.833 295.711 600.38 294.725C599.926 293.739 595.669 293.218 590.374 293.416L590.379 293.414ZM592.387 297.792L593.714 300.677L600.964 300.109L602.987 304.508L583.247 306.057L581.224 301.657L588.473 301.089L587.147 298.205C581.142 298.421 576.222 297.706 575.636 296.432C575.051 295.159 578.993 293.749 584.772 293.039L580.52 283.795L585.76 283.383L590.012 292.632C596.004 292.417 600.916 293.131 601.501 294.404C602.086 295.676 598.155 297.085 592.386 297.794L592.387 297.792Z" fill="white"/>
<path d="M586.999 297.873L587.248 297.853L587.357 298.091L587.092 298.101L586.999 297.873ZM585.516 294.648L585.267 294.668L585.169 294.456L585.394 294.423L585.516 294.648ZM590.751 294.236L590.67 294.008L590.905 294.009L591.001 294.216L590.751 294.236ZM592.234 297.46L592.349 297.686L592.094 297.717L591.985 297.48L592.234 297.46ZM592.387 297.792L592.137 297.646L592.384 297.225L592.636 297.773L592.387 297.792ZM593.714 300.677L593.818 300.905L593.569 300.924L593.464 300.697L593.714 300.677ZM600.964 300.109L600.86 299.881L601.109 299.862L601.213 300.089L600.964 300.109ZM602.987 304.508L603.236 304.488L603.341 304.715L603.091 304.735L602.987 304.508ZM583.247 306.057L583.351 306.284L583.102 306.303L582.998 306.076L583.247 306.057ZM581.224 301.657L580.975 301.677L580.87 301.45L581.12 301.43L581.224 301.657ZM588.473 301.089L588.722 301.069L588.827 301.296L588.577 301.316L588.473 301.089ZM587.147 298.205L587.054 297.977L587.296 297.968L587.396 298.185L587.147 298.205ZM584.772 293.039L585.021 293.02L585.121 293.237L584.887 293.265L584.772 293.039ZM580.52 283.795L580.271 283.814L580.167 283.587L580.416 283.567L580.52 283.795ZM585.76 283.383L585.655 283.156L585.904 283.137L586.009 283.364L585.76 283.383ZM590.012 292.632L590.105 292.859L589.863 292.868L589.763 292.651L590.012 292.632ZM590.464 293.642C590.321 293.644 589.549 293.662 587.859 293.794L587.65 293.34C589.348 293.207 590.133 293.188 590.293 293.186L590.464 293.642ZM587.859 293.794C586.516 293.9 585.58 294.011 585.254 294.052L585.022 293.6C585.353 293.559 586.297 293.446 587.65 293.34L587.859 293.794ZM585.253 294.052C582.706 294.359 580.568 294.794 579.127 295.271C578.405 295.51 577.871 295.756 577.548 295.995C577.386 296.114 577.287 296.225 577.238 296.324C577.19 296.42 577.198 296.491 577.222 296.542L576.723 296.582C576.633 296.385 576.651 296.205 576.728 296.048C576.805 295.893 576.944 295.749 577.127 295.614C577.494 295.343 578.071 295.083 578.808 294.838C580.286 294.349 582.457 293.909 585.022 293.6L585.253 294.052ZM577.222 296.542C577.245 296.593 577.301 296.66 577.431 296.743C577.564 296.827 577.755 296.916 578.011 297.002C578.524 297.175 579.239 297.323 580.123 297.436C581.887 297.662 584.262 297.743 586.906 297.645L587.092 298.101C584.43 298.2 582.019 298.119 580.21 297.887C579.307 297.772 578.539 297.617 577.958 297.421C577.668 297.323 577.41 297.21 577.201 297.077C576.991 296.943 576.814 296.778 576.723 296.582L577.222 296.542ZM586.75 297.893L585.267 294.668L585.765 294.628L587.248 297.853L586.75 297.893ZM585.394 294.423C585.729 294.373 586.686 294.243 588.04 294.137L588.249 294.591C586.908 294.697 585.963 294.825 585.638 294.873L585.394 294.423ZM588.04 294.137C589.664 294.01 590.51 294.007 590.67 294.008L590.832 294.464C590.69 294.463 589.859 294.465 588.249 294.591L588.04 294.137ZM591.001 294.216L592.483 297.44L591.985 297.48L590.502 294.256L591.001 294.216ZM592.119 297.234C594.66 296.926 596.793 296.491 598.229 296.014C598.95 295.775 599.482 295.53 599.805 295.291C599.966 295.172 600.066 295.061 600.114 294.963C600.162 294.866 600.154 294.795 600.13 294.745L600.629 294.706C600.719 294.902 600.701 295.082 600.624 295.238C600.548 295.393 600.408 295.537 600.226 295.672C599.86 295.942 599.285 296.203 598.549 296.447C597.075 296.936 594.908 297.376 592.349 297.686L592.119 297.234ZM600.13 294.745C600.107 294.694 600.052 294.627 599.921 294.544C599.789 294.46 599.599 294.372 599.343 294.286C598.831 294.113 598.117 293.965 597.235 293.852C595.476 293.626 593.105 293.545 590.468 293.644L590.281 293.188C592.938 293.089 595.343 293.169 597.149 293.401C598.05 293.517 598.817 293.672 599.396 293.868C599.686 293.966 599.943 294.079 600.152 294.211C600.362 294.345 600.539 294.51 600.629 294.706L600.13 294.745ZM590.213 293.2L590.217 293.199L590.54 293.63L590.536 293.632L590.213 293.2ZM592.636 297.773L593.963 300.658L593.464 300.697L592.138 297.812L592.636 297.773ZM593.609 300.45L600.86 299.881L601.068 300.336L593.818 300.905L593.609 300.45ZM601.213 300.089L603.236 304.488L602.738 304.528L600.715 300.128L601.213 300.089ZM603.091 304.735L583.351 306.284L583.143 305.83L602.883 304.281L603.091 304.735ZM582.998 306.076L580.975 301.677L581.473 301.638L583.496 306.037L582.998 306.076ZM581.12 301.43L588.369 300.861L588.577 301.316L581.328 301.885L581.12 301.43ZM588.224 301.108L586.898 298.224L587.396 298.185L588.722 301.069L588.224 301.108ZM587.24 298.433C584.226 298.541 581.475 298.416 579.395 298.101C578.357 297.944 577.47 297.737 576.796 297.481C576.142 297.231 575.592 296.897 575.387 296.452L575.885 296.412C575.973 296.604 576.258 296.836 576.878 297.073C577.479 297.301 578.308 297.499 579.324 297.653C581.351 297.96 584.062 298.084 587.054 297.977L587.24 298.433ZM575.387 296.452C575.182 296.006 575.397 295.612 575.785 295.281C576.184 294.94 576.825 294.613 577.652 294.31C579.307 293.702 581.756 293.17 584.656 292.813L584.887 293.265C582.009 293.619 579.597 294.146 577.983 294.738C577.175 295.035 576.579 295.344 576.223 295.648C575.856 295.962 575.797 296.221 575.885 296.412L575.387 296.452ZM584.522 293.059L580.271 283.814L580.769 283.775L585.021 293.02L584.522 293.059ZM580.416 283.567L585.655 283.156L585.864 283.611L580.625 284.022L580.416 283.567ZM586.009 283.364L590.262 292.612L589.763 292.651L585.51 283.403L586.009 283.364ZM589.92 292.404C592.927 292.296 595.673 292.421 597.749 292.736C598.785 292.893 599.67 293.099 600.343 293.356C600.997 293.605 601.546 293.939 601.75 294.384L601.252 294.423C601.164 294.232 600.88 294 600.261 293.764C599.661 293.535 598.834 293.338 597.82 293.184C595.796 292.877 593.09 292.752 590.105 292.859L589.92 292.404ZM601.75 294.384C601.955 294.829 601.741 295.223 601.354 295.554C600.956 295.895 600.317 296.221 599.492 296.524C597.841 297.132 595.397 297.664 592.502 298.02L592.271 297.568C595.144 297.214 597.55 296.688 599.16 296.096C599.967 295.799 600.561 295.49 600.916 295.187C601.282 294.874 601.34 294.614 601.252 294.423L601.75 294.384ZM592.136 297.647L592.137 297.646L592.637 297.939L592.636 297.941L592.136 297.647Z" fill="#141414"/>
</g>
<g filter="url(#filter1_f_1114_2864)">
<path d="M26.9839 59.534L25.5264 55.9369L26.1766 55.6651C25.9686 48.9928 31.4103 41.7682 39.9287 38.2413C48.4472 34.7143 57.3372 36.0006 61.8205 40.9025L62.4708 40.6334L63.9283 44.2298C66.9809 51.7625 61.1859 61.2925 50.9835 65.5191C40.7812 69.7458 30.0371 67.066 26.9839 59.534Z" fill="#48A98E" stroke="#141414" stroke-width="0.5"/>
<path d="M49.5279 61.929C39.326 66.1546 28.5808 63.4737 25.5279 55.941C22.4749 48.4084 28.2702 38.8766 38.4721 34.651C48.674 30.4255 59.4191 33.1064 62.4721 40.639C65.5251 48.1716 59.7297 57.7035 49.5279 61.929Z" fill="#50AF95" stroke="#141414" stroke-width="0.5"/>
<path d="M61.4744 45.1341L61.4744 45.1352C61.4041 47.8938 60.1879 50.8851 58.0288 53.55C55.7291 56.3848 52.5535 58.6995 48.8376 60.2386C48.8376 60.2386 48.8376 60.2386 48.8376 60.2386L48.9333 60.4696C44.3021 62.3875 39.4309 62.8643 35.2159 61.8128C31.1787 60.8056 28.2486 58.5074 26.965 55.3415L61.4744 45.1341ZM61.4744 45.1341C61.5132 43.8332 61.2827 42.5386 60.7977 41.3331C59.5507 38.258 56.6965 36.0028 52.7182 35.0103C48.5628 33.9736 43.7465 34.4412 39.157 36.3419C35.441 37.881 32.2648 40.1958 29.9691 43.0311L29.969 43.0313C27.8093 45.6954 26.593 48.6868 26.5201 51.4429L26.5201 51.4438C26.4811 52.7457 26.7116 54.0415 27.1968 55.2479L61.4744 45.1341Z" fill="#50AF95" stroke="#141414" stroke-width="0.5"/>
<path d="M52.5595 36.5717C48.4677 35.5561 44.0032 36.4624 39.5059 38.3156C35.0086 40.1689 31.7055 42.5517 29.4982 46.1633C27.5137 49.4113 26.3948 52.3933 27.3695 55.3192C27.2842 55.1424 27.2033 54.9631 27.1295 54.7806C25.8867 51.7299 26.8099 48.3103 28.9204 44.8555C31.127 41.2445 34.8196 38.4243 39.317 36.5711C43.8143 34.7178 48.4689 34.2485 52.5595 35.2647C56.4736 36.2362 59.3802 38.1067 60.6224 41.1574C60.6971 41.3401 60.7652 41.6174 60.8267 41.8035C59.4815 39.0301 56.2393 37.488 52.5595 36.5717Z" fill="#48A98E"/>
<path fill-rule="evenodd" clip-rule="evenodd" d="M46.8597 50.1813C46.8586 50.0743 46.8457 49.5247 46.7518 48.3287C46.6772 47.3774 46.5982 46.714 46.5694 46.4818C46.1337 42.8733 45.3356 40.3973 44.6379 40.7181C43.9402 41.0389 43.5736 44.0505 43.7125 47.7955L45.989 46.7486C46.0236 46.9818 46.1147 47.6531 46.1893 48.6044C46.2789 49.7459 46.2804 50.3375 46.2798 50.4444L44.0041 51.4909C44.4407 55.0908 45.2383 57.5608 45.9344 57.2407C46.6305 56.9206 46.9985 53.9156 46.8586 50.1782L46.8597 50.1813ZM43.7694 51.5991L41.733 52.5356L42.1345 57.6534L39.0291 59.0815L37.9358 45.1475L41.0412 43.7194L41.4427 48.8364L43.4783 47.9003C43.326 43.6612 43.8307 40.1884 44.7297 39.7751C45.6287 39.3617 46.6235 42.1448 47.1246 46.2236L53.6503 43.2227L53.9405 46.921L47.4124 49.923C47.564 54.1526 47.0596 57.6198 46.1615 58.0328C45.2633 58.4458 44.2691 55.6705 43.7685 51.5986L43.7694 51.5991Z" fill="#48A98E"/>
<path fill-rule="evenodd" clip-rule="evenodd" d="M45.1192 48.4438C45.1182 48.3368 45.1052 47.7872 45.0114 46.5912C44.9367 45.6399 44.8578 44.9765 44.8289 44.7443C44.3932 41.1358 43.5952 38.6597 42.8975 38.9806C42.1998 39.3014 41.8332 42.313 41.972 46.058L44.2486 45.0111C44.2832 45.2443 44.3742 45.9156 44.4488 46.8669C44.5384 48.0084 44.54 48.6 44.5394 48.7069L42.2636 49.7534C42.7003 53.3533 43.4978 55.8233 44.194 55.5032C44.8901 55.1831 45.258 52.1781 45.1182 48.4407L45.1192 48.4438ZM42.0289 49.8615L39.9925 50.798L40.394 55.9158L37.2886 57.3439L36.1953 43.4099L39.3007 41.9818L39.7022 47.0988L41.7379 46.1627C41.5855 41.9236 42.0903 38.4508 42.9892 38.0374C43.8882 37.6241 44.883 40.4072 45.3841 44.4859L51.9098 41.4851L52.2 45.1834L45.6719 48.1854C45.8235 52.415 45.3191 55.8822 44.421 56.2952C43.5228 56.7082 42.5286 53.9328 42.0281 49.861L42.0289 49.8615Z" fill="white"/>
<path d="M45.0114 46.5912L44.7842 46.6956L45.0114 46.5912ZM41.972 46.058L41.9917 46.3072L41.754 46.4165L41.7442 46.1511L41.972 46.058ZM44.2486 45.0111L44.2289 44.7619L44.4404 44.6647L44.4738 44.8892L44.2486 45.0111ZM44.4488 46.8669L44.2217 46.9713L44.4488 46.8669ZM44.5394 48.7069L44.7674 48.6259L44.7661 48.8608L44.559 48.9561L44.5394 48.7069ZM42.2636 49.7534L42.0375 49.8687L42.0065 49.6133L42.2439 49.5042L42.2636 49.7534ZM42.0289 49.8615L42.1758 49.6115L42.5964 49.8588L42.0486 50.1107L42.0289 49.8615ZM39.9925 50.798L39.7653 50.9023L39.7458 50.6532L39.9728 50.5488L39.9925 50.798ZM40.394 55.9158L40.6212 55.8115L40.6408 56.0606L40.4137 56.165L40.394 55.9158ZM37.2886 57.3439L37.3083 57.5931L37.081 57.6976L37.0615 57.4482L37.2886 57.3439ZM36.1953 43.4099L35.9681 43.5142L35.9486 43.2651L36.1756 43.1607L36.1953 43.4099ZM39.3007 41.9818L39.2811 41.7326L39.5083 41.6281L39.5279 41.8775L39.3007 41.9818ZM39.7022 47.0988L39.7219 47.348L39.4946 47.4525L39.475 47.2031L39.7022 47.0988ZM41.7379 46.1627L41.9657 46.0699L41.9744 46.3121L41.7575 46.4119L41.7379 46.1627ZM45.3841 44.4859L45.4037 44.7351L45.1867 44.8349L45.158 44.6017L45.3841 44.4859ZM51.9098 41.4851L51.8901 41.2359L52.1174 41.1314L52.137 41.3807L51.9098 41.4851ZM52.2 45.1834L52.4272 45.079L52.4467 45.3282L52.2196 45.4326L52.2 45.1834ZM45.6719 48.1854L45.4441 48.2781L45.4354 48.0359L45.6522 47.9362L45.6719 48.1854ZM44.8912 48.5292C44.8902 48.4308 44.8778 47.888 44.7842 46.6956L45.2386 46.4869C45.3327 47.6865 45.3461 48.2427 45.3472 48.3584L44.8912 48.5292ZM44.7842 46.6956C44.71 45.7492 44.6314 45.0898 44.6029 44.8603L45.0549 44.6282C45.0841 44.8632 45.1635 45.5307 45.2386 46.4869L44.7842 46.6956ZM44.6028 44.8594C44.3861 43.0642 44.0801 41.5598 43.7452 40.5487C43.5771 40.0413 43.4057 39.6706 43.2418 39.4487C43.1597 39.3376 43.0863 39.2731 43.0252 39.2431C42.9656 39.2137 42.9316 39.2231 42.9172 39.2298L42.8778 38.7314C43.0378 38.6578 43.1813 38.6744 43.3006 38.7332C43.4184 38.7912 43.5252 38.8958 43.6229 39.028C43.8184 39.2929 44.0046 39.7066 44.1777 40.2291C44.5252 41.278 44.8361 42.8158 45.055 44.6291L44.6028 44.8594ZM42.9172 39.2298C42.9027 39.2364 42.8696 39.2579 42.8185 39.3382C42.7662 39.4204 42.7077 39.5456 42.6482 39.7218C42.5293 40.0738 42.4261 40.5708 42.3465 41.1921C42.1879 42.4302 42.1308 44.1017 42.1998 45.9649L41.7442 46.1511C41.6744 44.2693 41.7311 42.5625 41.8956 41.2783C41.9775 40.6385 42.0881 40.0884 42.2298 39.6685C42.3007 39.4587 42.3841 39.2667 42.4849 39.1082C42.5869 38.9478 42.7179 38.8049 42.8778 38.7314L42.9172 39.2298ZM41.9523 45.8088L44.2289 44.7619L44.2682 45.2603L41.9917 46.3072L41.9523 45.8088ZM44.4738 44.8892C44.5091 45.1273 44.6009 45.8046 44.676 46.7626L44.2217 46.9713C44.1476 46.0267 44.0573 45.3613 44.0234 45.1331L44.4738 44.8892ZM44.676 46.7626C44.7661 47.911 44.768 48.5103 44.7674 48.6259L44.3114 48.7878C44.3119 48.6896 44.3107 48.1059 44.2217 46.9713L44.676 46.7626ZM44.559 48.9561L42.2833 50.0026L42.2439 49.5042L44.5197 48.4577L44.559 48.9561ZM42.4897 49.638C42.7069 51.429 43.013 52.9298 43.3477 53.9384C43.5157 54.4446 43.6869 54.8143 43.8506 55.0357C43.9325 55.1465 44.0058 55.2108 44.0667 55.2407C44.1262 55.27 44.16 55.2606 44.1743 55.254L44.2136 55.7524C44.0539 55.8258 43.9105 55.8092 43.7914 55.7507C43.6738 55.6928 43.5671 55.5884 43.4696 55.4565C43.2743 55.1923 43.0883 54.7795 42.9152 54.2582C42.568 53.2119 42.257 51.6777 42.0375 49.8687L42.4897 49.638ZM44.1743 55.254C44.1886 55.2474 44.2216 55.2261 44.2725 55.146C44.3247 55.064 44.3832 54.9392 44.4426 54.7634C44.5613 54.4122 44.6646 53.9163 44.7441 53.2964C44.9027 52.0611 44.9599 50.3932 44.8903 48.5339L45.346 48.3475C45.4163 50.2256 45.3595 51.9289 45.195 53.2104C45.113 53.849 45.0025 54.3979 44.8608 54.817C44.7901 55.0263 44.7067 55.218 44.606 55.3762C44.5042 55.5363 44.3733 55.6789 44.2136 55.7524L44.1743 55.254ZM45.3338 48.2791L45.3349 48.2822L44.9036 48.6054L44.9025 48.6023L45.3338 48.2791ZM42.0486 50.1107L40.0122 51.0472L39.9728 50.5488L42.0092 49.6123L42.0486 50.1107ZM40.2197 50.6936L40.6212 55.8115L40.1669 56.0202L39.7653 50.9023L40.2197 50.6936ZM40.4137 56.165L37.3083 57.5931L37.269 57.0947L40.3744 55.6666L40.4137 56.165ZM37.0615 57.4482L35.9681 43.5142L36.4225 43.3055L37.5158 57.2395L37.0615 57.4482ZM36.1756 43.1607L39.2811 41.7326L39.3204 42.231L36.215 43.659L36.1756 43.1607ZM39.5279 41.8775L39.9294 46.9944L39.475 47.2031L39.0735 42.0862L39.5279 41.8775ZM39.6826 46.8496L41.7182 45.9135L41.7575 46.4119L39.7219 47.348L39.6826 46.8496ZM41.51 46.2555C41.4334 44.1249 41.5214 42.1768 41.7449 40.7009C41.8563 39.9651 42.0037 39.3308 42.1889 38.8444C42.3669 38.3772 42.6176 37.9501 42.9695 37.7883L43.0089 38.2866C42.9113 38.3315 42.7619 38.4935 42.5971 38.9262C42.4396 39.3396 42.3018 39.916 42.1937 40.6299C41.9781 42.0535 41.8899 43.9614 41.9657 46.0699L41.51 46.2555ZM42.9695 37.7883C43.3216 37.6264 43.6196 37.8013 43.8559 38.0781C44.1018 38.3662 44.3349 38.8255 44.55 39.4112C44.9813 40.586 45.3583 42.3203 45.6101 44.3702L45.158 44.6017C44.9088 42.5729 44.5378 40.8762 44.1217 39.7431C43.913 39.1748 43.6976 38.7609 43.4885 38.516C43.2698 38.2598 43.1063 38.2418 43.0089 38.2866L42.9695 37.7883ZM45.3644 44.2368L51.8901 41.2359L51.9295 41.7342L45.4037 44.7351L45.3644 44.2368ZM52.137 41.3807L52.4272 45.079L51.9728 45.2877L51.6826 41.5894L52.137 41.3807ZM52.2196 45.4326L45.6916 48.4346L45.6522 47.9362L52.1803 44.9342L52.2196 45.4326ZM45.8997 48.0926C45.9759 50.2185 45.8879 52.1628 45.6645 53.6361C45.5531 54.3706 45.4058 55.0038 45.2207 55.4895C45.0429 55.9561 44.7923 56.3827 44.4406 56.5444L44.4013 56.046C44.4988 56.0012 44.648 55.8394 44.8126 55.4076C44.97 54.9949 45.1077 54.4195 45.2157 53.7069C45.4312 52.2859 45.5195 50.3819 45.4441 48.2781L45.8997 48.0926ZM44.4406 56.5444C44.089 56.7061 43.7912 56.5319 43.555 56.2558C43.3092 55.9684 43.0762 55.5103 42.8613 54.9259C42.4302 53.7539 42.0536 52.0233 41.802 49.9767L42.2541 49.7453C42.5031 51.7706 42.8738 53.4635 43.2895 54.5939C43.498 55.1608 43.7133 55.5735 43.9221 55.8176C44.1406 56.073 44.3039 56.0908 44.4013 56.046L44.4406 56.5444ZM42.1749 49.611L42.1758 49.6115L41.8821 50.1115L41.8812 50.111L42.1749 49.611Z" fill="#141414"/>
</g>
<g opacity="0.1">
<path d="M0 441.754C0 441.754 11.3027 425.448 31.5628 415.657C47.991 407.709 97.4949 390.043 110.33 383.207C133.792 370.733 149.162 354 149.162 354L213.368 393.387C213.368 393.387 200.289 409.418 182.688 422.255C164.863 435.264 117.415 441.874 93.9704 460.736C78.7874 472.947 61.3864 505 61.3864 505L0 441.754Z" fill="#F5F0FE"/>
<path d="M58.9336 496.352L7.83533 441.65L8.57318 440.416C8.89159 439.883 16.6741 427.205 42.2529 415.299C50.2573 411.565 61.863 406.866 74.1473 401.883C90.3515 395.311 107.107 388.514 116.24 383.676C129.225 376.794 148.521 359.74 148.714 359.569L149.766 358.636L208.251 393.94L206.868 395.647C206.738 395.807 203.616 399.639 197.559 405.089C189.31 412.475 180.249 418.898 170.549 424.236C159.641 430.24 148.057 433.679 135.795 437.318C118.645 442.408 100.908 447.672 85.3029 460.595C73.5764 470.301 60.3368 493.829 60.2051 494.066L58.9336 496.352ZM12.6687 441.233L58.176 489.931C61.8652 483.651 72.6695 466.078 82.8698 457.65C99.0783 444.233 117.193 438.857 134.712 433.657C146.773 430.078 158.163 426.698 168.711 420.892C187.045 410.79 198.576 399.152 202.441 394.9L150.192 363.361C145.899 367.095 129.787 380.826 118.032 387.056C108.727 391.99 91.8799 398.82 75.5857 405.428C63.3453 410.391 51.7857 415.09 43.8692 418.766C31.1193 424.695 23.0908 430.809 18.6 434.889C15.5169 437.691 13.6371 439.944 12.6687 441.224V441.233Z" fill="#7234F5"/>
<path d="M85.3797 399.347C77.2788 403.319 71.9996 413.316 83.2826 426.619C94.5655 439.922 116.121 442.65 125.553 439.371C134.985 436.092 137.712 419.139 128.515 409.958C119.319 400.777 103.756 390.337 85.3797 399.347Z" fill="#7234F5"/>
<path d="M61.0329 441.154C63.0092 443.638 63.1695 446.782 61.4084 448.181C59.6472 449.58 56.6255 448.695 54.6579 446.205C52.6903 443.715 52.5212 440.579 54.2802 439.178C56.0392 437.777 59.0631 438.673 61.0329 441.154Z" fill="#7234F5"/>
<path d="M162.516 388.141C164.835 390.299 165.476 393.383 163.945 395.027C162.415 396.672 159.292 396.253 156.973 394.094C154.654 391.935 154.015 388.85 155.546 387.208C157.076 385.565 160.206 385.98 162.516 388.141Z" fill="#7234F5"/>
<path d="M127.536 419.124L125.197 419.784L129.925 424.511L124.184 426.131L115.493 422.521L108.032 424.625L112.759 429.353L107.443 430.852L102.716 426.124L100.415 426.773L96.7275 423.085L99.0279 422.437L95.2546 418.663L92.9542 419.312L89.2806 415.638L91.5809 414.99L86.5688 409.977L92.136 408.407L101.324 412.242L108.747 410.148L103.734 405.136L109.05 403.637L114.063 408.649L116.402 407.989L120.075 411.663L117.736 412.323L121.509 416.096L123.849 415.436L127.536 419.124ZM116.194 417.595L112.42 413.822L108.051 415.054L114.956 417.944L116.194 417.595ZM108.713 419.705L101.769 416.826L100.571 417.164L104.344 420.937L108.713 419.705Z" fill="#F5F0FE"/>
<path d="M15.5257 434.874C22.7066 434.316 27.5641 445.706 20.0648 448.625C17.131 449.767 13.7733 447.498 11.9946 445.001C9.13982 440.989 12.8466 439.36 13.5494 436.85L15.5257 434.874Z" fill="#7234F5"/>
<path d="M57.7213 477.693C53.3887 477.737 51.9174 481.235 53.1317 485.304L59.6296 492.514L63.455 484.503C67.186 483.578 60.754 477.66 57.7213 477.693Z" fill="#7234F5"/>
<path d="M198.662 391.066L198.003 391.395C189.388 391.042 190.87 400.414 198.662 399.96C200.858 399.832 204.938 398.271 205.265 395.366C205.61 392.309 201.051 391.09 198.662 391.066Z" fill="#7234F5"/>
<path d="M151.472 362.49C149.114 361.8 148.099 362.951 146.619 365.373H145.631C145.523 368.786 146.468 371.107 150.242 371.302C152.658 371.432 155.998 370.009 156.099 367.268C156.176 365.164 153.523 363.091 151.472 362.49Z" fill="#7234F5"/>
</g>
<defs>
<filter id="filter0_f_1114_2864" x="562.752" y="260.365" width="59.9049" height="67.2076" filterUnits="userSpaceOnUse" color-interpolation-filters="sRGB">
<feFlood flood-opacity="0" result="BackgroundImageFix"/>
<feBlend mode="normal" in="SourceGraphic" in2="BackgroundImageFix" result="shape"/>
<feGaussianBlur stdDeviation="2.5" result="effect1_foregroundBlur_1114_2864"/>
</filter>
<filter id="filter1_f_1114_2864" x="16.464" y="24.3981" width="56.5288" height="51.3743" filterUnits="userSpaceOnUse" color-interpolation-filters="sRGB">
<feFlood flood-opacity="0" result="BackgroundImageFix"/>
<feBlend mode="normal" in="SourceGraphic" in2="BackgroundImageFix" result="shape"/>
<feGaussianBlur stdDeviation="4" result="effect1_foregroundBlur_1114_2864"/>
</filter>
<clipPath id="clip0_1114_2864">
<rect x="290" y="373" width="390" height="67" rx="11" fill="white"/>
</clipPath>
<clipPath id="clip1_1114_2864">
<rect x="135" y="459" width="390" height="72" rx="11" fill="white"/>
</clipPath>
</defs>
</svg>
