<svg width="20" height="20" viewBox="0 0 20 20" fill="none" xmlns="http://www.w3.org/2000/svg">
<path d="M12.4375 10C12.4375 11.3462 11.3462 12.4375 10 12.4375C8.65381 12.4375 7.5625 11.3462 7.5625 10C7.5625 8.65381 8.65381 7.5625 10 7.5625C11.3462 7.5625 12.4375 8.65381 12.4375 10Z" fill="#FF785B" stroke="#7234F5" stroke-width="0.125"/>
<path d="M6.5625 2.25H13.4375C14.5812 2.25 15.6781 2.70435 16.4869 3.5131C17.2956 4.32185 17.75 5.41875 17.75 6.5625V13.4375C17.75 14.5812 17.2956 15.6781 16.4869 16.4869C15.6781 17.2956 14.5812 17.75 13.4375 17.75H6.5625C5.41875 17.75 4.32185 17.2956 3.5131 16.4869C2.70435 15.6781 2.25 14.5812 2.25 13.4375V6.5625C2.25 5.41875 2.70435 4.32185 3.5131 3.5131C4.32185 2.70435 5.41875 2.25 6.5625 2.25ZM7.88189 13.17C8.50885 13.5889 9.24596 13.8125 10 13.8125C11.0111 13.8125 11.9809 13.4108 12.6958 12.6958C13.4108 11.9809 13.8125 11.0111 13.8125 10C13.8125 9.24596 13.5889 8.50885 13.17 7.88189C12.7511 7.25493 12.1556 6.76627 11.459 6.47771C10.7623 6.18915 9.99577 6.11365 9.25622 6.26076C8.51667 6.40786 7.83734 6.77097 7.30416 7.30416C6.77097 7.83734 6.40786 8.51667 6.26076 9.25622C6.11365 9.99577 6.18915 10.7623 6.47771 11.459C6.76627 12.1556 7.25493 12.7511 7.88189 13.17ZM13.5069 6.76897C13.6714 6.87885 13.8647 6.9375 14.0625 6.9375C14.3277 6.9375 14.5821 6.83214 14.7696 6.64461C14.9571 6.45707 15.0625 6.20272 15.0625 5.9375C15.0625 5.73972 15.0038 5.54638 14.894 5.38193C14.7841 5.21748 14.6279 5.08931 14.4452 5.01362C14.2625 4.93793 14.0614 4.91813 13.8674 4.95671C13.6734 4.9953 13.4952 5.09054 13.3554 5.23039C13.2155 5.37025 13.1203 5.54843 13.0817 5.74241C13.0431 5.93639 13.0629 6.13746 13.1386 6.32018C13.2143 6.50291 13.3425 6.65909 13.5069 6.76897Z" fill="#FF785B" stroke="#7234F5" stroke-width="0.125"/>
</svg>
