<svg width="983" height="411" viewBox="0 0 983 411" fill="none" xmlns="http://www.w3.org/2000/svg">
<rect x="73.9871" y="1" width="480" height="302" rx="20" transform="rotate(13.9614 73.9871 1)" fill="#F5F0FE"/>
<path fill-rule="evenodd" clip-rule="evenodd" d="M190.196 145.471C188.513 145.848 186.026 146.779 184.667 147.541C181.554 149.287 177.414 154.312 176.677 157.24C176.207 159.107 176.37 159.537 177.662 159.845C179.961 160.392 184.993 159.259 187.819 157.556C190.775 155.775 193.723 152.163 195.354 148.327C196.466 145.708 196.439 145.522 194.896 145.166C193.994 144.958 191.879 145.095 190.196 145.471ZM160.103 155.8C153.485 155.912 146.896 159.68 143.105 165.52C140.538 169.475 138.145 178.687 138.066 184.924C137.958 193.406 141.677 205.753 145.868 210.829C148.632 214.176 151.403 215.179 156.41 214.648C163.709 213.875 165.931 214.344 171.195 217.768C173.791 219.458 176.667 221.025 177.583 221.251C180.367 221.937 185.266 219.907 189.875 216.159C195.068 211.936 200.878 205.65 200.068 205.131C196.099 202.587 193.02 196.088 193.2 190.636C193.407 184.337 196.593 179.273 202.419 175.985L205.596 174.191L204.376 172.007C203.705 170.806 201.655 168.559 199.819 167.014C195.759 163.596 190.987 162.337 184.432 162.956C178.999 163.469 176.607 162.905 172.247 160.089C167.313 156.903 164.004 155.735 160.103 155.8ZM220.079 183.729C218.115 185.442 217.339 188.964 218.533 190.745C219.898 192.783 224.138 193.698 226.264 192.415C230.213 190.032 228.83 184.28 224.02 183.084C222.224 182.637 221.124 182.817 220.079 183.729ZM233.044 191.542L231.932 196.018L237.77 197.469L243.607 198.92L239.149 216.853L234.691 234.786L239.72 235.821L244.75 236.857L249.158 219.126L253.566 201.396L259.575 202.89L265.585 204.384L266.698 199.909L267.81 195.433L250.984 191.25L234.157 187.066L233.044 191.542ZM318.975 221.361C317.932 221.524 316.064 222.238 314.825 222.949L312.57 224.241L312.633 221.997C312.694 219.796 312.616 219.732 308.63 218.741L304.563 217.73L300.533 233.942L296.503 250.153L301.532 251.188L306.562 252.224L309.4 241.623C312.011 231.866 312.386 230.926 314.104 229.815C316.386 228.339 319.247 228.936 320.993 231.253C322.241 232.91 322.197 233.366 319.752 244.104L317.217 255.238L321.977 256.422L326.737 257.605L329.696 245.701C332.428 234.714 332.595 233.535 331.864 230.381C331.429 228.503 330.388 226.146 329.55 225.144C327.785 223.034 321.857 220.913 318.975 221.361ZM351.659 229.767C347.35 230.198 344.405 231.842 340.738 235.863C337.627 239.274 335.619 247.276 336.741 251.796C337.897 256.457 340.927 260.198 345.218 262.265C349.016 264.094 356.792 265.613 360.23 265.196C361.983 264.984 362.228 264.681 362.323 262.61C362.543 257.765 362.594 257.857 359.66 257.813C353.262 257.718 347.503 255.058 345.965 251.489C344.631 248.394 345.407 248.356 356.034 250.998L366.281 253.545L367.166 251.755C368.23 249.599 368.674 243.217 367.965 240.256C366.36 233.55 359.291 229.003 351.659 229.767ZM382.662 238.008C378.105 239.097 375.145 241.822 374.143 245.851C373.468 248.568 373.629 249.359 375.436 252.207C376.571 253.997 378.585 256.128 379.911 256.944C385.199 260.198 386.261 263.514 382.255 264.263C380.653 264.562 379.445 264.185 376.043 262.323C372.811 260.554 371.652 260.177 371.103 260.714C369.813 261.977 368.307 265.921 368.801 266.745C369.861 268.511 377.856 271.379 382.167 271.538C387.082 271.719 389.73 270.774 392.161 267.97C396.507 262.957 395.339 258.073 388.408 252.273C385.059 249.471 383.82 247.994 384.048 247.075C384.756 244.23 387.233 244.355 393.456 247.551C394.99 248.339 395.227 248.178 396.629 245.405C398.022 242.65 398.043 242.315 396.887 241.267C396.195 240.641 393.495 239.463 390.887 238.652C386.908 237.413 385.585 237.309 382.662 238.008ZM211.943 211.885L207.906 228.126L212.935 229.162L217.965 230.197L221.902 214.361L225.839 198.524L220.91 197.084L215.981 195.643L211.943 211.885ZM263.18 220.419C260.707 231.221 260.459 233.066 261.115 235.766C262.037 239.562 263.874 241.883 267.024 243.234C270.633 244.781 274.252 244.742 277.378 243.121C280.386 241.562 281.065 241.851 280.426 244.42C280.036 245.988 280.201 246.096 284.197 246.881C286.495 247.333 288.431 247.469 288.497 247.184C288.564 246.9 290.352 239.695 292.47 231.174L296.322 215.681L291.514 214.486L286.707 213.291L284.216 223.309C282.324 230.921 281.354 233.751 280.18 235.089C277.54 238.1 272.336 237.004 271.649 233.292C271.423 232.066 272.253 227.428 273.845 221.026L276.405 210.73L271.198 209.435L265.991 208.141L263.18 220.419ZM358.608 239.541C359.304 240.701 359.716 242.284 359.523 243.059C359.198 244.367 358.758 244.364 353.335 243.016C346.742 241.376 346.38 240.772 350.29 237.928C353.268 235.762 356.744 236.436 358.608 239.541Z" fill="#150D40"/>
<rect x="72.1641" y="-2.02932" width="485" height="307" rx="22.5" transform="rotate(13.9614 72.1641 -2.02932)" stroke="#7234F5" stroke-opacity="0.1" stroke-width="5"/>
<rect x="501.68" y="32.4938" width="480" height="301.017" rx="20" transform="rotate(5.40809 501.68 32.4938)" fill="#F5F0FE"/>
<path d="M591.892 156.379C590.121 155.071 587.893 154.758 585.852 155.514L615.474 191.41L627.193 181.672L591.892 156.379ZM582.557 158.265C582.062 159.1 581.748 160.052 581.653 161.052L575.973 221.046C575.878 222.051 576.011 223.03 576.347 223.925L612.173 194.153L582.557 158.265ZM614.906 197.462L579.123 227.199C579.952 227.683 580.858 227.945 581.779 228.032C582.917 228.14 584.077 227.975 585.164 227.455L624.594 209.204L614.906 197.462ZM640.637 191.305C640.625 191.296 640.612 191.286 640.6 191.277L630.798 184.254L618.205 194.719L628.62 207.34C628.62 207.34 639.587 202.264 639.6 202.258C641.64 201.269 642.986 199.331 643.2 197.073C643.414 194.815 642.456 192.658 640.637 191.305Z" fill="#150D40"/>
<path d="M614.906 197.462L579.123 227.199C579.952 227.682 580.858 227.945 581.779 228.032C582.917 228.14 584.077 227.975 585.164 227.455L624.594 209.203L614.906 197.462Z" fill="#150D40"/>
<path d="M640.637 191.305C640.625 191.295 640.612 191.286 640.6 191.277L630.798 184.254L618.205 194.719L628.62 207.339C628.62 207.339 639.587 202.264 639.6 202.258C641.64 201.269 642.986 199.331 643.2 197.073C643.414 194.815 642.456 192.658 640.637 191.305Z" fill="#150D40"/>
<path d="M591.892 156.379C590.121 155.071 587.893 154.758 585.852 155.514L615.474 191.409L627.193 181.672L591.892 156.379Z" fill="#150D40"/>
<path fill-rule="evenodd" clip-rule="evenodd" d="M671.043 181.019C665.788 181.937 661.133 185.626 658.872 190.663C658.007 192.592 657.554 197.382 658.042 199.438C659.334 204.882 663.246 209.376 668.302 211.225C670.431 212.004 674.302 212.37 676.555 212.005C682.637 211.021 686.96 206.545 688.01 200.145C688.202 198.972 688.295 197.679 688.216 197.273L688.072 196.535L680.967 195.862L673.863 195.188L673.591 197.255L673.32 199.322L678.327 199.796C681.082 200.057 683.394 200.342 683.466 200.429C683.694 200.704 682.712 203.035 681.887 204.178C680.896 205.551 678.788 206.933 676.912 207.438C671.215 208.973 665.196 205.956 663.28 200.606C661.997 197.023 662.301 193.784 664.226 190.518C667.679 184.66 676.127 183.399 681.106 187.997L682.208 189.014L683.861 187.663C685.787 186.09 685.794 186.134 683.235 184.102C680.866 182.22 678.487 181.318 675.128 181.028C673.604 180.897 671.766 180.892 671.043 181.019ZM756.04 204.549L754.647 219.26L756.844 219.468L759.042 219.676L760.434 204.965L761.827 190.254L759.63 190.046L757.433 189.838L756.04 204.549ZM790.678 207.813L789.284 222.539L791.61 222.76L793.936 222.98L794.46 217.453L794.983 211.927L799.192 212.225C802.813 212.482 803.618 212.461 804.943 212.078C806.974 211.49 809.308 209.717 810.411 207.923C811.161 206.705 811.301 206.222 811.491 204.2C811.664 202.358 811.617 201.613 811.26 200.598C810.589 198.69 808.714 196.451 806.907 195.401L805.369 194.507L798.72 193.796L792.072 193.086L790.678 207.813ZM813.423 209.982L812.03 224.693L814.227 224.901L816.424 225.109L817.817 210.398L819.209 195.687L817.012 195.479L814.815 195.271L813.423 209.982ZM804.735 199.03C807.738 200.85 807.998 204.77 805.264 207.027C803.743 208.283 802.717 208.444 798.674 208.063L795.378 207.753L795.854 202.72L796.331 197.687L799.997 198.034C803.195 198.337 803.8 198.464 804.735 199.03ZM827.36 206.636C826.598 206.693 825.383 206.973 824.661 207.256C823.384 207.757 821.013 209.694 820.957 210.281C820.942 210.441 821.776 210.99 822.811 211.501L824.692 212.43L825.156 211.885C825.783 211.15 827.607 210.556 828.889 210.671C830.987 210.858 833.231 212.865 833.084 214.422C833.023 215.063 833.087 215.059 831.87 214.499C829.537 213.427 826.602 213.276 824.103 214.1C822.58 214.603 820.957 215.839 820.285 217.009C819.492 218.391 819.295 220.74 819.85 222.226C821.433 226.47 827.985 228.157 831.286 225.17L832.139 224.397L832.036 225.487L831.933 226.577L834.13 226.785L836.327 226.993L836.922 220.711C837.565 213.916 837.513 212.845 836.436 210.831C834.989 208.124 831.147 206.349 827.36 206.636ZM696.81 194.744C690.753 196.357 687.588 202.749 689.995 208.507C693.052 215.82 703.352 216.801 707.724 210.195C710.97 205.292 709.534 198.925 704.485 195.837C702.633 194.705 698.935 194.178 696.81 194.744ZM718.752 196.831C715.619 197.664 712.746 200.251 711.83 203.064C711.593 203.792 711.354 205.316 711.299 206.452C710.873 215.221 721.487 220.044 728.141 214.104C730.217 212.251 731.032 210.582 731.34 207.549C731.551 205.468 731.509 205.042 730.929 203.427C730.068 201.031 728.697 199.289 726.714 198.07C725.295 197.197 724.806 197.041 722.633 196.767C720.68 196.52 719.87 196.534 718.752 196.831ZM740.628 198.901C737.99 199.653 736.009 201.227 734.515 203.758C733.787 204.991 733.653 205.488 733.439 207.748C733.215 210.112 733.25 210.481 733.851 212.136C734.995 215.283 737.359 217.525 740.466 218.408C742.707 219.045 744.636 218.777 746.66 217.547L747.559 217L747.446 218.19C747.09 221.955 744.804 224.066 741.445 223.732C739.74 223.563 737.976 222.138 736.963 220.113C736.767 219.722 736.534 219.742 734.794 220.295C733.722 220.636 732.837 220.995 732.828 221.093C732.779 221.604 734.65 224.381 735.69 225.341C737.362 226.884 739.042 227.501 741.974 227.65C743.903 227.748 744.638 227.663 745.868 227.2C748.683 226.14 750.633 223.692 751.421 220.228C751.656 219.192 752.24 214.251 752.718 209.248L753.588 200.151L751.391 199.943L749.194 199.735L749.119 200.522L749.044 201.31L748.252 200.578C747.816 200.176 747.05 199.629 746.55 199.362C745.289 198.69 742.207 198.45 740.628 198.901ZM769.308 201.62C767.346 202.18 766.151 202.865 764.945 204.124C761.322 207.906 761.057 213.951 764.342 217.917C767.049 221.185 771.599 222.408 775.581 220.937C776.788 220.492 779.765 218.399 779.806 217.968C779.827 217.752 777.086 215.395 776.779 215.366C776.685 215.358 776.361 215.61 776.059 215.926C775.237 216.788 772.887 217.602 771.578 217.478C770.962 217.42 770.042 217.151 769.534 216.881C768.526 216.344 767.067 214.789 767.114 214.3C767.13 214.131 770.134 213.077 773.79 211.958C777.446 210.838 780.545 209.841 780.676 209.742C780.807 209.642 780.61 208.729 780.237 207.713C779.359 205.318 777.576 203.183 775.688 202.266C773.904 201.4 771.081 201.114 769.308 201.62ZM839.064 210.261C839.435 211.406 840.8 215.535 842.097 219.436C843.394 223.337 844.443 226.662 844.428 226.826C844.412 226.99 843.225 229.176 841.788 231.685L839.177 236.247L841.371 236.53C842.578 236.686 843.66 236.73 843.776 236.628C843.927 236.494 856.733 213.558 858.425 210.391C858.559 210.141 858.048 210.037 856.055 209.907L853.514 209.741L850.448 215.765C848.762 219.078 847.324 221.782 847.253 221.775C847.182 221.767 846.237 218.807 845.153 215.197L843.183 208.633L840.786 208.406L838.389 208.179L839.064 210.261ZM702.036 199.196C703.532 200.053 703.963 200.562 704.534 202.147C705.355 204.431 704.847 207.142 703.269 208.891C702.38 209.876 700.143 210.71 698.746 210.578C697.603 210.47 695.46 209.32 694.851 208.489C694.067 207.419 693.624 205.576 693.771 203.993C694.179 199.586 698.418 197.126 702.036 199.196ZM723.537 200.988C727.828 202.728 728.173 209.328 724.104 211.858C721.177 213.679 717.363 212.315 716.11 209C715.618 207.697 715.577 207.248 715.808 205.724C716.173 203.327 717.274 201.847 719.31 201.018C720.871 200.383 722.024 200.375 723.537 200.988ZM745.676 203.19C747.559 204.193 748.562 206.069 748.552 208.568C748.541 211.38 747.088 213.672 744.82 214.452C739.208 216.383 735.17 208.533 739.583 204.273C741.367 202.551 743.7 202.137 745.676 203.19ZM774.407 205.984C774.869 206.29 775.388 206.806 775.562 207.131C775.852 207.671 775.826 207.735 775.247 207.897C774.899 207.994 772.84 208.621 770.672 209.291C768.503 209.961 766.677 210.504 766.614 210.498C766.551 210.492 766.653 209.945 766.841 209.283C767.788 205.951 771.753 204.222 774.407 205.984ZM831.886 218.122C832.846 218.631 832.853 219.112 831.92 220.445C830.169 222.948 826.511 223.501 824.592 221.552C823.091 220.027 824.327 217.826 826.946 217.362C828.413 217.102 830.598 217.438 831.886 218.122Z" fill="#150D40"/>
<rect x="499.427" y="29.7693" width="485" height="306.017" rx="22.5" transform="rotate(5.40809 499.427 29.7693)" stroke="#7234F5" stroke-opacity="0.1" stroke-width="5"/>
</svg>
