<svg width="120" height="85" viewBox="0 0 120 85" fill="none" xmlns="http://www.w3.org/2000/svg">
<path d="M0 49.3534C0 49.3534 6.35674 40.1832 17.7512 34.6762C26.9905 30.2066 54.832 20.2707 62.0508 16.426C75.2459 9.41099 83.89 0 83.89 0L120 22.1516C120 22.1516 112.644 31.1674 102.745 38.3875C92.7205 45.7038 66.035 49.4213 52.8498 60.029C44.3107 66.8971 34.5243 84.9237 34.5243 84.9237L0 49.3534Z" fill="#FFE6C4"/>
<path d="M33.1448 80.0601L4.40668 49.2953L4.82165 48.6012C5.00073 48.3011 9.3777 41.1712 23.7634 34.4749C28.2651 32.3753 34.7923 29.7323 41.7011 26.93C50.8145 23.2335 60.2378 19.4111 65.3743 16.6903C72.6771 12.8197 83.5294 3.2284 83.6381 3.13207L84.2297 2.60718L117.122 22.4629L116.344 23.4225C116.271 23.5127 114.515 25.6678 111.109 28.7332C106.47 32.8867 101.373 36.4993 95.9181 39.5015C89.7836 42.8781 83.2688 44.8121 76.3724 46.8586C66.7267 49.7214 56.7513 52.6818 47.9751 59.95C41.38 65.4089 33.934 78.6411 33.8599 78.7744L33.1448 80.0601ZM7.125 49.0607L32.7187 76.4489C34.7936 72.9166 40.8699 63.0339 46.6067 58.2938C55.7225 50.7477 65.9103 47.7243 75.7635 44.7998C82.5463 42.7867 88.9524 40.8859 94.8843 37.6205C105.196 31.9393 111.681 25.3936 113.855 23.0026L84.4693 5.26498C82.0548 7.36454 72.9933 15.0872 66.3821 18.591C61.1493 21.3662 51.674 25.2071 42.5101 28.9234C35.626 31.7146 29.1247 34.3575 24.6724 36.425C17.5018 39.7596 12.9865 43.1979 10.4608 45.4926C8.72684 47.0685 7.66965 48.3357 7.125 49.0557V49.0607Z" fill="#FF785B"/>
<path d="M48.0183 25.5035C43.4622 27.7377 40.4932 33.3596 46.8388 40.8415C53.1845 48.3233 65.3076 49.8572 70.6121 48.0133C75.9166 46.1694 77.4505 36.6349 72.2781 31.4712C67.1058 26.3075 58.3531 20.4362 48.0183 25.5035Z" fill="#FF785B"/>
<path d="M34.3253 49.0162C35.4369 50.413 35.527 52.1816 34.5365 52.9683C33.546 53.7551 31.8466 53.2573 30.74 51.8568C29.6334 50.4563 29.5383 48.6926 30.5276 47.9047C31.5169 47.1167 33.2175 47.6206 34.3253 49.0162Z" fill="#FF785B"/>
<path d="M91.4002 19.201C92.7044 20.4151 93.0651 22.149 92.2043 23.0741C91.3434 23.9991 89.5872 23.7632 88.283 22.5492C86.9788 21.3352 86.6194 19.5999 87.4802 18.6761C88.3411 17.7523 90.101 17.9857 91.4002 19.201Z" fill="#FF785B"/>
<path d="M71.7276 36.6266L70.4121 36.9976L73.0708 39.6563L69.8419 40.5669L64.9545 38.5368L60.758 39.7203L63.4167 42.379L60.427 43.2222L57.7683 40.5635L56.4745 40.9284L54.4004 38.8543L55.6942 38.4894L53.572 36.3673L52.2783 36.7321L50.2122 34.666L51.5059 34.3012L48.687 31.4823L51.8181 30.5992L56.9853 32.7558L61.16 31.5784L58.3412 28.7596L61.3309 27.9164L64.1498 30.7352L65.4652 30.3642L67.5313 32.4303L66.2158 32.8013L68.338 34.9235L69.6535 34.5525L71.7276 36.6266ZM65.3483 35.7667L63.2261 33.6445L60.7691 34.3375L64.6525 35.9629L65.3483 35.7667ZM61.1409 36.9533L57.2358 35.334L56.5617 35.5241L58.6839 37.6462L61.1409 36.9533Z" fill="#FFE6C4"/>
<path d="M8.73181 45.484C12.7704 45.1703 15.5023 51.5765 11.2846 53.2178C9.63462 53.8601 7.74625 52.5843 6.74587 51.18C5.14032 48.9236 7.22507 48.0072 7.62028 46.5956L8.73181 45.484Z" fill="#FF785B"/>
<path d="M32.463 69.566C30.0262 69.5907 29.1988 71.5581 29.8817 73.8466L33.5362 77.9013L35.6876 73.3958C37.786 72.8759 34.1685 69.5475 32.463 69.566Z" fill="#FF785B"/>
<path d="M111.729 20.8462L111.358 21.0314C106.513 20.8326 107.347 26.1037 111.729 25.8481C112.964 25.7765 115.259 24.8983 115.443 23.2644C115.637 21.5452 113.073 20.8598 111.729 20.8462Z" fill="#FF785B"/>
<path d="M85.1892 4.77476C83.8628 4.38696 83.2922 5.03411 82.4598 6.39636H81.904C81.8435 8.31561 82.3745 9.62105 84.4976 9.73096C85.8561 9.80383 87.7346 9.00353 87.7914 7.4622C87.8346 6.27903 86.3427 5.11316 85.1892 4.77476Z" fill="#FF785B"/>
</svg>
