<svg width="116" height="71" viewBox="0 0 116 71" fill="none" xmlns="http://www.w3.org/2000/svg">
<path d="M54.8547 2.79783C58.8123 3.20304 64.9949 5.23194 73.2637 27.9751C82.2986 52.8159 115.835 71.0001 115.835 71.0001L60.9257 68.44C60.9257 68.44 44.4897 62.0125 34.6688 42.1702C24.8479 22.328 21.5805 1.22998 21.5805 1.22998L54.859 2.79783H54.8547Z" fill="#F4D9B4"/>
<path d="M77.2242 40.018C68.7449 27.6785 66.8406 15.7314 62.0282 9.86089C56.54 3.16853 49.5799 3.61812 49.5799 3.61812L48.5905 4.31256C51.2121 4.35122 54.8605 5.55539 59.2433 10.0084C62.8587 13.6796 68.6504 32.7415 75.506 42.1916C80.4 48.9355 101.098 66.3794 101.098 66.3794L60.2799 63.931C60.2799 63.931 43.9571 53.6777 36.6319 37.236C34.4226 32.2761 30.3977 19.9109 30.3977 19.9109L38.6235 11.3199L28.1282 18.6953C28.1282 18.6953 30.1328 29.381 36.0448 40.7454C45.2658 58.4714 60.5291 66.2133 60.5291 66.2133L107.625 68.5243C107.625 68.5243 86.4036 53.3798 77.2242 40.018Z" fill="#FF785B"/>
<path d="M0 13.1299C0 13.1299 2.25083 8.83437 7.04745 5.37651C14.3741 0.0902036 21.9227 0 21.9227 0L54.8547 2.79779C54.8547 2.79779 50.2056 2.33245 45.4047 7.13337C39.5012 13.0368 38.8398 22.4539 38.8398 22.4539L0 13.1299Z" fill="#FFE6C4"/>
<path d="M34.4083 33.7396C37.1287 43.0665 44.494 44.2077 52.7886 44.0187C67.5049 43.6822 72.1312 36.3913 69.3792 29.6274C65.8569 20.9677 58.0763 21.2139 49.683 22.1661C39.6502 23.3058 32.1001 25.8101 34.4083 33.7396Z" fill="#FF785B"/>
<path d="M54.3409 24.1512L54.5938 25.4396L58.1324 24.7451L58.753 27.9075L55.6427 30.7847L56.4493 34.8947L59.988 34.2002L60.5626 37.1283L57.024 37.8228L57.2726 39.0899L54.5121 39.6316L54.2634 38.3646L51.4389 38.9189L51.6875 40.1859L48.9376 40.7256L48.689 39.4586L44.9372 40.1948L44.3354 37.1283L47.6358 34.0921L46.8334 30.0035L43.0816 30.7398L42.5069 27.8117L46.2588 27.0754L46.0059 25.787L48.7558 25.2473L49.0087 26.5357L51.8332 25.9814L51.5803 24.693L54.3409 24.1512ZM52.4078 28.9095L49.5833 29.4638L50.0556 31.8701L52.5416 29.5909L52.4078 28.9095ZM53.2165 33.0301L50.7347 35.3306L50.8642 35.9908L53.6888 35.4365L53.2165 33.0301Z" fill="#FFE6C4"/>
<path d="M48.4445 2.27231C48.4445 2.27231 44.9579 2.11481 40.1141 6.85416C37.8532 9.06777 34.5299 16.2011 34.5299 16.2011L8.20151 10.7201C8.20151 10.7201 10.0085 7.33382 14.0147 4.62624C18.021 1.91865 26.5991 0.402346 26.5991 0.402346L23.711 0.158936H23.6996C23.6996 0.158936 15.4265 1.86997 12.245 3.86737C6.18693 7.68032 3.64113 11.5992 3.64113 11.5992L36.3369 19.228C36.3369 19.228 38.7524 11.3701 41.1035 8.35472C45.2558 3.03261 51.2064 2.51429 51.2064 2.51429L48.4445 2.27231Z" fill="#FF785B"/>
<path d="M70.5046 52.8988C70.5748 54.2261 68.3139 55.4232 65.4546 55.5735C62.5952 55.7238 60.2227 54.7702 60.1568 53.4429C60.0909 52.1156 62.3489 50.9186 65.2069 50.7683C68.0648 50.6179 70.4359 51.5715 70.5046 52.8988Z" fill="#FF785B"/>
<path d="M43.0121 1.77549L33.5978 0.975098C34.391 1.7669 35.8186 2.47422 37.5268 2.83647C40.1484 3.3777 42.4995 2.9052 43.0121 1.77549Z" fill="#FF785B"/>
<path d="M7.9137 8.6137C10.1789 6.13234 14.2409 9.64748 11.0866 11.5661C10.0485 12.1976 7.95234 11.9112 7.10327 10.9161C5.90769 9.51575 7.14195 9.51002 7.9137 8.18415V8.6137Z" fill="#FF785B"/>
<path d="M34.7533 17.6329C32.0142 17.9193 28.5119 15.342 32.123 13.5007C35.6353 11.7066 37.4136 16.559 35.1828 16.9886L34.7533 17.6329Z" fill="#FF785B"/>
<path d="M57.0898 62.734C56.2937 58.7077 63.8896 60.688 63.0663 64.8446C61.2049 66.0201 57.8401 65.244 56.6603 63.3784L57.0898 62.734Z" fill="#FF785B"/>
<path d="M99.8313 67.459C98.1131 66.7975 92.8039 65.4258 97.0407 63.4255C99.7611 62.1369 101.654 64.9647 102.598 66.9922C101.988 67.2169 101.337 67.303 100.69 67.2442L99.8313 67.459Z" fill="#FF785B"/>
</svg>
