<svg width="118" height="29" viewBox="0 0 118 29" fill="none" xmlns="http://www.w3.org/2000/svg">
<g clip-path="url(#clip0_114_196)">
<path d="M41.8929 5.50977V24.0392H37.8436V16.2846H30.1209V24.0392H26.0905V5.50977H30.1209V12.8659H37.8436V5.50977H41.8929Z" fill="#FFE6C4"/>
<path d="M56.4834 15.1498V24.0392H52.7032V21.9481C52.2427 23.2047 50.7076 24.0392 48.8175 24.0392C46.1311 24.0392 44.2986 22.2951 44.2986 19.9883C44.2986 17.344 46.323 15.7405 49.3356 15.7405H51.6671C51.8043 15.7516 51.9424 15.7336 52.072 15.6878C52.2015 15.642 52.3195 15.5695 52.4178 15.4752C52.5161 15.3809 52.5924 15.267 52.6417 15.1413C52.691 15.0156 52.7119 14.8809 52.7032 14.7466C52.7032 13.6213 51.8014 12.8712 50.2375 12.8712C49.9228 12.8389 49.6047 12.8696 49.3025 12.9614C49.0004 13.0532 48.7205 13.2041 48.4799 13.405C48.2394 13.6059 48.0432 13.8526 47.9033 14.13C47.7634 14.4074 47.6827 14.7097 47.6662 15.0185H44.2698C44.4329 12.3085 46.678 10.1424 50.4582 10.1424C53.9409 10.1143 56.4834 12.0929 56.4834 15.1498ZM52.7032 18.2817V18.0942H49.9113C49.6624 18.0693 49.411 18.0956 49.1731 18.1714C48.9353 18.2471 48.7163 18.3706 48.5302 18.534C48.3441 18.6973 48.195 18.8969 48.0924 19.1199C47.9899 19.3429 47.9362 19.5844 47.9349 19.8289C47.9462 20.0488 48.004 20.2641 48.1047 20.461C48.2053 20.658 48.3466 20.8325 48.5197 20.9734C48.6927 21.1144 48.8938 21.2188 49.1102 21.28C49.3266 21.3413 49.5536 21.358 49.777 21.3292C50.18 21.3372 50.5803 21.2623 50.9518 21.1094C51.3234 20.9565 51.6579 20.7291 51.9338 20.4418C52.2097 20.1545 52.4207 19.8137 52.5533 19.4416C52.6858 19.0695 52.7369 18.6743 52.7032 18.2817Z" fill="#FFE6C4"/>
<path d="M58.391 10.1422H62.2118V12.2647C62.6539 11.5745 63.2742 11.0143 64.0083 10.6425C64.7424 10.2707 65.5634 10.1009 66.386 10.1506C69.4904 10.1506 71.5154 12.369 71.5154 15.507V24.0392H67.6946V16.3792C67.7266 16.0161 67.6817 15.6504 67.563 15.3056C67.4443 14.9607 67.2543 14.6443 67.0052 14.3765C66.7561 14.1088 66.4534 13.8956 66.1165 13.7507C65.7796 13.6058 65.4159 13.5324 65.0487 13.5351C64.6558 13.5342 64.2669 13.6136 63.9061 13.7682C63.5454 13.9228 63.2206 14.1495 62.9518 14.434C62.6831 14.7185 62.4761 15.0548 62.3439 15.4221C62.2116 15.7893 62.1569 16.1796 62.1831 16.5688V24.0392H58.3624L58.391 10.1422Z" fill="#FFE6C4"/>
<path d="M74.3626 10.1422H78.1834V12.2647C78.6255 11.5745 79.2458 11.0143 79.9799 10.6425C80.7139 10.2707 81.535 10.1009 82.3576 10.1506C85.462 10.1506 87.487 12.369 87.487 15.507V24.0392H83.6662V16.3792C83.6981 16.0161 83.6533 15.6504 83.5345 15.3056C83.4158 14.9607 83.2259 14.6443 82.9768 14.3765C82.7277 14.1088 82.425 13.8956 82.0881 13.7507C81.7511 13.6058 81.3875 13.5324 81.0203 13.5351C80.6273 13.5342 80.2384 13.6136 79.8777 13.7682C79.517 13.9228 79.1921 14.1495 78.9234 14.434C78.6546 14.7185 78.4477 15.0548 78.3154 15.4221C78.1832 15.7893 78.1285 16.1796 78.1547 16.5688V24.0392H74.3339L74.3626 10.1422Z" fill="#FFE6C4"/>
<path d="M101.58 15.1498V24.0392H97.7994V21.9481C97.3388 23.2047 95.8038 24.0392 93.9137 24.0392C91.2273 24.0392 89.3947 22.2951 89.3947 19.9883C89.3947 17.344 91.4191 15.7405 94.4317 15.7405H96.7632C96.9005 15.7516 97.0386 15.7336 97.1681 15.6878C97.2977 15.642 97.4156 15.5695 97.5139 15.4752C97.6122 15.3809 97.6886 15.267 97.7378 15.1413C97.7871 15.0156 97.8081 14.8809 97.7994 14.7466C97.7994 13.6213 96.8975 12.8712 95.3336 12.8712C95.0189 12.8389 94.7008 12.8696 94.3987 12.9614C94.0965 13.0532 93.8166 13.2041 93.5761 13.405C93.3355 13.6059 93.1393 13.8526 92.9994 14.13C92.8595 14.4074 92.7789 14.7097 92.7624 15.0185H89.366C89.5291 12.3085 91.7741 10.1424 95.5543 10.1424C99.037 10.1143 101.58 12.0929 101.58 15.1498ZM97.7994 18.2817V18.0942H95.0074C94.7586 18.0693 94.5071 18.0956 94.2693 18.1714C94.0314 18.2471 93.8124 18.3706 93.6263 18.534C93.4402 18.6973 93.2911 18.8969 93.1886 19.1199C93.086 19.3429 93.0324 19.5844 93.031 19.8289C93.0423 20.0488 93.1001 20.2641 93.2008 20.461C93.3014 20.658 93.4427 20.8325 93.6158 20.9734C93.7889 21.1144 93.9899 21.2188 94.2063 21.28C94.4227 21.3413 94.6498 21.358 94.8731 21.3292C95.2762 21.3372 95.6764 21.2623 96.048 21.1094C96.4195 20.9565 96.7541 20.7291 97.0299 20.4418C97.3058 20.1545 97.5168 19.8137 97.6494 19.4416C97.7819 19.0695 97.833 18.6743 97.7994 18.2817Z" fill="#FFE6C4"/>
<path d="M104.398 4.58331H108.294V12.3487C108.74 11.6625 109.363 11.1063 110.098 10.7374C110.833 10.3685 111.654 10.2001 112.476 10.2497C115.536 10.2497 117.551 12.4523 117.551 15.5678V24.0392H113.75V16.4338C113.777 16.0719 113.729 15.7082 113.607 15.3658C113.486 15.0233 113.294 14.7096 113.044 14.4442C112.794 14.1789 112.491 13.9678 112.155 13.8242C111.818 13.6806 111.455 13.6077 111.089 13.61C110.698 13.6091 110.311 13.6879 109.952 13.8415C109.593 13.995 109.27 14.22 109.002 14.5025C108.735 14.785 108.529 15.1189 108.397 15.4835C108.266 15.8482 108.211 16.2357 108.237 16.622V24.0392H104.398V4.58331Z" fill="#FFE6C4"/>
<path d="M18.9749 13.9167V23.438C18.9734 23.5319 18.9398 23.6228 18.8793 23.6969C18.8188 23.7711 18.7346 23.8243 18.6395 23.8487L14.7831 24.8088C14.7171 24.8262 14.6479 24.8287 14.5808 24.8161C14.5136 24.8036 14.4505 24.7763 14.3963 24.7365C14.3421 24.6966 14.2984 24.6454 14.2685 24.5866C14.2386 24.5279 14.2234 24.4634 14.2242 24.3981V20.6002H13.9894C12.7164 20.599 11.4479 20.7441 10.2112 21.0323L9.70822 21.1603L9.49025 21.2137C7.78973 21.6925 6.18568 22.4408 4.74515 23.4273C2.79792 24.7602 1.18959 26.4938 0.0391637 28.5H3.62104e-05V26.1103C-0.00541022 24.3353 0.603684 22.6083 1.73265 21.1977C1.79971 21.1177 1.85561 21.0483 1.9115 20.9896C3.91011 18.7597 6.54225 17.1294 9.49025 16.2957L14.2354 15.1115L18.9749 13.9167Z" fill="#FFE6C4"/>
<path d="M18.9747 0.5V2.58105C18.9878 4.73633 18.18 6.82256 16.702 8.45067L16.5121 8.61608C14.5965 10.5322 12.1934 11.9406 9.53762 12.7035H9.48178L8.53807 12.9436L4.7409 13.8934L0 15.0833V5.57456C0.000238079 5.48104 0.0326037 5.39018 0.0921251 5.31596C0.151646 5.24173 0.235028 5.18823 0.329459 5.16368L4.18249 4.2032C4.24837 4.18583 4.31756 4.18333 4.38462 4.19589C4.45168 4.20845 4.51477 4.23573 4.56892 4.27557C4.62306 4.31541 4.66678 4.36672 4.69662 4.42547C4.72647 4.48421 4.74163 4.54878 4.7409 4.61407V8.40265H4.99776C6.31578 8.40284 7.62875 8.2469 8.90662 7.93841L9.14673 7.87971L9.46503 7.79967C11.1635 7.32441 12.7662 6.57941 14.2059 5.5959C16.1609 4.26425 17.7759 2.52773 18.93 0.516016L18.9747 0.5Z" fill="#FFE6C4"/>
</g>
<defs>
<clipPath id="clip0_114_196">
<rect width="118" height="28" fill="white" transform="translate(0 0.5)"/>
</clipPath>
</defs>
</svg>
