<svg width="968" height="427" viewBox="0 0 968 427" fill="none" xmlns="http://www.w3.org/2000/svg">
<rect x="2" y="87.4026" width="480" height="301.017" rx="20" transform="rotate(-10.2487 2 87.4026)" fill="#F5F0FE"/>
<path fill-rule="evenodd" clip-rule="evenodd" d="M181.101 167.916C189.868 167.916 197.671 170.549 204.821 175.918C220.862 187.963 224.983 210.751 214.175 227.65C203.755 243.944 183.879 250.265 165.89 243.005C158.644 240.08 151.052 233.606 147.434 227.267C146.708 225.995 146.189 224.847 146.281 224.715C146.373 224.582 149.749 225.188 153.784 226.062C160.514 227.519 161.246 227.817 162.646 229.67C164.704 232.395 166.011 233.359 168.778 234.191C171.363 234.969 175.459 234.453 177.794 233.055C180.926 231.18 183.723 225.521 183.157 222.204C182.869 220.51 193.723 209.398 196.094 208.96C198.639 208.491 202.833 205.185 204.702 202.174C209.836 193.905 205.482 182.989 196.013 180.392C192.009 179.294 186.401 180.256 183.418 182.553C179.264 185.751 176.472 191.508 177.156 195.46C177.37 196.695 176.447 199.449 174.027 204.799C171.21 211.023 170.337 212.433 169.168 212.645C168.385 212.786 166.86 213.474 165.78 214.173C163.818 215.442 163.8 215.44 152.797 213.1L141.779 210.757L141.74 208.682C141.421 191.605 151.167 176.711 166.683 170.564C171.419 168.688 175.619 167.916 181.101 167.916ZM195.039 185.545C198.148 186.53 201.144 189.782 201.682 192.756C202.156 195.378 200.611 199.896 198.564 201.875C197.077 203.312 196.214 203.659 193.262 204.008C187.487 204.69 183.563 201.853 182.553 196.268C181.224 188.919 187.817 183.257 195.039 185.545ZM187.132 189.092C182.163 193.823 184.868 201.745 191.542 202.006C199.917 202.333 202.438 190.793 194.647 187.791C192.068 186.796 188.981 187.331 187.132 189.092ZM253.331 179.024C254.959 179.076 256.816 179.374 257.458 179.685C258.491 180.186 258.576 180.476 258.2 182.205C257.638 184.784 257.381 184.947 254.773 184.374C252.074 183.781 247.824 184.473 246.781 185.675C244.35 188.477 246.314 190.34 252.764 191.352C255.851 191.836 258.664 192.705 260.04 193.599C261.998 194.871 262.349 195.422 262.802 197.928C263.42 201.341 262.325 204.342 259.614 206.668C256.73 209.143 247.243 210.409 243.437 208.827C242.755 208.544 242.695 208 243.114 205.954L243.632 203.431L246.115 203.831C247.481 204.051 250.039 203.971 251.799 203.653C255.386 203.004 256.919 201.64 256.522 199.447C256.263 198.011 253.795 197 249.121 196.413C243.495 195.706 240.551 193.506 239.819 189.461C238.661 183.053 244.253 178.733 253.331 179.024ZM287.93 175.41L288.398 178.001L284.071 178.784L279.743 179.566L281.878 191.374L284.013 203.181L281.128 203.703L278.242 204.225L276.112 192.441L273.981 180.658L269.479 181.298L264.977 181.939L264.357 179.523L263.737 177.107L275.599 174.962L287.461 172.818L287.93 175.41ZM314.473 170.61L314.942 173.202L308.306 174.402L301.67 175.602L302.243 178.77L302.816 181.938L308.586 180.894L314.356 179.851L314.825 182.443L315.294 185.035L309.523 186.078L303.753 187.121L304.378 190.577L305.003 194.033L311.639 192.833L318.274 191.633L318.743 194.225L319.212 196.817L309.691 198.539L300.17 200.26L297.566 185.861L294.963 171.461L304.484 169.74L314.005 168.018L314.473 170.61ZM344.586 176.764C348.852 183.681 352.418 189.661 352.511 190.053C352.626 190.539 351.701 190.943 349.607 191.321L346.535 191.877L345.19 189.295L343.845 186.712L337.981 187.604L332.118 188.495L331.677 191.569L331.236 194.643L328.124 195.206L325.011 195.769L325.864 191.005C328.435 176.633 330.421 165.957 330.614 165.47C330.734 165.166 332.181 164.753 333.831 164.553L336.83 164.189L344.586 176.764ZM366.721 169.167C370.406 174.374 373.562 178.421 373.732 178.159C373.903 177.898 375.251 172.849 376.728 166.938L379.413 156.192L382.196 155.689L384.98 155.186L387.583 169.585L390.186 183.984L387.605 184.451L385.023 184.918L383.276 176.163L381.528 167.408L378.911 176.655C376.536 185.046 376.155 185.927 374.79 186.173C373.425 186.42 372.782 185.752 367.84 178.954L362.393 171.463L363.884 179.967L365.374 188.471L362.489 188.992L359.604 189.514L357 175.115L354.397 160.715L357.208 160.207L360.019 159.699L366.721 169.167ZM333.857 177.068C333.411 179.848 332.989 182.468 332.92 182.889C332.826 183.456 333.874 183.46 336.956 182.902C340.038 182.345 341.019 181.974 340.733 181.476C340.52 181.106 339.208 178.8 337.816 176.353C336.425 173.905 335.147 171.928 334.978 171.959C334.808 171.989 334.304 174.289 333.857 177.068ZM174.214 215.748C180.419 217.613 182.106 224.89 177.388 229.437C175.1 231.642 171.529 232.292 168.662 231.026C165.117 229.461 165.322 228.612 169.065 229.355C173.273 230.19 176.09 228.996 177.303 225.863C178.935 221.652 176.876 218.409 171.793 217.183C169.932 216.733 168.385 216.233 168.356 216.071C168.23 215.373 172.234 215.153 174.214 215.748Z" fill="#150D40"/>
<rect x="-0.904917" y="85.3873" width="485" height="306.017" rx="22.5" transform="rotate(-10.2487 -0.904917 85.3873)" stroke="#7234F5" stroke-opacity="0.1" stroke-width="5"/>
<rect x="504.636" y="6.66711" width="480" height="302" rx="20" transform="rotate(15.4962 504.636 6.66711)" fill="#F5F0FE"/>
<path fill-rule="evenodd" clip-rule="evenodd" d="M657.681 154.076C657.602 154.118 655.418 161.771 652.827 171.084C648.16 187.86 648.117 188.004 648.159 186.646C648.285 182.555 647.249 178.667 645.12 175.245C641.62 169.62 635.274 165.632 626.403 163.483C613.834 160.438 604.752 162.783 599.082 170.54C595.974 174.791 593.824 181.542 593.793 187.146C593.773 190.717 594.55 193.814 596.188 196.692C597.776 199.483 599.295 201.18 602.19 203.398C605.279 205.764 608.896 207.454 614.419 209.112C621.453 211.224 626.059 211.673 631.165 210.745C635.925 209.88 639.944 207.435 642.213 204.024C643.357 202.305 643.843 202.637 637.685 200.932L632.322 199.448L631.589 200.243C628.135 203.989 621.543 204.85 615.017 202.407C609.184 200.223 605.229 195.708 604.588 190.5C604.381 188.811 604.454 187.004 604.778 185.836L605.02 184.964L625.45 190.628L645.88 196.292L643.223 205.661L640.566 215.03L645.661 216.442C648.462 217.219 650.81 217.806 650.878 217.747C650.946 217.688 651.338 216.611 651.749 215.354C652.841 212.011 652.687 212.12 653.786 213.918C655.878 217.342 659.351 220.321 663.82 222.524C665.943 223.571 670.612 225.04 672.999 225.413C681.548 226.746 689.021 224.571 694.26 219.224C694.925 218.546 695.771 217.595 696.14 217.112L696.812 216.234L696.522 217.768C695.127 225.137 698.909 230.975 707.72 235.055C708.482 235.408 710.286 235.992 712.468 236.593C716.543 237.716 719.283 238.099 722.603 238.011C726.539 237.906 729.255 237.247 732.337 235.648L734.412 234.571L733.724 237.454C733.345 239.04 733.062 240.419 733.095 240.518C733.13 240.627 735.091 241.237 737.966 242.034L742.778 243.368L742.854 242.655C742.896 242.263 744.68 235.392 746.818 227.387C750.829 212.373 750.717 212.865 750.758 210.083C750.762 209.799 750.798 209.614 750.838 209.673C750.96 209.852 760.534 247.828 760.493 247.973C760.473 248.048 757.526 251.046 753.946 254.635C750.366 258.224 747.35 261.271 747.245 261.407C747.064 261.639 747.413 261.754 752.862 263.264L758.671 264.874L778.087 244.829C788.765 233.804 799.566 222.652 802.09 220.046L806.678 215.309L801.098 213.762L795.519 212.215L782.244 226.172L768.97 240.129L764.751 221.322L760.532 202.515L754.441 200.826C751.091 199.897 748.337 199.184 748.321 199.242C748.305 199.3 748.571 200.481 748.913 201.867L749.533 204.388L748.581 202.897C746.487 199.616 743.609 197.343 738.626 195.034C736.843 194.208 735.917 193.895 732.171 192.85C729.45 192.091 727.16 191.539 726.109 191.39C717.431 190.153 711.378 191.509 707.502 195.559C706.782 196.312 705.547 198.244 705.363 198.906L705.259 199.282L710.75 200.804C715.898 202.231 716.245 202.309 716.319 202.041C716.363 201.884 716.798 201.325 717.285 200.797C718.941 199.008 721.524 198.129 724.863 198.217C725.921 198.245 726.749 198.42 729.575 199.213C732.553 200.048 733.171 200.271 734.27 200.904C736.321 202.086 737.939 203.545 738.837 205.022C740.204 207.272 740.419 209.083 739.65 211.857L739.198 213.489L730.124 211.063C720.615 208.521 718.879 208.153 714.723 207.798C708.276 207.247 702.989 208.504 700.049 211.286L699.219 212.072L700.196 208.522C701.035 205.478 701.184 204.728 701.245 203.253C701.457 198.105 700.297 193.614 697.746 189.712C695.319 186 692.008 183.198 687.311 180.881C686.182 180.325 685.074 179.956 681.94 179.095C678.338 178.105 677.791 177.994 675.71 177.838C670.226 177.425 665.47 178.34 662.436 180.392L661.552 180.99L664.893 168.939L668.234 156.887L663.03 155.444C660.167 154.65 657.76 154.035 657.681 154.076ZM628.818 171.433C633.535 173.545 636.663 177.299 637.262 181.563C637.442 182.845 637.35 184.977 637.071 185.983L636.869 186.712L621.942 182.573L607.015 178.435L607.172 177.866C607.49 176.72 608.574 174.948 609.707 173.725C613.841 169.258 621.826 168.3 628.818 171.433ZM680.65 186.079C686.879 188.861 690.439 194.665 690.061 201.422C689.929 203.78 689.007 207.105 687.903 209.198C684.994 214.718 679.844 217.839 673.545 217.901C672.041 217.916 671.685 217.853 668.912 217.088C665.697 216.202 664.934 215.856 662.845 214.344C661.269 213.202 660.196 212.058 659.09 210.338C657.908 208.502 657.351 207.132 656.92 205.003C655.243 196.718 659.892 187.828 667.277 185.199C669.453 184.423 671.69 184.159 674.217 184.379C675.723 184.51 679.19 185.426 680.65 186.079ZM736.836 222.006C735.737 225.973 733.835 228.393 730.413 230.18C727.559 231.671 724.639 232.124 720.839 231.666C718.629 231.399 714.864 230.352 713.111 229.515C711.266 228.635 709.452 227.136 708.547 225.744C706.403 222.445 707.402 217.938 710.655 216.24C713.954 214.517 719.797 215.156 732.641 218.646L737.409 219.942L736.836 222.006Z" fill="#150D40"/>
<rect x="502.894" y="3.59006" width="485" height="307" rx="22.5" transform="rotate(15.4962 502.894 3.59006)" stroke="#7234F5" stroke-opacity="0.1" stroke-width="5"/>
</svg>
