<svg width="511" height="140" viewBox="0 0 511 140" fill="none" xmlns="http://www.w3.org/2000/svg">
<g clip-path="url(#clip0_165_4256)">
<rect width="510.28" height="140" fill="#27AE60"/>
<path d="M60.5877 79.0658H58.353L54.9642 85.5686L51.5937 79.0658H49.3589L53.9567 87.2721V91.8882H55.9717V87.2721L60.5877 79.0658ZM64.594 92.0164C67.415 92.0164 69.3017 89.9648 69.3017 87.1622C69.3017 84.3962 67.415 82.308 64.594 82.308C61.7731 82.308 59.8864 84.3413 59.8864 87.1622C59.8864 89.9282 61.7181 92.0164 64.594 92.0164ZM64.594 90.4411C62.8722 90.4411 61.828 88.9573 61.828 87.1622C61.828 85.422 62.8355 83.8833 64.594 83.8833C66.2976 83.8833 67.3417 85.3854 67.3417 87.1622C67.3417 88.8841 66.3525 90.4411 64.594 90.4411ZM77.3591 82.4362V87.9499C77.3591 89.4519 76.5897 90.4044 75.2159 90.4044C73.8787 90.4044 73.146 89.5618 73.146 88.0781V82.4362H71.1677V88.2613C71.1677 90.6426 72.3217 92.0164 74.4465 92.0164C75.9303 92.0164 77.0293 91.302 77.4507 89.0489L77.6338 91.8882H79.3374V82.4362H77.3591ZM96.6641 82.4362L94.8873 90.093L93.0738 82.4362H90.6009L88.7692 90.093L86.9923 82.4362H84.9957L87.4686 91.8882H89.8865L91.8282 83.8284L93.7882 91.8882H96.2062L98.6791 82.4362H96.6641ZM107.202 82.4362L106.982 85.5136C106.525 83.0957 105.279 82.253 103.465 82.253C100.956 82.253 99.5271 84.4329 99.5271 87.1622C99.5271 89.8366 100.901 92.0714 103.465 92.0714C105.279 92.0714 106.543 91.2471 107.074 88.8474L107.294 91.8882H108.997V82.4362H107.202ZM104.253 90.4411C102.586 90.4411 101.505 88.9024 101.505 87.1622C101.505 85.4037 102.605 83.8833 104.253 83.8833C105.938 83.8833 107.019 85.3487 107.019 87.1622C107.019 88.939 105.957 90.4411 104.253 90.4411ZM111.653 91.8882H113.632V78.5162H111.653V91.8882ZM116.376 91.8882H118.354V78.5162H116.376V91.8882ZM129.525 87.034C129.525 84.2863 127.858 82.308 125.037 82.308C122.326 82.308 120.421 84.4145 120.421 87.1256C120.421 90.0015 122.143 92.0164 125.11 92.0164C127.217 92.0164 128.847 90.9723 129.415 89.1039H127.62C127.143 90.148 126.319 90.6059 125.11 90.6059C123.443 90.6059 122.308 89.5069 122.234 87.6018H129.525V87.034ZM125 83.6269C126.649 83.6269 127.638 84.8725 127.711 86.4661H122.234C122.326 85.0557 123.388 83.6269 125 83.6269ZM135.575 90.2579C134.586 90.2579 134.073 89.6717 134.073 88.6643V83.9932H136.674V82.4362H132.607C133.615 82.4362 134.073 81.7218 134.073 80.9525V79.8534H132.095V82.4362H130.501V83.9932H132.095V88.9207C132.095 90.8441 133.047 91.8882 134.934 91.8882H136.692V90.2579H135.575ZM147.51 82.253C145.953 82.253 144.854 82.9858 144.451 85.1289V78.5162H142.473V91.8882H144.451V86.3929C144.451 84.8725 145.257 83.92 146.668 83.92C148.023 83.92 148.756 84.7809 148.756 86.2463V91.8882H150.734V86.0448C150.734 83.6818 149.544 82.253 147.51 82.253ZM160.349 82.4362L160.129 85.5136C159.671 83.0957 158.425 82.253 156.612 82.253C154.102 82.253 152.674 84.4329 152.674 87.1622C152.674 89.8366 154.047 92.0714 156.612 92.0714C158.425 92.0714 159.689 91.2471 160.221 88.8474L160.44 91.8882H162.144V82.4362H160.349ZM157.4 90.4411C155.733 90.4411 154.652 88.9024 154.652 87.1622C154.652 85.4037 155.751 83.8833 157.4 83.8833C159.085 83.8833 160.166 85.3487 160.166 87.1622C160.166 88.939 159.103 90.4411 157.4 90.4411ZM168.354 92.0164C170.515 92.0164 172.347 91.0272 172.347 88.9757C172.347 87.6018 171.486 86.7226 169.819 86.4295L167.401 86.0265C166.485 85.8616 166.119 85.477 166.119 84.8725C166.119 84.0665 166.98 83.6269 168.116 83.6269C169.288 83.6269 170.021 84.1031 170.222 85.0557H172.036C171.852 83.3155 170.369 82.308 168.152 82.308C165.991 82.308 164.269 83.2422 164.269 85.0373C164.269 86.3562 165.075 87.1072 166.687 87.4003L169.105 87.84C170.039 88.0048 170.479 88.4811 170.479 89.1955C170.479 90.1846 169.618 90.6792 168.372 90.6792C167.108 90.6792 166.156 90.093 165.917 89.0306H164.067C164.324 90.9723 166.137 92.0164 168.354 92.0164ZM183.655 82.308C182.061 82.308 180.669 83.114 180.192 85.7151V78.5162H178.214V91.8882H179.918L180.138 88.8474C180.705 91.2654 182.079 92.0164 183.746 92.0164C186.072 92.0164 187.684 89.8732 187.684 87.1622C187.684 84.5061 186.091 82.308 183.655 82.308ZM182.958 90.4411C181.255 90.4411 180.192 88.9757 180.192 87.1622C180.192 85.3671 181.237 83.8833 182.958 83.8833C184.607 83.8833 185.706 85.4037 185.706 87.1622C185.706 88.9207 184.607 90.4411 182.958 90.4411ZM198.181 87.034C198.181 84.2863 196.514 82.308 193.693 82.308C190.982 82.308 189.077 84.4145 189.077 87.1256C189.077 90.0015 190.798 92.0164 193.766 92.0164C195.872 92.0164 197.503 90.9723 198.071 89.1039H196.275C195.799 90.148 194.975 90.6059 193.766 90.6059C192.099 90.6059 190.963 89.5069 190.89 87.6018H198.181V87.034ZM193.656 83.6269C195.305 83.6269 196.294 84.8725 196.367 86.4661H190.89C190.982 85.0557 192.044 83.6269 193.656 83.6269ZM208.77 87.034C208.77 84.2863 207.104 82.308 204.283 82.308C201.572 82.308 199.667 84.4145 199.667 87.1256C199.667 90.0015 201.388 92.0164 204.356 92.0164C206.462 92.0164 208.093 90.9723 208.661 89.1039H206.865C206.389 90.148 205.565 90.6059 204.356 90.6059C202.689 90.6059 201.553 89.5069 201.48 87.6018H208.77V87.034ZM204.246 83.6269C205.895 83.6269 206.884 84.8725 206.957 86.4661H201.48C201.572 85.0557 202.634 83.6269 204.246 83.6269ZM215.643 82.308C214.214 82.308 213.06 83.0407 212.694 85.2388L212.511 82.4362H210.789V91.8882H212.767V86.3929C212.767 84.8725 213.573 83.92 214.984 83.92C216.339 83.92 217.072 84.7809 217.072 86.2463V91.8882H219.05V86.0448C219.05 83.6818 217.878 82.308 215.643 82.308ZM229.542 82.308C226.776 82.308 224.871 84.3962 224.871 87.1622C224.871 89.8732 226.721 92.0164 229.542 92.0164C231.85 92.0164 233.554 90.7158 233.902 88.5727H232.034C231.667 89.745 230.806 90.4411 229.561 90.4411C227.875 90.4411 226.813 88.939 226.813 87.1622C226.813 85.3854 227.875 83.8833 229.561 83.8833C230.806 83.8833 231.667 84.5794 232.034 85.7517H233.902C233.554 83.6269 231.869 82.308 229.542 82.308ZM240.632 82.4362C239.148 82.4362 238.067 83.2605 237.682 85.4953L237.481 82.4362H235.851V91.8882H237.829V87.0889C237.829 85.0007 238.91 83.9932 240.668 83.9932H241.621V82.4362H240.632ZM251.649 87.034C251.649 84.2863 249.982 82.308 247.161 82.308C244.45 82.308 242.545 84.4145 242.545 87.1256C242.545 90.0015 244.267 92.0164 247.234 92.0164C249.341 92.0164 250.971 90.9723 251.539 89.1039H249.744C249.268 90.148 248.443 90.6059 247.234 90.6059C245.568 90.6059 244.432 89.5069 244.359 87.6018H251.649V87.034ZM247.125 83.6269C248.773 83.6269 249.762 84.8725 249.836 86.4661H244.359C244.45 85.0557 245.513 83.6269 247.125 83.6269ZM260.627 78.5162V85.6785C260.169 83.114 258.777 82.253 257.165 82.253C254.729 82.253 253.135 84.4695 253.135 87.1622C253.135 89.8549 254.71 92.0714 257.073 92.0714C258.722 92.0714 260.096 91.2837 260.682 88.8474L260.902 91.8882H262.605V78.5162H260.627ZM257.861 90.4777C256.194 90.4777 255.113 88.9024 255.113 87.1622C255.113 85.4037 256.212 83.8284 257.861 83.8284C259.546 83.8284 260.627 85.3487 260.627 87.1622C260.627 88.939 259.565 90.4777 257.861 90.4777ZM266.782 80.751C267.423 80.751 267.881 80.403 267.881 79.7252C267.881 79.0474 267.423 78.6811 266.782 78.6811C266.159 78.6811 265.683 79.0474 265.683 79.7252C265.683 80.403 266.159 80.751 266.782 80.751ZM267.771 82.4362H264.199V83.9932H265.793V91.8882H267.771V82.4362ZM274.532 90.2579C273.543 90.2579 273.03 89.6717 273.03 88.6643V83.9932H275.631V82.4362H271.565C272.572 82.4362 273.03 81.7218 273.03 80.9525V79.8534H271.052V82.4362H269.458V83.9932H271.052V88.9207C271.052 90.8441 272.004 91.8882 273.891 91.8882H275.65V90.2579H274.532ZM286.013 87.034C286.013 84.2863 284.346 82.308 281.525 82.308C278.814 82.308 276.909 84.4145 276.909 87.1256C276.909 90.0015 278.631 92.0164 281.598 92.0164C283.705 92.0164 285.335 90.9723 285.903 89.1039H284.108C283.631 90.148 282.807 90.6059 281.598 90.6059C279.931 90.6059 278.796 89.5069 278.722 87.6018H286.013V87.034ZM281.488 83.6269C283.137 83.6269 284.126 84.8725 284.199 86.4661H278.722C278.814 85.0557 279.876 83.6269 281.488 83.6269ZM294.991 78.5162V85.6785C294.533 83.114 293.141 82.253 291.529 82.253C289.092 82.253 287.499 84.4695 287.499 87.1622C287.499 89.8549 289.074 92.0714 291.437 92.0714C293.086 92.0714 294.459 91.2837 295.046 88.8474L295.265 91.8882H296.969V78.5162H294.991ZM292.225 90.4777C290.558 90.4777 289.477 88.9024 289.477 87.1622C289.477 85.4037 290.576 83.8284 292.225 83.8284C293.91 83.8284 294.991 85.3487 294.991 87.1622C294.991 88.939 293.928 90.4777 292.225 90.4777ZM314.295 82.4362L312.518 90.093L310.704 82.4362H308.232L306.4 90.093L304.623 82.4362H302.626L305.099 91.8882H307.517L309.459 83.8284L311.419 91.8882H313.837L316.31 82.4362H314.295ZM319.767 80.751C320.408 80.751 320.866 80.403 320.866 79.7252C320.866 79.0474 320.408 78.6811 319.767 78.6811C319.145 78.6811 318.668 79.0474 318.668 79.7252C318.668 80.403 319.145 80.751 319.767 80.751ZM320.756 82.4362H317.185V83.9932H318.778V91.8882H320.756V82.4362ZM327.518 90.2579C326.529 90.2579 326.016 89.6717 326.016 88.6643V83.9932H328.617V82.4362H324.55C325.558 82.4362 326.016 81.7218 326.016 80.9525V79.8534H324.037V82.4362H322.444V83.9932H324.037V88.9207C324.037 90.8441 324.99 91.8882 326.877 91.8882H328.635V90.2579H327.518ZM335.518 82.253C333.961 82.253 332.862 82.9858 332.459 85.1289V78.5162H330.48V91.8882H332.459V86.3929C332.459 84.8725 333.265 83.92 334.675 83.92C336.031 83.92 336.763 84.7809 336.763 86.2463V91.8882H338.742V86.0448C338.742 83.6818 337.551 82.253 335.518 82.253ZM347.642 79.0658V80.2198C347.642 80.8059 347.203 81.2456 346.617 81.2456H344.4V83.0041H345.957C346.672 83.0041 347.203 82.9491 347.496 81.7951V91.8882H349.492V79.0658H347.642ZM356.72 92.0897C359.248 92.0897 361.134 90.7525 361.134 88.3895C361.134 86.7043 359.98 85.2022 356.976 85.2022C359.797 85.2022 360.786 83.7185 360.786 82.1615C360.786 80.2198 359.064 78.8643 356.537 78.8643C354.045 78.8643 352.269 80.1831 352.122 82.5278H353.99C354.119 81.2456 354.998 80.4762 356.445 80.4762C357.782 80.4762 358.808 81.2273 358.808 82.3996C358.808 83.5536 357.892 84.4329 356.573 84.4329H355.841V86.0631H356.885C358.222 86.0631 359.156 86.979 359.156 88.2613C359.156 89.5801 358.112 90.4777 356.61 90.4777C355.144 90.4777 354.1 89.5985 353.826 88.2246H351.921C352.214 90.6243 354.009 92.0897 356.72 92.0897ZM368.177 78.8643C364.733 78.8643 363.066 81.8684 363.066 85.477C363.066 89.0489 364.715 92.0897 368.177 92.0897C371.565 92.0897 373.287 89.1039 373.287 85.477C373.287 81.8684 371.584 78.8643 368.177 78.8643ZM368.177 90.3678C366.052 90.3678 365.063 88.2246 365.063 85.477C365.063 82.7293 366.052 80.5678 368.177 80.5678C370.265 80.5678 371.291 82.6744 371.291 85.477C371.291 88.2613 370.265 90.3678 368.177 90.3678ZM376.311 89.9648C375.707 89.9648 375.267 90.4044 375.267 90.9906C375.267 91.5768 375.707 92.0164 376.22 92.0164C376.494 92.0164 376.934 91.9798 377.227 91.3203C377.484 92.8407 376.146 93.4818 375.23 93.4818H375.011V94.1596H375.432C376.769 94.1596 377.538 92.9323 377.538 91.5035C377.538 90.551 377.044 89.9648 376.311 89.9648ZM385.088 83.1506C383.531 83.1506 382.285 83.9749 381.68 85.6235L382.432 80.7144H388V79.0658H380.856L379.885 86.2646H381.79C382.34 85.2755 383.183 84.7626 384.282 84.7626C385.857 84.7626 387.029 86.0815 387.029 87.6385C387.029 89.2504 385.857 90.4777 384.245 90.4777C382.889 90.4777 381.992 89.745 381.626 88.5177H379.702C380.16 90.7158 381.9 92.0897 384.245 92.0897C386.993 92.0897 389.008 90.2579 389.008 87.6201C389.008 85.1289 387.506 83.1506 385.088 83.1506ZM395.975 78.8643C392.531 78.8643 390.865 81.8684 390.865 85.477C390.865 89.0489 392.513 92.0897 395.975 92.0897C399.364 92.0897 401.086 89.1039 401.086 85.477C401.086 81.8684 399.382 78.8643 395.975 78.8643ZM395.975 90.3678C393.85 90.3678 392.861 88.2246 392.861 85.477C392.861 82.7293 393.85 80.5678 395.975 80.5678C398.063 80.5678 399.089 82.6744 399.089 85.477C399.089 88.2613 398.063 90.3678 395.975 90.3678ZM408.121 78.8643C404.678 78.8643 403.011 81.8684 403.011 85.477C403.011 89.0489 404.659 92.0897 408.121 92.0897C411.51 92.0897 413.232 89.1039 413.232 85.477C413.232 81.8684 411.529 78.8643 408.121 78.8643ZM408.121 90.3678C405.997 90.3678 405.007 88.2246 405.007 85.477C405.007 82.7293 405.997 80.5678 408.121 80.5678C410.21 80.5678 411.235 82.6744 411.235 85.477C411.235 88.2613 410.21 90.3678 408.121 90.3678ZM429.314 79.0658V91.0089L422.958 79.0658H419.55V91.8882H421.492V79.9633L427.83 91.8882H431.255V79.0658H429.314ZM439.296 85.2205V86.7409H443.747C443.582 88.9757 442.227 90.3861 439.864 90.3861C437.171 90.3861 435.559 88.2246 435.559 85.477C435.559 82.8942 437.226 80.6411 439.845 80.6411C441.622 80.6411 442.886 81.3738 443.454 82.8942H445.487C444.828 80.3297 442.758 78.9375 439.809 78.9375C436.219 78.9375 433.544 81.7768 433.544 85.477C433.544 89.1405 435.962 92.0164 439.296 92.0164C441.421 92.0164 443.143 91.1372 443.839 88.1514L444.077 91.8882H445.78V85.2205H439.296ZM457.882 79.0658V91.0089L451.525 79.0658H448.118V91.8882H450.06V79.9633L456.398 91.8882H459.823V79.0658H457.882Z" fill="#FFFFFE"/>
<path d="M40.6397 41.6243H51.5211V39.3003H44.4298V39.0722L47.5682 36.0315C50.4243 33.2841 51.2822 31.8723 51.2822 30.0913V30.0587C51.2822 27.4198 49.0886 25.5628 46.037 25.5628C42.7682 25.5628 40.4877 27.6045 40.4877 30.5257L40.4986 30.5583L43.1049 30.5691L43.1157 30.5257C43.1157 28.9076 44.2343 27.8108 45.8958 27.8108C47.5248 27.8108 48.513 28.8533 48.513 30.2976V30.3302C48.513 31.5356 47.9157 32.3284 45.7872 34.4786L40.6397 39.7347V41.6243ZM59.7619 41.9392C63.237 41.9392 65.6153 40.017 65.6153 37.2587V37.237C65.6153 35.065 64.0841 33.6967 61.7818 33.4795V33.4252C63.6606 33.0343 65.0615 31.742 65.0615 29.7981V29.7764C65.0615 27.3221 62.9655 25.6389 59.7402 25.6389C56.5801 25.6389 54.4407 27.4198 54.2018 30.1348L54.1909 30.2542H56.7973L56.8081 30.1456C56.9493 28.7447 58.0896 27.8651 59.7402 27.8651C61.4126 27.8651 62.3791 28.7121 62.3791 30.1456V30.1673C62.3791 31.5356 61.228 32.513 59.5013 32.513H57.7095V34.5981H59.5556C61.5646 34.5981 62.7809 35.5103 62.7809 37.1609V37.1827C62.7809 38.6379 61.5755 39.6478 59.7619 39.6478C57.9267 39.6478 56.6995 38.703 56.5475 37.3781L56.5366 37.2587H53.8652L53.876 37.389C54.0823 40.0713 56.3303 41.9392 59.7619 41.9392ZM70.1313 31.4705C71.1304 31.4705 71.8579 30.7103 71.8579 29.7547C71.8579 28.7882 71.1304 28.0388 70.1313 28.0388C69.143 28.0388 68.4046 28.7882 68.4046 29.7547C68.4046 30.7103 69.143 31.4705 70.1313 31.4705ZM70.1313 39.5284C71.1304 39.5284 71.8579 38.779 71.8579 37.8125C71.8579 36.846 71.1304 36.0967 70.1313 36.0967C69.143 36.0967 68.4046 36.846 68.4046 37.8125C68.4046 38.779 69.143 39.5284 70.1313 39.5284ZM82.1295 41.6243H84.8119V38.6161H86.9186V36.303H84.8119V25.9538H80.8481C78.7196 29.19 76.4934 32.7954 74.4626 36.3248V38.6161H82.1295V41.6243ZM77.0689 36.3682V36.2053C78.5893 33.5447 80.4028 30.6452 82.0101 28.1909H82.173V36.3682H77.0689ZM94.9749 41.9392C98.4499 41.9392 100.828 40.017 100.828 37.2587V37.237C100.828 35.065 99.297 33.6967 96.9947 33.4795V33.4252C98.8735 33.0343 100.274 31.742 100.274 29.7981V29.7764C100.274 27.3221 98.1785 25.6389 94.9531 25.6389C91.793 25.6389 89.6536 27.4198 89.4147 30.1348L89.4039 30.2542H92.0102L92.021 30.1456C92.1622 28.7447 93.3025 27.8651 94.9531 27.8651C96.6255 27.8651 97.592 28.7121 97.592 30.1456V30.1673C97.592 31.5356 96.4409 32.513 94.7142 32.513H92.9224V34.5981H94.7685C96.7776 34.5981 97.9938 35.5103 97.9938 37.1609V37.1827C97.9938 38.6379 96.7884 39.6478 94.9749 39.6478C93.1396 39.6478 91.9124 38.703 91.7604 37.3781L91.7495 37.2587H89.0781L89.0889 37.389C89.2953 40.0713 91.5432 41.9392 94.9749 41.9392Z" fill="white"/>
<path opacity="0.35" d="M440.081 30.09C440.081 27.581 442.115 25.5471 444.624 25.5471H466.865C469.374 25.5471 471.408 27.581 471.408 30.09V36.6314C471.408 39.1403 469.374 41.1743 466.865 41.1743H444.624C442.115 41.1743 440.081 39.1403 440.081 36.6314V30.09Z" stroke="white" stroke-width="1.38034"/>
<path opacity="0.4" d="M473.406 31.3982V36.9195C474.517 36.4519 475.239 35.3641 475.239 34.1589C475.239 32.9536 474.517 31.8658 473.406 31.3982Z" fill="white"/>
<path d="M442.007 30.0899C442.007 28.6449 443.179 27.4734 444.624 27.4734H459.015C460.46 27.4734 461.632 28.6449 461.632 30.0899V36.6313C461.632 38.0763 460.46 39.2478 459.015 39.2478H444.624C443.179 39.2478 442.007 38.0763 442.007 36.6313V30.0899Z" fill="white"/>
<path fill-rule="evenodd" clip-rule="evenodd" d="M419.113 29.5505C422.34 29.5506 425.444 30.8162 427.783 33.0858C427.959 33.261 428.24 33.2588 428.414 33.0808L430.097 31.3466C430.185 31.2564 430.234 31.1341 430.233 31.0069C430.232 30.8797 430.182 30.758 430.093 30.6688C423.955 24.6641 414.271 24.6641 408.133 30.6688C408.044 30.7579 407.993 30.8796 407.993 31.0068C407.992 31.134 408.041 31.2563 408.128 31.3466L409.812 33.0808C409.986 33.2591 410.267 33.2613 410.443 33.0858C412.782 30.8161 415.886 29.5505 419.113 29.5505ZM419.16 34.786C420.933 34.7858 422.642 35.4585 423.957 36.6733C424.134 36.8457 424.414 36.8419 424.588 36.6649L426.269 34.9306C426.358 34.8397 426.407 34.7163 426.406 34.588C426.404 34.4598 426.353 34.3375 426.262 34.2484C422.26 30.4484 416.063 30.4484 412.06 34.2484C411.97 34.3375 411.919 34.4599 411.917 34.5881C411.916 34.7164 411.965 34.8398 412.054 34.9306L413.735 36.6649C413.908 36.8419 414.188 36.8457 414.366 36.6733C415.68 35.4593 417.388 34.7867 419.16 34.786ZM422.579 38.1709C422.582 38.2995 422.532 38.4235 422.442 38.5135L419.534 41.5098C419.448 41.5978 419.332 41.6474 419.211 41.6474C419.089 41.6474 418.973 41.5978 418.888 41.5098L415.979 38.5135C415.889 38.4234 415.84 38.2994 415.842 38.1708C415.845 38.0422 415.899 37.9204 415.993 37.8342C417.85 36.2305 420.571 36.2305 422.429 37.8342C422.522 37.9205 422.577 38.0423 422.579 38.1709Z" fill="white"/>
<path d="M387.06 30.0901C387.06 29.3676 387.646 28.7818 388.368 28.7818H389.677C390.399 28.7818 390.985 29.3676 390.985 30.0901V40.5562C390.985 41.2788 390.399 41.8645 389.677 41.8645H388.368C387.646 41.8645 387.06 41.2788 387.06 40.5562V30.0901Z" fill="white"/>
<path d="M393.602 27.4736C393.602 26.751 394.187 26.1653 394.91 26.1653H396.218C396.941 26.1653 397.526 26.751 397.526 27.4736V40.5562C397.526 41.2788 396.941 41.8645 396.218 41.8645H394.91C394.187 41.8645 393.602 41.2788 393.602 40.5562V27.4736Z" fill="white"/>
<path d="M380.519 34.669C380.519 33.9465 381.105 33.3608 381.827 33.3608H383.135C383.858 33.3608 384.444 33.9465 384.444 34.669V40.5562C384.444 41.2788 383.858 41.8645 383.135 41.8645H381.827C381.105 41.8645 380.519 41.2788 380.519 40.5562V34.669Z" fill="white"/>
<path d="M373.978 37.9397C373.978 37.2172 374.563 36.6314 375.286 36.6314H376.594C377.317 36.6314 377.902 37.2172 377.902 37.9397V40.5562C377.902 41.2788 377.317 41.8645 376.594 41.8645H375.286C374.563 41.8645 373.978 41.2788 373.978 40.5562V37.9397Z" fill="white"/>
</g>
<defs>
<clipPath id="clip0_165_4256">
<rect width="510.28" height="140" rx="16" fill="white"/>
</clipPath>
</defs>
</svg>
