<svg width="20" height="20" viewBox="0 0 20 20" fill="none" xmlns="http://www.w3.org/2000/svg">
<path d="M16.792 8.37762L16.7758 8.39376L16.7739 8.41654C16.3079 13.8451 11.7256 18.0625 6.25021 18.0625C5.12335 18.0625 4.19635 17.8837 3.49691 17.5379C2.93722 17.2541 2.71085 16.9572 2.65385 16.8717C2.60738 16.8011 2.57743 16.7209 2.56624 16.637C2.55503 16.5532 2.5629 16.4678 2.58926 16.3874C2.61562 16.307 2.65979 16.2335 2.71847 16.1725L2.67343 16.1292L2.71847 16.1725C2.77715 16.1116 2.84884 16.0646 2.92819 16.0352L2.92832 16.0355L2.93441 16.0325C2.93289 16.0332 3.40996 15.8493 4.02215 15.5037C4.63753 15.1562 5.40389 14.6385 6.00796 13.9555L6.05398 13.9034L5.9974 13.8632C5.26156 13.3392 4.61481 12.7003 4.08192 11.971L4.08178 11.9708C3.0203 10.5296 1.89335 8.02342 2.56947 4.27705C2.58876 4.17628 2.63488 4.08257 2.70298 4.00581C2.77114 3.92897 2.85879 3.87197 2.95666 3.84082L2.95666 3.84082L2.95716 3.84066C3.05521 3.80855 3.16021 3.80403 3.26066 3.8276C3.36031 3.85097 3.45168 3.90109 3.52493 3.97253C3.52626 3.97403 3.52739 3.97521 3.52793 3.97578C3.52801 3.97586 3.52807 3.97592 3.52812 3.97598L3.5357 3.98379C3.54174 3.98992 3.55018 3.99832 3.5609 4.00883C3.58238 4.02987 3.61341 4.05972 3.65349 4.09732C3.73365 4.17253 3.85022 4.27897 3.99929 4.4083C4.2974 4.66695 4.72573 5.01735 5.25302 5.39272C6.30693 6.143 7.75933 6.99532 9.35946 7.41206L9.43771 7.43244V7.35157V6.87517C9.44076 6.38792 9.53973 5.90604 9.72899 5.45703C9.91827 5.00795 10.1942 4.60055 10.5409 4.2581C10.8876 3.91565 11.2984 3.64484 11.7498 3.46115C12.2011 3.27749 12.6842 3.18451 13.1714 3.18751C13.8109 3.19667 14.4372 3.37131 14.9891 3.6944C15.5412 4.01754 16.0001 4.47816 16.3212 5.03139L16.3392 5.06251H16.3752L18.7502 5.06251L18.7504 5.06251C18.8615 5.06216 18.9701 5.0947 19.0627 5.15601C19.1551 5.21717 19.2273 5.30424 19.2704 5.4063C19.3109 5.51054 19.3211 5.6241 19.2999 5.73391C19.2787 5.84365 19.227 5.94517 19.1506 6.02681L16.792 8.37762Z" fill="#7234F5" stroke="#7234F5" stroke-width="0.125"/>
</svg>
