<svg width="422" height="119" viewBox="0 0 422 119" fill="none" xmlns="http://www.w3.org/2000/svg">
<g opacity="0.1">
<g clip-path="url(#clip0_165_4173)">
<rect width="422" height="119" rx="16" fill="#FF785B"/>
<path d="M40.0273 61.5102C36.6776 61.5102 34.107 63.224 32.8606 66.8463L34.3796 57.1868H45.9476V52.9413H30.3678L28.2645 68.5212H33.1332C34.1459 66.6516 35.7428 65.6779 37.8461 65.6779C40.8452 65.6779 43.0654 68.1706 43.0654 71.1308C43.0654 74.1689 40.8842 76.4669 37.8072 76.4669C35.2365 76.4669 33.5617 75.1816 32.8606 72.8446H27.914C28.8098 77.6743 32.7048 80.5956 37.8072 80.5956C43.7665 80.5956 48.1678 76.7785 48.1678 71.0529C48.1678 65.7168 45.0907 61.5102 40.0273 61.5102ZM65.1598 65.7947C69.678 64.6262 71.2749 62.1334 71.2749 59.3291C71.2749 55.2004 67.1463 52.5518 62.1218 52.5518C57.1752 52.5518 53.0076 55.2004 53.0076 59.3291C53.0076 62.1334 54.6045 64.6262 59.1226 65.7947C54.0592 66.7295 51.8391 69.3391 51.8391 73.0393C51.8391 77.5575 56.4351 80.5956 62.1218 80.5956C67.7695 80.5956 72.4434 77.6354 72.4434 73.0393C72.4434 69.3781 70.2622 66.7295 65.1598 65.7947ZM57.6815 60.147C57.6815 57.7711 59.629 56.3299 62.1218 56.3299C64.6145 56.3299 66.601 57.7321 66.601 60.147C66.601 62.3671 64.6145 64.1199 62.1218 64.1199C59.6679 64.1199 57.6815 62.4061 57.6815 60.147ZM62.1218 76.8174C59.1616 76.8174 56.7857 75.1816 56.7857 72.4551C56.7857 69.7676 59.0447 67.9369 62.1218 67.9369C65.0819 67.9369 67.4968 69.7286 67.4968 72.4551C67.4968 75.1426 65.2377 76.8174 62.1218 76.8174ZM82.7234 75.7269C83.6192 73.1951 88.3711 70.6245 91.0975 68.1317C93.7071 65.8337 95.0314 63.3019 95.0314 60.4586C95.0314 55.6289 91.3312 52.5518 85.9951 52.5518C80.6201 52.5518 76.7641 55.7068 76.4135 61.3544H81.3991C81.6328 58.589 83.2297 56.9142 85.8393 56.9142C88.2542 56.9142 89.929 58.3943 89.929 60.6144C89.929 62.445 89.0721 63.7693 87.5142 65.2884C83.814 68.8717 76.4914 71.715 76.3746 80.1671V80.2061H95.0704V75.7269H82.7234ZM101.497 75.2984C99.9783 75.2984 98.8488 76.389 98.8488 77.8691C98.8488 79.3492 99.9783 80.4787 101.225 80.4787C101.926 80.4787 103.016 80.4008 103.795 78.726C104.302 82.3872 101.108 83.4778 99.1604 83.4778H98.6151V85.1527H99.6667C102.783 85.1527 104.535 82.3093 104.535 78.9986C104.535 76.8174 103.328 75.2984 101.497 75.2984ZM119.255 80.5956C124.786 80.5956 128.836 77.8691 128.836 72.7277C128.836 69.1833 126.421 66.0284 119.8 66.0284C126.071 66.0284 128.135 62.9514 128.135 59.6017C128.135 55.4731 124.435 52.5518 118.904 52.5518C113.373 52.5518 109.517 55.4341 109.245 60.5365H114.035C114.269 58.1216 115.905 56.6805 118.632 56.6805C121.163 56.6805 123.033 58.0437 123.033 60.2639C123.033 62.445 121.319 64.0809 118.671 64.0809H117.19V68.2485H119.449C122.02 68.2485 123.773 69.9623 123.773 72.3772C123.773 74.831 121.825 76.4669 118.982 76.4669C116.178 76.4669 114.191 74.831 113.724 72.1824H108.816C109.362 77.4796 113.257 80.5956 119.255 80.5956ZM139.132 75.7269C140.028 73.1951 144.78 70.6245 147.506 68.1317C150.116 65.8337 151.44 63.3019 151.44 60.4586C151.44 55.6289 147.74 52.5518 142.404 52.5518C137.029 52.5518 133.173 55.7068 132.822 61.3544H137.808C138.041 58.589 139.638 56.9142 142.248 56.9142C144.663 56.9142 146.337 58.3943 146.337 60.6144C146.337 62.445 145.481 63.7693 143.923 65.2884C140.222 68.8717 132.9 71.715 132.783 80.1671V80.2061H151.479V75.7269H139.132ZM167.526 61.5102C164.177 61.5102 161.606 63.224 160.36 66.8463L161.879 57.1868H173.447V52.9413H157.867L155.764 68.5212H160.632C161.645 66.6516 163.242 65.6779 165.345 65.6779C168.344 65.6779 170.564 68.1706 170.564 71.1308C170.564 74.1689 168.383 76.4669 165.306 76.4669C162.736 76.4669 161.061 75.1816 160.36 72.8446H155.413C156.309 77.6743 160.204 80.5956 165.306 80.5956C171.266 80.5956 175.667 76.7785 175.667 71.0529C175.667 65.7168 172.59 61.5102 167.526 61.5102ZM182.571 80.4787C184.285 80.4787 185.181 79.3492 185.181 77.8691C185.181 76.389 184.285 75.2984 182.571 75.2984C180.779 75.2984 179.922 76.389 179.922 77.8691C179.922 79.3492 180.779 80.4787 182.571 80.4787ZM200.748 52.5518C193.269 52.5518 189.608 58.7838 189.608 66.5737C189.608 74.2857 193.23 80.5956 200.748 80.5956C208.109 80.5956 211.848 74.3636 211.848 66.5737C211.848 58.8227 208.148 52.5518 200.748 52.5518ZM200.748 76.1942C196.658 76.1942 194.749 72.2214 194.749 66.5737C194.749 60.926 196.658 56.9142 200.748 56.9142C204.759 56.9142 206.746 60.8481 206.746 66.5737C206.746 72.2603 204.759 76.1942 200.748 76.1942ZM226.138 80.5956C231.669 80.5956 235.72 77.8691 235.72 72.7277C235.72 69.1833 233.305 66.0284 226.683 66.0284C232.954 66.0284 235.018 62.9514 235.018 59.6017C235.018 55.4731 231.318 52.5518 225.787 52.5518C220.257 52.5518 216.401 55.4341 216.128 60.5365H220.919C221.152 58.1216 222.788 56.6805 225.515 56.6805C228.046 56.6805 229.916 58.0437 229.916 60.2639C229.916 62.445 228.202 64.0809 225.554 64.0809H224.074V68.2485H226.333C228.903 68.2485 230.656 69.9623 230.656 72.3772C230.656 74.831 228.709 76.4669 225.865 76.4669C223.061 76.4669 221.074 74.831 220.607 72.1824H215.699C216.245 77.4796 220.14 80.5956 226.138 80.5956Z" fill="#141414"/>
<path opacity="0.5" d="M258.108 62.0296V78.7L250.032 62.0296H244.164V80.2061H247.488V63.5097L255.537 80.2061H261.431V62.0296H258.108ZM272.82 70.5206V73.1172H278.585C278.325 75.9476 276.585 77.6094 273.547 77.6094C269.964 77.6094 267.913 74.7791 267.913 71.1178C267.913 67.6902 270.068 64.756 273.547 64.756C275.858 64.756 277.468 65.6649 278.221 67.6383H281.701C280.792 63.8732 277.78 61.8478 273.495 61.8478C268.328 61.8478 264.459 65.8207 264.459 71.1178C264.459 76.363 267.913 80.3878 272.535 80.3878C275.391 80.3878 277.858 79.1674 278.766 75.1945L279.156 80.2061H282.064V70.5206H272.82ZM299.086 62.0296V78.7L291.01 62.0296H285.142V80.2061H288.466V63.5097L296.515 80.2061H302.41V62.0296H299.086Z" fill="#141414"/>
<path d="M38.8869 17.2271L36.7361 26.7698L34.4034 17.2271H32.2828L29.9502 26.7243L27.8144 17.2271H26.3603L28.8596 27.8301H30.9044L33.3431 18.1814L35.7969 27.8301H37.8266L40.3411 17.2271H38.8869ZM47.2243 20.0596L47.088 22.771C46.7093 20.711 45.6642 19.9233 44.1192 19.9233C42.0895 19.9233 40.8474 21.7107 40.8474 23.9373C40.8474 26.1336 42.0289 27.9664 44.1192 27.9664C45.649 27.9664 46.7093 27.2242 47.1486 25.2096L47.2849 27.8301H48.4058V20.0596H47.2243ZM44.619 26.9061C43.1195 26.9061 42.1349 25.5126 42.1349 23.9373C42.1349 22.362 43.1346 20.9836 44.619 20.9836C46.1337 20.9836 47.1183 22.3317 47.1183 23.9373C47.1183 25.5277 46.164 26.9061 44.619 26.9061ZM50.8015 27.8301H52.1042V16.7727H50.8015V27.8301ZM54.5587 27.8301H55.8614V16.7727H54.5587V27.8301ZM65.026 23.7858C65.026 21.5895 63.6931 19.9536 61.421 19.9536C59.255 19.9536 57.7252 21.7107 57.7252 23.907C57.7252 26.2396 59.0884 27.9361 61.4816 27.9361C63.1478 27.9361 64.4353 27.103 64.92 25.6186H63.7385C63.3144 26.588 62.5571 27.0121 61.4816 27.0121C59.9821 27.0121 58.9824 25.967 58.9218 24.2099H65.026V23.7858ZM61.4059 20.817C62.8903 20.817 63.784 21.9833 63.8446 23.4526H58.9218C58.9824 22.1348 59.9518 20.817 61.4059 20.817ZM69.986 26.7546C69.0923 26.7546 68.6228 26.2245 68.6228 25.3005V21.0745H70.9403V20.0596H67.6685C68.3047 20.0596 68.6228 19.6204 68.6228 19.0599V17.939H67.3353V20.0596H65.9266V21.0745H67.3353V25.452C67.3353 26.9818 68.0775 27.8301 69.5922 27.8301H70.9554V26.7546H69.986ZM80.0987 19.9536C78.7052 19.9536 77.5388 20.711 77.1602 22.9073V16.7727H75.8575V27.8301H76.9784L77.1147 25.1642C77.5843 27.209 78.7052 27.9361 80.1593 27.9361C82.0829 27.9361 83.431 26.1639 83.431 23.9373C83.431 21.7713 82.0981 19.9536 80.0987 19.9536ZM79.6594 26.9061C78.1144 26.9061 77.1602 25.558 77.1602 23.9373C77.1602 22.3468 78.0993 20.9836 79.6594 20.9836C81.1438 20.9836 82.1284 22.362 82.1284 23.9373C82.1284 25.5277 81.1438 26.9061 79.6594 26.9061ZM91.0828 20.0596L90.9465 22.771C90.5678 20.711 89.5226 19.9233 87.9776 19.9233C85.9479 19.9233 84.7059 21.7107 84.7059 23.9373C84.7059 26.1336 85.8873 27.9664 87.9776 27.9664C89.5075 27.9664 90.5678 27.2242 91.0071 25.2096L91.1434 27.8301H92.2643V20.0596H91.0828ZM88.4775 26.9061C86.9779 26.9061 85.9934 25.5126 85.9934 23.9373C85.9934 22.362 86.9931 20.9836 88.4775 20.9836C89.9922 20.9836 90.9768 22.3317 90.9768 23.9373C90.9768 25.5277 90.0225 26.9061 88.4775 26.9061ZM94.66 27.8301H95.9626V16.7727H94.66V27.8301ZM104.203 20.0596L104.067 22.771C103.688 20.711 102.643 19.9233 101.098 19.9233C99.0685 19.9233 97.8264 21.7107 97.8264 23.9373C97.8264 26.1336 99.0079 27.9664 101.098 27.9664C102.628 27.9664 103.688 27.2242 104.128 25.2096L104.264 27.8301H105.385V20.0596H104.203ZM101.598 26.9061C100.098 26.9061 99.1139 25.5126 99.1139 23.9373C99.1139 22.362 100.114 20.9836 101.598 20.9836C103.113 20.9836 104.097 22.3317 104.097 23.9373C104.097 25.5277 103.143 26.9061 101.598 26.9061ZM111.461 19.9536C110.25 19.9536 109.28 20.6049 108.962 22.4074L108.841 20.0596H107.705V27.8301H109.007V23.3011C109.007 21.9076 109.75 21.0139 111.052 21.0139C112.294 21.0139 112.976 21.7864 112.976 23.1648V27.8301H114.263V23.0133C114.263 21.0896 113.294 19.9536 111.461 19.9536ZM119.733 19.9536C117.506 19.9536 115.976 21.6955 115.976 23.9373C115.976 26.1488 117.461 27.9361 119.733 27.9361C121.55 27.9361 122.883 26.9061 123.201 25.2248H121.99C121.656 26.2699 120.869 26.9061 119.748 26.9061C118.233 26.9061 117.249 25.558 117.249 23.9373C117.249 22.3317 118.233 20.9836 119.748 20.9836C120.869 20.9836 121.656 21.6198 121.99 22.6649H123.201C122.883 20.9987 121.55 19.9536 119.733 19.9536ZM131.842 23.7858C131.842 21.5895 130.509 19.9536 128.237 19.9536C126.071 19.9536 124.541 21.7107 124.541 23.907C124.541 26.2396 125.904 27.9361 128.297 27.9361C129.964 27.9361 131.251 27.103 131.736 25.6186H130.554C130.13 26.588 129.373 27.0121 128.297 27.0121C126.798 27.0121 125.798 25.967 125.738 24.2099H131.842V23.7858ZM128.222 20.817C129.706 20.817 130.6 21.9833 130.66 23.4526H125.738C125.798 22.1348 126.768 20.817 128.222 20.817Z" fill="#141414"/>
<path d="M390.419 26.7422L392.742 30.7487" stroke="#141414" stroke-width="1.6229" stroke-linecap="round" stroke-linejoin="round"/>
<path d="M385.662 28.9736L386.382 33.0613" stroke="#141414" stroke-width="1.6229" stroke-linecap="round" stroke-linejoin="round"/>
<path d="M380.337 28.9636L379.617 33.0614" stroke="#141414" stroke-width="1.6229" stroke-linecap="round" stroke-linejoin="round"/>
<path d="M375.58 26.7422L373.257 30.769" stroke="#141414" stroke-width="1.6229" stroke-linecap="round" stroke-linejoin="round"/>
<path d="M373.267 24.4702C374.971 26.58 378.095 29.2476 383.005 29.2476C387.914 29.2476 391.038 26.58 392.742 24.4702" stroke="#141414" stroke-width="1.6229" stroke-linecap="round" stroke-linejoin="round"/>
</g>
</g>
<defs>
<clipPath id="clip0_165_4173">
<rect width="422" height="119" rx="16" fill="white"/>
</clipPath>
</defs>
</svg>
