<svg width="20" height="20" viewBox="0 0 20 20" fill="none" xmlns="http://www.w3.org/2000/svg">
<path d="M2.93526 13.9233L2.94224 13.8987L2.92993 13.8762C2.25674 12.6484 1.91492 11.2665 1.93812 9.86642C1.96132 8.46637 2.34874 7.09651 3.06224 5.89169C3.77574 4.68688 4.79072 3.68866 6.00724 2.99531C7.22376 2.30196 8.59989 1.93739 10.0001 1.9375C11.2292 1.93767 12.442 2.21884 13.5457 2.75951C14.6495 3.30019 15.615 4.08606 16.3686 5.05706C17.1221 6.02806 17.6436 7.15848 17.8933 8.36192C18.1431 9.56536 18.1143 10.81 17.8094 12.0006C17.5044 13.1912 16.9312 14.2964 16.1337 15.2316C15.3362 16.1668 14.3354 16.9073 13.2079 17.3964C12.0803 17.8856 10.8559 18.1105 9.6281 18.054C8.40032 17.9974 7.20172 17.6609 6.12392 17.0702L6.10147 17.0579L6.07684 17.0649L3.73309 17.7289L3.73272 17.729C3.52989 17.7879 3.315 17.7912 3.11046 17.7386C2.90592 17.6861 2.71924 17.5795 2.56991 17.4302C2.42058 17.2809 2.31408 17.0942 2.26152 16.8897C2.20895 16.6851 2.21226 16.4702 2.27109 16.2674L2.2712 16.267L2.93526 13.9233ZM11.8829 15.0625H11.8831C12.6442 15.0604 13.3734 14.7566 13.9109 14.2176C14.4483 13.6787 14.7501 12.9486 14.7501 12.1875V12.1874C14.7497 11.9717 14.6923 11.76 14.5839 11.5735C14.4755 11.3871 14.3199 11.2325 14.1327 11.1254L14.1327 11.1254L12.5313 10.2115C12.3298 10.0955 12.1008 10.0358 11.8683 10.0387C11.6359 10.0416 11.4086 10.1069 11.2101 10.2277C11.21 10.2277 11.2099 10.2278 11.2098 10.2279L10.3126 10.7632C9.87212 10.4972 9.50295 10.128 9.23696 9.68752L9.77226 8.79032C9.77231 8.79024 9.77236 8.79015 9.77241 8.79007C9.89326 8.59155 9.95854 8.36421 9.96143 8.13182C9.96432 7.89939 9.90468 7.67046 9.78877 7.46898C9.78873 7.46893 9.7887 7.46888 9.78867 7.46882L8.87472 5.86746L8.87469 5.8674C8.76758 5.68022 8.61302 5.52458 8.42658 5.41619C8.24014 5.30779 8.02842 5.25047 7.81277 5.25H7.81263C7.05151 5.25 6.32145 5.5518 5.78252 6.08924C5.24358 6.62668 4.93974 7.3559 4.93763 8.11701V8.11719C4.93763 9.95783 5.66828 11.7232 6.96908 13.0255C8.26987 14.3278 10.0344 15.0604 11.8751 15.0625H11.8751H11.8829ZM5.00013 8.11719C5.0022 7.37262 5.29943 6.65926 5.82665 6.1335C6.35387 5.60774 7.06806 5.3125 7.81263 5.3125C8.0173 5.31295 8.21823 5.36735 8.39517 5.47022C8.57211 5.57309 8.71879 5.72079 8.82044 5.89844L5.00013 8.11719Z" fill="#27AE60" stroke="#27AE60" stroke-width="0.125"/>
<path d="M10.6956 12.1399L10.6956 12.1399C10.6001 12.1957 10.4926 12.228 10.3822 12.234C10.2717 12.2399 10.1615 12.2195 10.0605 12.1743M10.6956 12.1399L10.0604 12.1742C10.0604 12.1742 10.0605 12.1743 10.0605 12.1743M10.6956 12.1399L10.6963 12.1395M10.6956 12.1399L10.6963 12.1395M10.0605 12.1743C9.06397 11.7326 8.26737 10.9359 7.82568 9.93939M10.0605 12.1743L7.82568 9.93939M10.6963 12.1395L11.8838 11.424L13.3736 12.27C13.3548 12.6455 13.1948 13.0007 12.9249 13.2638C12.6462 13.5356 12.2722 13.6876 11.8828 13.6875H11.8828H11.875C11.1439 13.6875 10.4199 13.5434 9.74454 13.2633C9.06917 12.9833 8.45562 12.5729 7.93899 12.0556C7.42236 11.5382 7.01279 10.9241 6.73371 10.2483C6.45462 9.57256 6.31149 8.8484 6.31251 8.11727L6.31251 8.11717C6.31238 7.72783 6.46444 7.35386 6.73622 7.07507C6.99933 6.80517 7.35449 6.64518 7.73003 6.62638L8.57604 8.11625L7.86054 9.30368L7.86053 9.30368M10.6963 12.1395L7.86053 9.30368M7.86053 9.30368L7.86012 9.30439M7.86053 9.30368L7.86012 9.30439M7.86012 9.30439C7.80426 9.3999 7.77201 9.50736 7.76604 9.61784C7.76007 9.72824 7.78052 9.83847 7.82568 9.93939M7.86012 9.30439L7.82568 9.93939" fill="#27AE60" stroke="#27AE60" stroke-width="0.125"/>
</svg>
